<svg xmlns="http://www.w3.org/2000/svg" width="505" height="494" fill="none"><path d="M0 492h62.076l74.66-74.673 26.005 26.01H312.06L435.374 320H505" stroke="#6baaff" stroke-width="3"/><g stroke="#fff"><g stroke-width="4"><path d="M249.837 132.827c.749 14.399 0 26.635-3.745 40.619m3.745-40.619c-.749-14.4-6.242-29.05-11.57-41.036-1.248-2.83-1.664-11.736 9.24-9.822 13.484 4.745 48.527 18.312 50.441 35.292.749 6.826-4.078 11.653-16.481 13.318-12.402 1.582-25.886 1.998-31.63 2.248zm-3.745 40.536c-3.58 18.811-14.733 28.883-23.473 31.38-44.782 12.735-46.613-54.77-41.785-90.728 2.913-21.891 13.401-43.283 26.22-51.274 5.327-3.329 16.897-7.658 35.126-1.998 22.224 6.992 44.781 18.895 50.691 22.391s19.893 14.233 24.388 20.643c8.657 12.402 12.153 18.645 7.991 34.293-4.079 15.732-19.727 18.063-24.721 18.895-21.725 3.996-33.462 9.239-54.437 16.398z"/><path d="M223.035 153.302c.167 6.41-1.082 11.987-2.996 15.815-1.998 3.996-4.079 4.828-5.078 4.911-.999 0-3.08-.665-5.327-4.578-2.164-3.662-3.746-9.156-3.912-15.565s1.082-11.986 2.996-15.815c1.998-3.995 4.079-4.828 5.078-4.911.999 0 3.08.666 5.327 4.578 2.081 3.663 3.662 9.156 3.912 15.565z"/></g><circle cx="253" cy="132" r="130.5" stroke-width="3"/></g></svg>