<svg xmlns="http://www.w3.org/2000/svg" width="40" height="40" fill="none"><g clip-path="url(#A)" stroke="#fff"><g stroke-linecap="round" stroke-linejoin="round" stroke-width="1.5"><path d="M23.332 32.222h4.445c3.068 0 5.555-2.487 5.555-5.555"/><path d="M26.11 35l-2.778-2.778 2.778-2.777M16.666 7.778h-4.445c-3.068 0-5.555 2.487-5.555 5.555M13.887 5l2.778 2.778-2.778 2.777m-7.221 19.03v.205a2.71 2.71 0 0 0 2.71 2.71h2.915a2.71 2.71 0 0 0 .617-5.348L8.76 26.18c-1.227-.285-2.093-1.378-2.093-2.637a2.71 2.71 0 0 1 2.71-2.71h2.915A2.71 2.71 0 0 1 15 23.543v.205"/></g><path d="M30.462 19.167h-5.448L25 13.437l5.462-.013a2.87 2.87 0 1 1 0 5.743h0z" stroke-linejoin="round" stroke-width="1.5"/><path d="M25 13.423V7.5h4.732c1.635 0 2.962 1.327 2.962 2.962s-1.335 2.962-2.98 2.962M28.332 7.5V5.833m0 15v-1.667m-17.5 1.667v-1.667m0 15.001V32.5" stroke-linejoin="round" stroke-linecap="round" stroke-width="1.5"/></g><defs><clipPath id="A"><path fill="#fff" d="M0 0h40v40H0z"/></clipPath></defs></svg>