<svg xmlns="http://www.w3.org/2000/svg" width="505" height="494" fill="none"><g stroke-width="3"><path d="M0 492h62.076l74.66-74.673 26.005 26.01H312.06L435.374 320H505" stroke="#6baaff"/><circle cx="253" cy="132" r="130.5" stroke="#fff"/></g><path d="M199.679 165.697h2v-2-45.979l33.908 25.52v20.459 2h2 9.676 2v-2-23.471-.005c-.003-1.181-.279-2.345-.807-3.402s-1.295-1.976-2.238-2.687h0l-45.973-34.613h0l-.011-.008c-1.138-.845-2.487-1.358-3.899-1.482s-2.831.146-4.098.78-2.335 1.607-3.083 2.811-1.147 2.591-1.154 4.009h0v.009 58.059 2h2 9.679zm104.839-2v2h2 9.679 2v-2-58.059-.007-.007c-.01-1.416-.412-2.801-1.162-4.002a7.66 7.66 0 0 0-3.083-2.803c-1.267-.632-2.684-.9-4.095-.775a7.66 7.66 0 0 0-3.894 1.482h0l-.01.008-45.973 34.598-.001.001c-.943.711-1.709 1.63-2.238 2.687s-.804 2.221-.807 3.402v.005 23.471 2h2 9.676 2v-2-20.459l33.908-25.52v45.979z" stroke="#fff" stroke-width="4"/></svg>