<svg xmlns="http://www.w3.org/2000/svg" width="505" height="494" fill="none"><g stroke-width="3"><path d="M0 492h62.076l74.66-74.673 26.005 26.01H312.06L435.374 320H505" stroke="#6baaff"/><circle cx="253" cy="132" r="130.5" stroke="#fff"/></g><path d="M262.668 127.909v-2.352h-2.353-13.158v-14.732h7.506c1.637 0 6.682.346 11.247 3.241 4.388 2.782 8.655 8.113 8.669 18.807.007 5.396-1.113 9.252-2.705 12.025-1.588 2.767-3.722 4.589-5.953 5.805-4.462 2.431-9.275 2.428-10.697 2.427h-.078-7.989v-14.731h13.158 2.353v-2.352-8.138zm-7.038 43.71l.029.002.339.019 1.216.028a39.88 39.88 0 0 0 4.231-.221c3.473-.361 8.147-1.28 12.852-3.539 4.725-2.267 9.489-5.89 13.058-11.625s5.845-13.426 5.845-23.684c0-10.085-2.178-17.762-5.666-23.574s-8.208-9.619-13.055-12.091c-9.147-4.665-18.848-4.617-21.905-4.602l-.405.001h-21.447-2.352v2.352 30.871h-6.456-2.352v2.352 8.138 2.352h2.352 6.456v30.869 2.352h2.353 24.907zM186.352 132c0-36.809 29.839-66.648 66.648-66.648S319.648 95.191 319.648 132 289.809 198.648 253 198.648 186.352 168.809 186.352 132z" stroke="#fff" stroke-width="4.705"/></svg>