<svg xmlns="http://www.w3.org/2000/svg" width="505" height="440" fill="none" stroke-width="3"><path d="M0 438h62.076l74.66-74.673 26.005 26.01H312.06L435.374 266H505" stroke="#6baaff"/><g stroke="#fff"><circle cx="228" cy="132" r="130.5"/><path d="M174.459 85.056l.003-.002 40.079-23.262.003-.002 13.956-8.058 13.956 8.058.003.002 40.079 23.262.003.002 13.959 8.06v78.768l-13.959 8.06-.008.005-39.706 23.259-.008.005-13.951 8.055-13.959-8.06-.002-.001-40.448-23.263-.002-.001-13.957-8.059V93.116l13.959-8.06zm12.459 70.708v.864l.747.433 40.082 23.264.753.437.753-.437 40.082-23.264.747-.433v-.864-46.528-.863l-.747-.434-40.082-23.264-.753-.437-.753.437-40.082 23.264-.747.434v.863 46.528z"/></g></svg>