<svg xmlns="http://www.w3.org/2000/svg" width="505" height="494" fill="none"><g stroke-width="3"><path d="M0 492h62.076l74.66-74.673 26.005 26.01H312.06L435.374 320H505" stroke="#6baaff"/><circle cx="253" cy="132" r="130.5" stroke="#fff"/></g><path d="M272.68 67h-27.42a1 1 0 0 0-.964.732l-19.15 68.744a1 1 0 0 1-.665.686l-14.992 4.685a1 1 0 0 0-.651.639l-3.251 9.753a1 1 0 0 0 1.206 1.283l11.493-3.065a1 1 0 0 1 1.217 1.246l-13.13 45.017a1 1 0 0 0 .96 1.28h86.917a1 1 0 0 0 .96-.72l6.417-22a1 1 0 0 0-.96-1.28h-56.304a1 1 0 0 1-.954-1.3l10.426-33.175c.103-.327.366-.578.696-.667l13.899-3.706a1 1 0 0 0 .713-.724l2.431-9.722a1 1 0 0 0-1.258-1.201l-11.574 3.472a1 1 0 0 1-1.25-1.228l16.151-57.478a1 1 0 0 0-.963-1.27z" stroke="#fff" stroke-width="4"/></svg>