<svg xmlns="http://www.w3.org/2000/svg" xmlns:xlink="http://www.w3.org/1999/xlink" viewBox="0 0 505 493.5"><path d="M435.4 321.5H505v-3h-69.6v3zM313.1 444.4l123.3-123.3-2.1-2.1L311 442.3l2.1 2.1zm-150.4.4H312v-3H162.7v3zm-27-26.4l26 26 2.1-2.1-26-26-2.1 2.1zm-72.6 74.7l74.7-74.7-2.1-2.1L61 490.9l2.1 2.2zm-63.1.4h62.1v-3H0v3zM435.4 320v-1.5h-.6l-.4.4 1 1.1zM312.1 443.3v1.5h.6l.4-.4-1-1.1zm-149.4 0l-1.1 1.1.4.4h.6v-1.5zm-26-26l1.1-1.1-1.1-1.1-1.1 1.1 1.1 1.1zM62.1 492v1.5h.6l.4-.4-1-1.1z" fill="#6baaff"/><defs><circle id="A" cx="253" cy="132" r="132"/></defs><clipPath id="B"><use xlink:href="#A"/></clipPath><g stroke="#fff" stroke-miterlimit="10"><path d="M253 3c71.2 0 129 57.8 129 129h6C388 57.4 327.6-3 253-3v6zM124 132C124 60.8 181.8 3 253 3v-6c-74.6 0-135 60.4-135 135h6zm129 129c-71.2 0-129-57.8-129-129h-6c0 74.6 60.4 135 135 135v-6zm129-129c0 71.2-57.8 129-129 129v6c74.6 0 135-60.4 135-135h-6z" clip-path="url(#B)" fill="#fff"/><g fill="none"><use xlink:href="#A"/><path d="M301 90.2l-16.1 8.2-77.8 39.6c-.3-2-.4-4-.4-6.1 0-8.1 2.1-16 6.2-23 4-7 9.8-12.8 16.8-16.9s14.9-6.3 23-6.4a45.69 45.69 0 0 1 23.1 5.9l9.2-4.7 1.4-.7C278 80 268 76.3 257.6 75.5s-20.8 1.3-30.1 6-17.1 12-22.6 20.9-8.3 19.1-8.3 29.6c0 1.4.1 2.9.2 4.3.2 2-.3 4.1-1.3 5.8-1 1.8-2.5 3.2-4.3 4.1l-4.9 2.5v11.6l14.3-7.3 4.6-2.4 4.6-2.3 82-41.8 9.2-4.7 19.1-9.7V80.6L301 90.2zm18.9 13.5l-105.6 53.8-9.2 4.7-19 9.7v11.6l18.8-9.6 16.1-8.2 77.9-39.7c.3 2 .4 4.1.4 6.1 0 8.1-2.1 16-6.1 23s-9.8 12.9-16.8 16.9c-7 4.1-14.9 6.3-23 6.3-8.1.1-16-2-23.1-5.9l-.6.3-10 5.1c8.4 6.1 18.4 9.8 28.8 10.6s20.8-1.3 30.1-6 17.1-12 22.6-20.9 8.3-19.1 8.3-29.6c0-1.5-.1-2.9-.2-4.3-.2-2 .3-4.1 1.3-5.8 1-1.8 2.5-3.2 4.3-4.1l4.9-2.5v-11.5z" stroke-width="3"/></g></g></svg>