<svg xmlns="http://www.w3.org/2000/svg" width="127" height="40" fill="none"><path d="M8.157 40c-.329 0-.648 0-.973-.011a13.97 13.97 0 0 1-2.014-.171 6.46 6.46 0 0 1-1.784-.57 5.81 5.81 0 0 1-1.504-1.063 5.6 5.6 0 0 1-1.1-1.46c-.286-.545-.484-1.13-.587-1.733-.111-.648-.17-1.304-.178-1.961L0 32.077V7.915l.018-.933c.008-.656.067-1.31.177-1.957a5.9 5.9 0 0 1 .587-1.739c.28-.542.65-1.035 1.093-1.462s.952-.792 1.51-1.069a6.43 6.43 0 0 1 1.78-.57 14.07 14.07 0 0 1 2.02-.173L8.157 0h110.687l.983.014a13.63 13.63 0 0 1 1.996.17c.626.103 1.232.295 1.8.57 1.118.559 2.027 1.444 2.601 2.531a5.88 5.88 0 0 1 .576 1.725 13.07 13.07 0 0 1 .192 1.973v.93l.008 1.14v21.889l-.008 1.124v.972a12.86 12.86 0 0 1-.185 1.938 5.81 5.81 0 0 1-.587 1.747 5.71 5.71 0 0 1-1.093 1.449c-.44.433-.949.793-1.507 1.068a6.43 6.43 0 0 1-1.797.57 13.8 13.8 0 0 1-2.012.171l-.967.011h-1.167L8.157 40z" fill="#fff"/><path d="M25.864 19.434c.024-1.87 1.026-3.597 2.654-4.576-1.031-1.442-2.698-2.324-4.496-2.378-1.89-.194-3.726 1.108-4.69 1.108-.983 0-2.467-1.089-4.066-1.057-2.102.066-4.015 1.207-5.038 3.005-2.179 3.691-.554 9.116 1.535 12.099 1.043 1.461 2.264 3.093 3.861 3.034 1.563-.063 2.146-.975 4.032-.975s2.416.975 4.045.939c1.677-.028 2.733-1.468 3.74-2.942a11.94 11.94 0 0 0 1.71-3.409c-1.99-.824-3.284-2.733-3.287-4.848zm-3.076-8.918c.915-1.074 1.365-2.454 1.256-3.848-1.397.144-2.687.797-3.613 1.829a5.04 5.04 0 0 0-1.29 3.705c1.416.015 2.76-.607 3.647-1.686zm21.823 16.601h-5.129l-1.231 3.557h-2.172l4.856-13.163h2.257l4.858 13.163h-2.209l-1.231-3.557zm-4.597-1.641h4.064l-2.008-5.778h-.057l-1.999 5.778zm18.528.404c0 2.981-1.631 4.898-4.094 4.898-1.272.065-2.471-.587-3.086-1.679h-.046v4.753h-2.008V21.08h1.949v1.596h.037c.642-1.085 1.843-1.737 3.124-1.696 2.484.001 4.124 1.926 4.124 4.901zm-2.069 0c0-1.942-1.026-3.22-2.598-3.22-1.535 0-2.573 1.303-2.573 3.22s1.036 3.229 2.573 3.229c1.566 0 2.598-1.271 2.598-3.229zm12.865 0c0 2.981-1.632 4.898-4.093 4.898-1.273.065-2.471-.587-3.086-1.679h-.048v4.753h-2.008V21.08h1.949v1.596h.037c.642-1.085 1.843-1.737 3.124-1.696 2.484.001 4.127 1.926 4.127 4.901zm-2.07 0c0-1.942-1.026-3.22-2.598-3.22-1.535 0-2.573 1.303-2.573 3.22s1.035 3.229 2.573 3.229c1.574 0 2.598-1.269 2.598-3.229zm9.201 1.128c.15 1.306 1.446 2.162 3.216 2.162 1.697 0 2.918-.856 2.918-2.034 0-1.022-.737-1.634-2.48-2.052l-1.744-.411c-2.47-.584-3.618-1.714-3.618-3.549 0-2.271 2.023-3.831 4.894-3.831 2.844 0 4.793 1.56 4.858 3.831h-2.03c-.118-1.314-1.231-2.107-2.853-2.107s-2.731.802-2.731 1.964c0 .93.709 1.479 2.442 1.897l1.482.356c2.76.639 3.907 1.724 3.907 3.649 0 2.463-2.008 4.004-5.197 4.004-2.983 0-4.998-1.502-5.128-3.887l2.063.007zm12.61-8.199v2.271h1.866v1.56h-1.866v5.29c0 .823.373 1.205 1.194 1.205a6.63 6.63 0 0 0 .661-.045v1.551a5.73 5.73 0 0 1-1.118.091c-1.985 0-2.76-.73-2.76-2.592v-5.5H85.63v-1.56h1.425v-2.271h2.023zm2.944 7.069c0-3.02 1.818-4.917 4.652-4.917s4.653 1.897 4.653 4.917-1.8 4.917-4.657 4.917-4.649-1.889-4.649-4.917zm7.253 0c0-2.071-.97-3.294-2.598-3.294s-2.598 1.232-2.598 3.294.97 3.292 2.598 3.292 2.598-1.212 2.598-3.292zm3.71-4.799h1.92v1.634h.046c.268-1.052 1.254-1.776 2.362-1.733a3.14 3.14 0 0 1 .69.073v1.842a2.91 2.91 0 0 0-.905-.116c-1.119-.044-2.064.808-2.109 1.903a2.07 2.07 0 0 0 .01.305v5.692h-2.007l-.007-9.6zm14.296 6.778c-.271 1.742-2.008 2.938-4.224 2.938-2.853 0-4.625-1.87-4.625-4.871s1.781-4.963 4.54-4.963c2.717 0 4.421 1.825 4.421 4.738v.675h-6.928v.116c-.124 1.375.915 2.587 2.32 2.709.106.009.213.011.32.007.977.09 1.898-.459 2.265-1.35l1.911.002zm-6.805-2.865h4.907c.07-1.271-.924-2.359-2.223-2.432h-.182a2.51 2.51 0 0 0-1.761.7c-.468.453-.734 1.07-.737 1.715l-.004.017zM37.756 14.343V8.267h2.589c1.21 0 1.938.581 1.938 1.517 0 .633-.471 1.179-1.129 1.307v.072c.823.036 1.466.683 1.451 1.461 0 1.071-.824 1.724-2.201 1.724l-2.649-.004zm1-3.507h1.186c.885 0 1.344-.307 1.344-.889 0-.556-.433-.889-1.177-.889h-1.353v1.778zm1.446 2.706c.901 0 1.378-.346 1.378-.991s-.495-.963-1.437-.963h-1.389v1.96l1.447-.005zm3.428-.493c0-.826.652-1.302 1.808-1.37l1.317-.071v-.392c0-.486-.34-.758-.996-.758-.535 0-.907.186-1.013.51h-.929c.098-.788.883-1.293 1.986-1.293 1.219 0 1.907.573 1.907 1.542v3.136h-.919v-.646h-.075c-.314.471-.872.747-1.461.721a1.53 1.53 0 0 1-1.077-.302 1.37 1.37 0 0 1-.535-.933 1.17 1.17 0 0 1-.013-.143zm3.126-.389v-.384l-1.187.071c-.67.043-.972.258-.972.667s.379.653.901.653c.63.06 1.192-.373 1.256-.968l.002-.039zm2.33-4.26c-.017-.323.245-.598.587-.616s.634.23.654.552-.241.6-.583.619h-.033a.61.61 0 0 1-.427-.142c-.116-.099-.186-.238-.193-.386l-.005-.027zm.142 1.358h.953v4.59h-.953v-4.59zm4.248 2.962l-1.059 1.627h-1.059l1.612-2.284-1.625-2.306h1.12l1.045 1.619h.075l1.036-1.619h1.066l-1.602 2.267 1.62 2.322h-1.103l-1.059-1.627-.068.001zm3.078.329c0-.826.651-1.302 1.808-1.37l1.316-.071v-.392c0-.486-.339-.758-.994-.758-.537 0-.907.186-1.013.51h-.928c.098-.788.883-1.293 1.986-1.293 1.218 0 1.905.573 1.905 1.542v3.136h-.923v-.646h-.077c-.313.471-.871.747-1.459.721-.806.079-1.528-.474-1.612-1.235l-.008-.143zm3.124-.391v-.384l-1.186.071c-.67.043-.973.258-.973.667s.38.653.901.653a1.19 1.19 0 0 0 .84-.238c.235-.182.385-.444.415-.73l.002-.039zm2.458-2.9h.923v.703h.067c.213-.5.743-.814 1.312-.778.143-.002.287.011.427.038v.889c-.176-.036-.355-.054-.535-.056-.627-.053-1.18.384-1.236.976v.104 2.71h-.959l.001-4.587zm6.437-.003h.92v.729h.072c.249-.537.832-.866 1.451-.818a1.64 1.64 0 0 1 1.15.357c.318.258.514.625.545 1.02.009.111.005.223-.012.333v2.971h-.959v-2.746c0-.738-.34-1.104-1.05-1.104-.325-.015-.641.105-.864.329s-.331.528-.296.834v2.686h-.959l.002-4.591zm5.337 3.294c0-.826.651-1.302 1.808-1.37l1.317-.071v-.392c0-.486-.339-.758-.996-.758-.535 0-.907.186-1.012.51h-.93c.098-.788.884-1.293 1.987-1.293 1.219 0 1.906.573 1.906 1.542v3.136h-.924v-.646h-.075c-.313.471-.871.747-1.459.721-.807.079-1.528-.474-1.612-1.235-.006-.048-.009-.095-.009-.143zm3.125-.391v-.384l-1.186.071c-.671.043-.973.258-.973.667s.38.653.901.653c.63.06 1.192-.373 1.256-.968l.002-.039z" fill="#000"/></svg>