<svg xmlns="http://www.w3.org/2000/svg" width="506" height="494" fill="none"><path d="M.5 492h62.076l74.66-74.673 26.005 26.01H312.56L435.874 320H505.5" stroke="#6baaff" stroke-width="3"/><g stroke="#fff"><path d="M212.477 172.135c-7.956 0-14.47-1.868-19.542-5.606-5.019-3.791-7.529-9.237-7.529-16.232 0-1.495.16-3.257.481-5.393.854-4.805 2.082-10.572 3.684-17.353C194.109 109.184 205.856 100 224.758 100c5.126 0 9.771.854 13.829 2.616 4.058 1.656 7.261 4.218 9.611 7.636 2.349 3.363 3.524 7.368 3.524 12.013 0 1.389-.16 3.151-.481 5.286-1.014 5.927-2.189 11.747-3.631 17.353-2.349 9.131-6.354 16.019-12.12 20.557-5.713 4.485-13.402 6.674-23.013 6.674zm1.442-14.416c3.737 0 6.888-1.121 9.504-3.31 2.67-2.19 4.592-5.553 5.713-10.145 1.548-6.301 2.723-11.747 3.524-16.446a22.84 22.84 0 0 0 .427-4.325c0-6.087-3.15-9.13-9.504-9.13-3.738 0-6.941 1.121-9.611 3.31-2.616 2.19-4.485 5.553-5.606 10.145-1.228 4.485-2.403 9.932-3.631 16.446-.267 1.335-.427 2.723-.427 4.218-.054 6.194 3.203 9.237 9.611 9.237zm42.447 13.456c-.748 0-1.282-.213-1.709-.694-.32-.534-.427-1.121-.32-1.815l13.829-65.141c.107-.747.481-1.335 1.121-1.815a2.94 2.94 0 0 1 1.922-.694h26.644c7.422 0 13.349 1.548 17.834 4.592 4.538 3.096 6.834 7.528 6.834 13.348 0 1.655-.213 3.417-.587 5.233-1.655 7.688-5.019 13.348-10.145 17.032-5.019 3.685-11.907 5.5-20.664 5.5h-13.508l-4.592 21.945c-.16.747-.481 1.335-1.121 1.815a2.94 2.94 0 0 1-1.923.694h-13.615zm35.454-38.283c2.829 0 5.232-.748 7.315-2.296 2.135-1.548 3.524-3.738 4.218-6.621.213-1.121.32-2.136.32-2.99 0-1.922-.587-3.417-1.709-4.432-1.121-1.068-3.096-1.602-5.82-1.602h-12.013l-3.791 17.941h11.48z" stroke-width="3.2"/><circle cx="253.5" cy="132" r="130.5" stroke-width="3"/></g></svg>