<svg xmlns="http://www.w3.org/2000/svg" width="505" height="494" fill="none"><g stroke-width="3"><path d="M0 492h62.076l74.66-74.673 26.005 26.01H312.06L435.374 320H505" stroke="#6baaff"/><circle cx="253" cy="132" r="130.5" stroke="#fff"/></g><path d="M215.947 190l16.69-28.801 16.69-28.699 16.589-28.801 2.748-4.563 1.221 4.563 5.088 18.964-5.699 9.837-16.69 28.699L235.996 190h19.946l16.691-28.801 8.65-14.907 4.071 14.907L293.088 190H311l-7.735-28.801-7.734-28.699-2.035-7.403 12.416-21.398h-18.116l-.61-2.129-6.31-23.528-.814-3.042h-17.403l-.407.609-16.283 28.09-16.69 28.801-16.589 28.699L196 190h19.947z" stroke="#fff" stroke-width="4"/></svg>