<svg xmlns="http://www.w3.org/2000/svg" width="505" height="494" fill="none"><path d="M0 492h62.076l74.66-74.673 26.005 26.01H312.06L435.374 320H505" stroke="#6baaff" stroke-width="3"/><g stroke="#fff"><path d="M221.177 117.489c-.718-.891-1.807-1.386-2.97-1.386h-23.981c-.198 0-.372-.074-.52-.198-.124-.124-.198-.272-.198-.446v-16.16c0-.173.074-.322.198-.445.148-.148.322-.223.52-.198h25.342c6.385 0 11.904 2.624 16.557 7.845l6.162 7.524-12.003 14.626-9.107-11.161zm44.299-11.063c4.628-5.172 10.172-7.771 16.631-7.771h25.268c.174-.025.347.05.471.149.123.124.173.297.148.495v16.16a.69.69 0 0 1-.148.446.52.52 0 0 1-.471.198h-23.981c-1.138-.025-2.227.495-2.97 1.386l-17.67 21.506 17.745 21.655c.717.817 1.781 1.312 2.87 1.287h23.982c.173-.025.371.074.47.198.099.148.173.346.148.52v16.16a.69.69 0 0 1-.148.446c-.124.148-.297.223-.47.198h-25.244c-6.459 0-11.953-2.623-16.556-7.845l-14.701-17.943-14.701 17.943c-4.628 5.222-10.171 7.845-16.631 7.845h-25.292c-.174.025-.372-.074-.471-.198a.68.68 0 0 1-.148-.52V162.58a.69.69 0 0 1 .148-.445c.124-.149.297-.223.471-.198h23.981c1.138 0 2.227-.52 2.97-1.386l17.348-21.185 26.951-32.94z" stroke-width="3.2"/><circle cx="253" cy="132" r="130.5" stroke-width="3"/></g></svg>