<svg xmlns="http://www.w3.org/2000/svg" width="88" height="88" fill="#549cff"><path d="M16.5 35.75h11c4.547 0 8.25-3.703 8.25-8.25v-11c0-4.547-3.703-8.25-8.25-8.25h-11c-4.547 0-8.25 3.703-8.25 8.25v11c0 4.547 3.703 8.25 8.25 8.25zM13.75 16.5a2.77 2.77 0 0 1 2.75-2.75h11a2.77 2.77 0 0 1 2.75 2.75v11a2.77 2.77 0 0 1-2.75 2.75h-11a2.77 2.77 0 0 1-2.75-2.75v-11zm57.787-8.25h-22c-4.547 0-8.25 3.703-8.25 8.25v11c0 4.547 3.703 8.25 8.25 8.25h22c4.547 0 8.25-3.703 8.25-8.25v-11c0-4.547-3.703-8.25-8.25-8.25zm2.75 19.25a2.77 2.77 0 0 1-2.75 2.75h-22a2.77 2.77 0 0 1-2.75-2.75v-11a2.77 2.77 0 0 1 2.75-2.75h22a2.77 2.77 0 0 1 2.75 2.75v11zM23.32 57.897a2.77 2.77 0 0 0-3.887 0 2.77 2.77 0 0 0 0 3.887l5.207 5.207a2.72 2.72 0 0 0 1.943.807 2.69 2.69 0 0 0 1.907-.77l15.84-15.51c1.1-1.063 1.1-2.787.037-3.887s-2.823-1.1-3.887-.037L26.583 61.197l-3.263-3.3zm19.103 4.583a2.77 2.77 0 0 0-2.75 2.75v2.64c0 3.52-2.86 6.38-6.38 6.38H20.13c-3.52 0-6.38-2.86-6.38-6.38V54.707c0-3.52 2.86-6.38 6.38-6.38h10.523a2.77 2.77 0 0 0 2.75-2.75 2.77 2.77 0 0 0-2.75-2.75H20.13a11.88 11.88 0 0 0-11.88 11.88V67.87a11.88 11.88 0 0 0 11.88 11.88h13.163a11.88 11.88 0 0 0 11.88-11.88v-2.64a2.77 2.77 0 0 0-2.75-2.75zm29.114-21.23h-11c-4.547 0-8.25 3.703-8.25 8.25v11c0 4.547 3.703 8.25 8.25 8.25h11c4.547 0 8.25-3.703 8.25-8.25v-11c0-4.547-3.703-8.25-8.25-8.25zm2.75 19.25a2.77 2.77 0 0 1-2.75 2.75h-11a2.77 2.77 0 0 1-2.75-2.75v-11a2.77 2.77 0 0 1 2.75-2.75h11a2.77 2.77 0 0 1 2.75 2.75v11z"/></svg>