<svg xmlns="http://www.w3.org/2000/svg" width="505" height="494" fill="none"><path d="M0 492h62.076l74.66-74.673 26.005 26.01H312.06L435.374 320H505" stroke="#6baaff" stroke-width="3"/><g stroke="#fff"><path d="M223.117 184.405h-20.178c-4.24 0-6.334 0-7.611-.808-1.379-.885-2.222-2.351-2.324-3.969-.077-1.491.971-3.311 3.065-6.951l49.82-86.909c2.12-3.69 3.193-5.536 4.546-6.218a5.19 5.19 0 0 1 4.649 0c1.354.682 2.426 2.528 4.546 6.218l10.242 17.694.052.09c2.29 3.96 3.451 5.967 3.958 8.075.562 2.3.562 4.726 0 7.027-.511 2.123-1.66 4.145-3.984 8.164l-26.17 45.783-.067.117c-2.305 3.992-3.473 6.015-5.092 7.541-1.762 1.669-3.882 2.882-6.206 3.565-2.12.581-4.496.581-9.246.581zm50.954 0h28.912c4.265 0 6.411 0 7.689-.833 1.379-.885 2.247-2.377 2.324-3.993.074-1.443-.951-3.193-2.958-6.621l-.209-.357-14.482-24.518-.165-.277c-2.035-3.405-3.062-5.125-4.382-5.79a5.13 5.13 0 0 0-4.622 0c-1.329.682-2.401 2.477-4.521 6.092l-14.431 24.519-.049.084c-2.113 3.609-3.168 5.412-3.092 6.892a5.11 5.11 0 0 0 2.324 3.994c1.251.808 3.397.808 7.662.808z" stroke-width="4"/><circle cx="253" cy="132" r="130.5" stroke-width="3"/></g></svg>