<svg xmlns="http://www.w3.org/2000/svg" width="41" height="26" fill="none"><path fill-rule="evenodd" d="M8.577 17.77h11.828c2.436 0 4.766-1.079 6.391-2.961a1.57 1.57 0 0 0-.116-2.164 1.44 1.44 0 0 0-2.088.12 5.54 5.54 0 0 1-4.187 1.939H8.577c-3.097 0-5.617-2.611-5.617-5.819s2.52-5.819 5.617-5.819h11.828c1.595 0 3.121.707 4.187 1.939.543.63 1.478.685 2.089.12a1.57 1.57 0 0 0 .116-2.164C25.171 1.079 22.841 0 20.405 0H8.577C3.848 0 0 3.986 0 8.885s3.848 8.885 8.577 8.885zm11.848 7.358H32.26h0c4.731 0 8.581-3.988 8.581-8.889S36.991 7.35 32.26 7.35H20.425c-2.436 0-4.767 1.079-6.394 2.961-.545.631-.494 1.6.115 2.165s1.546.51 2.09-.119c1.066-1.233 2.593-1.941 4.19-1.941H32.26c3.099 0 5.621 2.613 5.621 5.823s-2.522 5.823-5.621 5.823H20.425c-1.597 0-3.123-.708-4.189-1.941a1.44 1.44 0 0 0-2.09-.121c-.609.565-.661 1.534-.117 2.165 1.626 1.883 3.956 2.963 6.395 2.963z" fill="#549cff"/></svg>