<svg xmlns="http://www.w3.org/2000/svg" width="23" height="31" fill="none"><path fill-rule="evenodd" d="M19.488 8.299v2.538c1.961.338 3.464 2.095 3.464 4.221v11.605c0 2.366-1.859 4.291-4.143 4.291H4.143C1.859 30.954 0 29.03 0 26.663V15.058c0-2.126 1.504-3.883 3.464-4.221V8.299C3.464 3.723 7.058 0 11.476 0s8.012 3.723 8.012 8.299zm-2.165 0c0-3.339-2.623-6.056-5.847-6.056S5.63 4.96 5.63 8.299v2.467h11.693V8.299zm1.486 20.412c1.09 0 1.978-.919 1.978-2.048V15.058c0-1.13-.887-2.049-1.978-2.049H4.143c-1.09 0-1.978.919-1.978 2.049v11.605c0 1.13.887 2.048 1.978 2.048h14.666zm-8.416-9.645c0-.619.485-1.121 1.083-1.121s1.083.502 1.083 1.121v3.589c0 .619-.485 1.122-1.083 1.122s-1.083-.502-1.083-1.122v-3.589z" fill="#549cff"/></svg>