<svg xmlns="http://www.w3.org/2000/svg" width="24" height="24" fill="#6baaff"><path fill-rule="evenodd" d="M19.651 2.763a1.75 1.75 0 0 0-2.475 0l-6.414 6.414a1.75 1.75 0 0 0-.513 1.237V13a.75.75 0 0 0 .75.75h2.586a1.75 1.75 0 0 0 1.237-.513l6.414-6.414a1.75 1.75 0 0 0-.001-2.475l-1.585-1.585zm-1.413 1.06a.25.25 0 0 1 .353.001l1.587 1.587a.25.25 0 0 1-.001.353l-6.414 6.414a.25.25 0 0 1-.177.073H11.75v-1.836a.25.25 0 0 1 .073-.177l6.415-6.415z"/><path d="M3 12.25a.75.75 0 1 0 0 1.5h4a.75.75 0 1 0 0-1.5H3zM2.25 17a.75.75 0 0 1 .75-.75h18a.75.75 0 1 1 0 1.5H3a.75.75 0 0 1-.75-.75zM3 20.25a.75.75 0 1 0 0 1.5h18a.75.75 0 1 0 0-1.5H3z"/></svg>