<svg xmlns="http://www.w3.org/2000/svg" width="48" height="48" fill="none"><circle cx="24" cy="24" r="24" fill="#f5f5f6"/><g clip-path="url(#A)" stroke="#549cff" stroke-width="2"><g stroke-linecap="round" stroke-linejoin="round"><path d="M22 35.82c-3.615-.608-6.679-2.824-8.428-5.896m1.295-13.697C13.083 18.321 12 21.032 12 24c0 .74.077 1.461.205 2.165M26 35.82c3.615-.608 6.679-2.824 8.428-5.896M17.933 13.659C19.715 12.611 21.784 12 24 12s4.285.611 6.067 1.659m3.066 2.568C34.917 18.321 36 21.032 36 24c0 .74-.077 1.461-.205 2.165"/></g><path d="M24 20l4 4-4 4-4-4 4-4z" stroke-linejoin="round"/></g><defs><clipPath id="A"><path fill="#fff" transform="translate(8 8)" d="M0 0h32v32H0z"/></clipPath></defs></svg>