<svg xmlns="http://www.w3.org/2000/svg" xmlns:xlink="http://www.w3.org/1999/xlink" viewBox="0 0 505 493.5"><path d="M435.4 321.5H505v-3h-69.6v3zM313.1 444.4l123.3-123.3-2.1-2.1L311 442.3l2.1 2.1zm-150.4.4H312v-3H162.7v3zm-27-26.4l26 26 2.1-2.1-26-26-2.1 2.1zm-72.6 74.7l74.7-74.7-2.1-2.1L61 490.9l2.1 2.2zm-63.1.4h62.1v-3H0v3zM435.4 320v-1.5h-.6l-.4.4 1 1.1zM312.1 443.3v1.5h.6l.4-.4-1-1.1zm-149.4 0l-1.1 1.1.4.4h.6v-1.5zm-26-26l1.1-1.1-1.1-1.1-1.1 1.1 1.1 1.1zM62.1 492v1.5h.6l.4-.4-1-1.1z" fill="#6baaff"/><g fill="#fff"><path d="M262 175.4c-1.7 9.5-3.7 15.2-5.3 18.6-.8 1.7-1.5 2.8-2 3.4-.2.3-.4.6-.6.7-.1.1-.1.1-.1.2l.1.2.1.2.2-.2c.1-.2.3-.4.6-.7.5-.7 1.2-1.8 2-3.5 1.6-3.4 3.6-9.2 5.3-18.7l-.3-.2zm3.6-47.3c.3 11.2-.6 23-1.6 32-.5 4.5-1 8.3-1.4 11l-.5 3.1c-.1.4-.1.6-.1.8v.2.1h.2.2v-.1-.2c0-.2.1-.5.1-.8.1-.7.3-1.8.5-3.1.4-2.7.9-6.5 1.4-11.1 1-9.1 1.9-20.9 1.6-32.1l-.4.2zm-6.6-53c3.7 13.7 5.4 26.9 6.1 36.7.4 4.9.5 9 .6 11.8v3.3.9.2.1h.2.2v-.1-.2-.9-3.3c-.1-2.8-.2-6.9-.6-11.8-.8-9.8-2.4-23.1-6.1-36.8l-.4.1zm-5.4-10.8c.7.5 1.4 1.4 2.1 2.5.6 1.1 1.2 2.4 1.7 3.6s.9 2.4 1.2 3.2c.1.4.2.8.3 1 0 .1.1.2.1.3v.1l.2-.1.2-.1v-.1c0-.1 0-.2-.1-.3-.1-.2-.2-.6-.3-1-.3-.9-.7-2-1.2-3.3-.5-1.2-1.1-2.5-1.8-3.7-.7-1.1-1.4-2.1-2.2-2.7l-.2.6zm-.7-.2c.2 0 .5 0 .7.2l.2-.3a1.69 1.69 0 0 0-1-.3l.1.4zm-.7.3c.2-.2.4-.3.7-.3v-.4c-.3 0-.7.2-.9.4l.2.3zm-11.3 49.7c1.7-19.3 4-31.3 6.2-38.6 2.2-7.4 4.2-10.1 5.2-11.1l-.3-.3c-1.1 1-3.1 3.9-5.3 11.3s-4.5 19.4-6.2 38.7h.4zm5.3 71.3c-3.5-11.3-4.9-29.1-5.3-44.1-.2-7.5-.2-14.3-.2-19.2 0-2.5.1-4.4.1-5.8v-1.6-.4-.1h-.2-.2v.1.4 1.6c0 1.4-.1 3.4-.1 5.8l.2 19.2c.5 15 1.8 32.9 5.3 44.3l.4-.2zm6 13.3c-2-2.3-3.5-5.6-4.5-8.4-.5-1.4-.9-2.6-1.1-3.5-.1-.4-.2-.8-.3-1 0-.1-.1-.2-.1-.3v-.1h-.2-.2v.1c0 .1 0 .2.1.3.1.2.2.6.3 1.1.3.9.6 2.1 1.1 3.5 1 2.8 2.5 6.1 4.6 8.5l.3-.2zm1.7-.3c-.2.3-.5.5-.6.5-.2.1-.4.1-.5 0-.2 0-.3-.1-.4-.2l-.1-.1-.1.1-.2.3.1.1c.1.1.3.2.5.2s.5 0 .8-.1.6-.3.8-.7l-.3-.1zm15.1-66.8c0-19.6-1.8-37.3-4.6-50.2-1.4-6.4-3.1-11.6-5.1-15.2-1-1.8-2-3.2-3-4.2-1.1-1-2.2-1.5-3.3-1.5v.4c1 0 2.1.5 3.1 1.4s2 2.3 2.9 4.1c1.9 3.6 3.6 8.7 5 15.1 2.9 12.8 4.6 30.5 4.6 50.1h.4zm-16 71.1c1.2 0 2.3-.5 3.3-1.5 1.1-1 2.1-2.4 3-4.2 1.9-3.6 3.6-8.8 5.1-15.2 2.9-12.8 4.6-30.6 4.6-50.2h-.4c0 19.6-1.8 37.3-4.6 50.1-1.4 6.4-3.1 11.6-5 15.1-.9 1.8-1.9 3.2-2.9 4.1s-2 1.4-3.1 1.4v.4zm-16-71.1c0 19.6 1.8 37.3 4.6 50.2 1.4 6.4 3.1 11.6 5.1 15.2 1 1.8 2 3.2 3 4.2 1.1 1 2.2 1.5 3.3 1.5v-.4c-1 0-2.1-.5-3.1-1.4s-2-2.3-2.9-4.1c-1.9-3.6-3.6-8.7-5-15.1-2.9-12.8-4.6-30.5-4.6-50.1h-.4zm16-71.1c-1.2 0-2.3.5-3.3 1.5-1.1 1-2.1 2.4-3 4.2-1.9 3.6-3.6 8.8-5.1 15.2-2.9 12.8-4.6 30.6-4.6 50.2h.4c0-19.6 1.8-37.3 4.6-50.1 1.4-6.4 3.1-11.6 5-15.1.9-1.8 1.9-3.2 2.9-4.1s2-1.4 3.1-1.4v-.4zm9.2 115h.2 0-.2zm3.6-47.4h-.2 0 .2zm-6.7-53l.2-.1h0l-.2.1zm-5.4-11l-.1.2h0l.1-.2zm-1.6.2l-.1-.1h0l.1.1zm-11.4 49.8h-.2 0 .2zm5.3 71.4h.2 0 0-.2zm6.1 13.3l-.2.1h0 0l.2-.1zm2-.3l-.1-.2h0 0l.1.2z"/><path d="M254.1 198.5c-1 1.3-2 .3-2 .3-4-4.7-6-13.3-6-13.3-7-22.7-5.4-71.4-5.4-71.4 3.3-38.7 9.3-47.8 11.4-49.8.2-.2.5-.3.8-.4.3 0 .6.1.8.2 3 2.1 5.5 10.9 5.5 10.9 7.4 27.4 6.7 53 6.7 53 .7 22.4-3.7 47.4-3.7 47.4-3.4 19.1-8.1 23.1-8.1 23.1zM253 60.7c-8.8 0-15.8 31.7-15.8 70.9s7.1 70.9 15.8 70.9 15.8-31.7 15.8-70.9-7-70.9-15.8-70.9z"/><path d="M195.5 165.6h0v.4h0v-.4zm23.9-4.4c-9.1 3.3-15 4.4-18.7 4.7-1.9.1-3.1.1-3.9 0-.4 0-.7-.1-.9-.1-.1 0-.2 0-.2-.1l-.1.2-.1.2h.1c.1 0 .1 0 .2.1.2 0 .5.1.9.2.8.1 2.1.2 4 0 3.7-.3 9.8-1.4 18.9-4.7l-.2-.5zm42.9-20.4c-9.5 5.8-20.2 10.9-28.6 14.6l-10.3 4.3c-1.3.5-2.3.9-3 1.1-.3.1-.6.2-.8.3-.1 0-.2.1-.2.1h-.1l.1.2.1.2h.1s.1 0 .2-.1c.2-.1.4-.2.8-.3.7-.3 1.7-.6 3-1.1 2.5-1 6.1-2.4 10.3-4.3 8.4-3.6 19.1-8.7 28.6-14.6l-.2-.4zm42.7-32.2c-10 10-20.7 18-28.8 23.6-4.1 2.8-7.5 4.9-10 6.4-1.2.7-2.2 1.3-2.8 1.7-.3.2-.6.3-.8.4-.1 0-.1.1-.2.1l.1.2.1.2s.1-.1.2-.1l.8-.4c.7-.4 1.6-.9 2.8-1.7 2.4-1.5 5.9-3.6 10-6.4 8.2-5.6 18.8-13.6 28.9-23.6l-.3-.4zm6.6-10c-.1.9-.5 1.9-1.2 3-.6 1.1-1.5 2.3-2.3 3.3s-1.6 2-2.2 2.6c-.3.3-.6.6-.7.8l-.2.2-.1.1.1.1.1.1.1-.1.2-.2c.2-.2.4-.5.7-.8l2.3-2.7c.8-1 1.7-2.2 2.3-3.4.7-1.1 1.1-2.3 1.2-3.2l-.3.2zm-.1-.7c.1.2.2.5.2.7h.4c0-.3-.1-.7-.2-1l-.4.3zm-.6-.4c.2.1.4.2.6.4l.3-.2c-.2-.3-.5-.5-.8-.6l-.1.4zm-48.8 14.9c17.6-8.2 29.1-12.1 36.6-13.9s10.8-1.4 12.2-1l.1-.4c-1.4-.4-4.9-.8-12.4 1s-19 5.7-36.6 13.9l.1.4zm-59.2 40.1c8.1-8.7 22.9-18.7 35.7-26.6 6.4-3.9 12.3-7.3 16.6-9.7 2.1-1.2 3.9-2.2 5.1-2.8.6-.3 1.1-.6 1.4-.8.2-.1.3-.2.4-.2h.1l-.1-.2-.1-.2h-.1c-.1 0-.2.1-.4.2-.3.2-.8.4-1.4.8-1.2.7-3 1.6-5.1 2.8-4.3 2.4-10.2 5.8-16.6 9.7-12.8 7.9-27.6 17.9-35.7 26.7l.2.3zm-8.5 11.8c1-2.9 3.1-5.8 5-8.1.9-1.1 1.8-2.1 2.5-2.7l.8-.8.2-.2.1-.1-.1-.1-.1-.1-.1.1-.2.2-.8.8c-.6.7-1.5 1.6-2.5 2.7-1.9 2.2-4 5.2-5.1 8.2l.3.1zm1.2 1.3c-.4 0-.6-.2-.8-.3s-.3-.3-.3-.4c0-.2-.1-.3 0-.4v-.1l-.2-.1-.2-.1v.1.2c0 .1 0 .4.1.6s.2.4.4.6.6.3 1 .4v-.5zm65.4-20.1c17-9.7 31.5-20.1 41.2-29 4.9-4.4 8.5-8.5 10.7-12 1.1-1.7 1.8-3.3 2.1-4.7s.2-2.6-.4-3.6l-.3.2c.5.9.6 2 .3 3.3s-1 2.9-2.1 4.6c-2.2 3.4-5.8 7.5-10.6 11.9-9.7 8.9-24.2 19.2-41.1 28.9l.2.4zM191.3 167c.6 1 1.6 1.7 3 2.1s3.1.6 5.1.5c4.1-.1 9.5-1.2 15.7-3.2 12.6-3.9 28.8-11.2 45.8-20.9l-.2-.3c-17 9.7-33.2 17-45.8 20.9-6.3 1.9-11.6 3-15.6 3.2-2 .1-3.7-.1-5-.5s-2.2-1.1-2.7-2l-.3.2zm53.7-49.3c-17 9.7-31.5 20.1-41.2 29-4.9 4.4-8.5 8.5-10.7 12-1.1 1.7-1.8 3.3-2.1 4.7s-.2 2.6.4 3.6l.3-.2c-.5-.9-.6-2-.3-3.3s1-2.9 2.1-4.6c2.2-3.4 5.8-7.5 10.6-11.9 9.7-8.9 24.2-19.2 41.1-28.9l-.2-.4zm69.7-21.5c-.6-1-1.6-1.7-3-2.1s-3.1-.6-5.1-.5c-4.1.1-9.5 1.2-15.7 3.2-12.6 3.9-28.8 11.2-45.8 20.9l.2.3c17-9.7 33.2-17 45.8-20.9 6.3-1.9 11.6-3 15.6-3.2 2-.1 3.7.1 5 .5s2.2 1.1 2.7 2l.3-.2zm-119.2 69.6l.1-.2h0 0v.2zm24-4.4l.1.2h0l-.1-.2zm42.9-20.4l-.1-.2h0l.1.2zm42.7-32.2l.1.1h0l-.1-.1zm6.7-10.2h-.2 0 .2zm-.9-1.3l.1-.2h0l-.1.2zm-48.8 14.9l-.1-.2h0l.1.2zm-59.3 40.2l.1.1h0 0l-.1-.1zm-8.6 11.9l-.2-.1h0l.2.1zm1.3 1.5v.2h0 0v-.2zm119-69.5l.2-.1h0l-.2.1z"/><path d="M195.5 165.8c-1.7-.2-1.3-1.6-1.3-1.6 2-5.8 8.6-11.9 8.6-11.9 16.2-17.4 59.3-40.2 59.3-40.2 35.2-16.4 46.1-15.7 48.9-14.9.3.1.5.3.7.5s.2.5.2.8c-.3 3.6-6.8 10.2-6.8 10.2-20 20-42.7 32.2-42.7 32.2-19.1 11.7-42.9 20.4-42.9 20.4-18.2 6.6-24 4.5-24 4.5h0zm119-69.5c-4.4-7.6-35.4 2-69.4 21.5s-57.9 41.4-53.6 49c4.4 7.6 35.4-2 69.4-21.5s57.9-41.4 53.6-49z"/><path d="M194.8 99h0l-.4.1h0l.4-.1zm15.8 18.4c-7.4-6.2-11.3-10.8-13.5-13.9-1.1-1.5-1.7-2.7-2-3.4-.2-.4-.3-.7-.3-.8s0-.2-.1-.2h-.2-.2v.1c0 .1 0 .1.1.2.1.2.2.5.3.9.3.8.9 1.9 2 3.5 2.1 3.1 6.1 7.7 13.5 14l.4-.4zm39.1 26.9c-9.8-5.3-19.6-12-26.9-17.4-3.7-2.7-6.7-5.1-8.8-6.8-1.1-.8-1.9-1.5-2.5-2-.3-.2-.5-.4-.6-.5s-.1-.1-.2-.1l-.1.2-.1.2s.1.1.2.1c.1.1.4.3.7.5.6.5 1.4 1.1 2.5 2 2.1 1.7 5.2 4.1 8.8 6.8 7.3 5.4 17.1 12.1 27 17.5v-.5zm49.2 20.8c-13.7-3.7-26-8.9-34.9-13.1-4.4-2.1-8-4-10.5-5.4-1.2-.7-2.2-1.2-2.8-1.6-.3-.2-.6-.3-.7-.4-.1 0-.1-.1-.2-.1l-.1.2-.1.2s.1.1.2.1c.2.1.4.2.7.4.7.4 1.6.9 2.9 1.6 2.5 1.4 6.1 3.3 10.5 5.4 8.9 4.3 21.2 9.5 34.9 13.2l.1-.5zm12.1.7c-.8.4-1.9.5-3.2.5a26.93 26.93 0 0 1-4-.3c-1.3-.2-2.5-.4-3.4-.6-.4-.1-.8-.2-1-.2-.1 0-.2-.1-.3-.1h-.1v.2.2h.1c.1 0 .2 0 .3.1.3.1.6.1 1.1.2.9.2 2.1.4 3.4.6a28.28 28.28 0 0 0 4.1.3c1.3 0 2.5-.1 3.4-.5l-.4-.4zm.5-.5c-.1.2-.3.4-.5.5l.2.4a1.21 1.21 0 0 0 .7-.7l-.4-.2zm0-.7c.1.2 0 .5-.1.7l.4.2c.1-.3.2-.7.1-1l-.4.1zm-37.3-34.7c15.9 11.1 25 19.1 30.3 24.7s6.7 8.7 7 10l.4-.1c-.4-1.4-1.8-4.6-7.1-10.2s-14.5-13.6-30.4-24.7l-.2.3zm-64.4-31.1c11.6 2.6 27.6 10.4 40.9 17.5 6.6 3.6 12.5 7 16.7 9.5l5 3c.6.4 1 .6 1.3.8.2.1.3.2.3.2s.1 0 .1.1l.1-.2.1-.2-.1-.1c-.1 0-.2-.1-.4-.2-.3-.2-.8-.5-1.4-.8l-5-3c-4.2-2.5-10.1-5.9-16.7-9.5-13.2-7.1-29.4-14.9-41-17.6l.1.5zm-14.5-1.5c3-.6 6.6-.2 9.5.3 1.4.3 2.7.5 3.6.8.4.1.8.2 1 .3.1 0 .2.1.3.1h.1l.1-.2.1-.2h-.1c-.1 0-.2 0-.3-.1-.2-.1-.6-.2-1.1-.3l-3.6-.8c-2.9-.5-6.6-.9-9.6-.3v.4zm-.5 1.6c-.2-.4-.2-.6-.1-.8 0-.2.1-.4.2-.5l.3-.3c.1 0 .1 0 .1-.1l-.1-.2-.1-.2h-.1s-.1 0-.2.1-.3.2-.5.3c-.2.2-.3.4-.3.7s0 .6.2 1.1l.6-.1zm50.2 46.6c16.9 9.8 33.2 17.2 45.7 21.1 6.3 2 11.6 3.1 15.7 3.3 2 .1 3.8-.1 5.1-.5 1.4-.4 2.4-1.1 3-2.1l-.3-.2c-.5.9-1.4 1.5-2.7 2-1.3.4-3 .6-5 .5-4-.2-9.4-1.3-15.6-3.2-12.5-3.9-28.7-11.3-45.7-21.1l-.2.2zM191.5 96c-.6 1-.7 2.2-.4 3.6s1 3 2.1 4.7c2.2 3.5 5.8 7.6 10.7 12 9.7 8.9 24.1 19.3 41.1 29.2l.2-.3c-16.9-9.8-31.4-20.2-41-29.1-4.8-4.5-8.4-8.5-10.6-11.9-1.1-1.7-1.8-3.2-2.1-4.6-.3-1.3-.2-2.5.3-3.3l-.3-.3zm69.6 21.7c-16.9-9.8-33.2-17.2-45.7-21.1-6.3-2-11.6-3.1-15.7-3.3-2-.1-3.8.1-5.1.5-1.4.4-2.4 1.1-3 2.1l.3.2c.5-.9 1.4-1.5 2.7-2 1.3-.4 3-.6 5-.5 4 .2 9.4 1.3 15.6 3.2 12.5 3.9 28.7 11.3 45.7 21.1l.2-.2zm53.4 49.5c.6-1 .7-2.2.4-3.6s-1-3-2.1-4.7c-2.2-3.5-5.8-7.6-10.7-12-9.7-8.9-24.1-19.4-41.1-29.2l-.2.3c16.9 9.8 31.3 20.2 41 29.1 4.8 4.5 8.4 8.5 10.6 11.9 1.1 1.7 1.8 3.2 2.1 4.6.3 1.3.2 2.5-.3 3.3l.3.3zM194.6 99h.2 0 0-.2zm15.9 18.5l-.1.2h0l.1-.2zm39.1 27l.1-.2h0l-.1.2zm49.2 20.7l-.1.2h0l.1-.2zm12.2.8l-.1-.2h0l.1.2zm.7-1.5l.2-.1h0l-.2.1zm-37.4-34.8l.1-.2h0l-.1.2zm-64.4-31.1l-.1.2h0 0l.1-.2zm-14.6-1.5v-.2h0 0v.2zm-.7 1.9l.2-.1h0 0l-.2.1zm119.7 68.1l-.2-.1h0l.2.1z"/><path d="M194.6 99c-.6-1.5.7-1.9.7-1.9 6.1-1.1 14.6 1.5 14.6 1.5 23.2 5.3 64.5 31.1 64.5 31.1 31.8 22.3 36.7 32.1 37.4 34.8.1.3 0 .6-.1.9a.9.9 0 0 1-.6.6c-3.3 1.5-12.2-.7-12.2-.7-27.4-7.3-49.3-20.8-49.3-20.8-19.7-10.6-39.1-26.9-39.1-26.9-14.8-12.5-15.9-18.6-15.9-18.6h0zm119.7 68.1c4.4-7.6-19.5-29.6-53.4-49.3C227 98.2 196 88.4 191.6 96s19.5 29.6 53.4 49.3 64.9 29.4 69.3 21.8zm-61.5-43.8c4.5 0 8.1 3.6 8.1 8.1h.4c0-4.7-3.8-8.5-8.5-8.5v.4zm-8.1 8.1c0-4.5 3.6-8.1 8.1-8.1v-.4c-4.7 0-8.5 3.8-8.5 8.5h.4zm8.1 8.2c-4.5 0-8.1-3.6-8.1-8.1h-.4c0 4.7 3.8 8.5 8.5 8.5v-.4zm8.2-8.2c0 4.5-3.6 8.1-8.1 8.1v.4c4.7 0 8.5-3.8 8.5-8.5h-.4z"/><circle cx="252.8" cy="131.4" r="8.3"/><use xlink:href="#B"/><ellipse cx="287" cy="99.4" rx="4.8" ry="5"/><use xlink:href="#B" x="-79.4" y="17"/><ellipse cx="207.6" cy="116.4" rx="4.8" ry="5"/><path d="M243 173c2.6 0 4.6 2.1 4.6 4.8h.4c0-2.9-2.2-5.2-5-5.2v.4zm-4.6 4.8c0-2.7 2.1-4.8 4.6-4.8v-.4c-2.8 0-5 2.3-5 5.2h.4zm4.6 4.8c-2.6 0-4.6-2.1-4.6-4.8h-.4c0 2.9 2.2 5.2 5 5.2v-.4zm4.6-4.8c0 2.7-2.1 4.8-4.6 4.8v.4c2.8 0 5-2.3 5-5.2h-.4z"/><ellipse cx="243" cy="177.8" rx="4.8" ry="5"/></g><defs><circle id="A" cx="253" cy="132" r="132"/><path id="B" d="M287 94.6c2.6 0 4.6 2.1 4.6 4.8h.4c0-2.9-2.2-5.2-5-5.2v.4zm-4.6 4.8c0-2.7 2.1-4.8 4.6-4.8v-.4c-2.8 0-5 2.3-5 5.2h.4zm4.6 4.8c-2.6 0-4.6-2.1-4.6-4.8h-.4c0 2.9 2.2 5.2 5 5.2v-.4zm4.7-4.8c0 2.7-2.1 4.8-4.6 4.8v.4c2.8 0 5-2.3 5-5.2h-.4z"/></defs><clipPath id="C"><use xlink:href="#A"/></clipPath><path d="M253 3c71.2 0 129 57.8 129 129h6C388 57.4 327.6-3 253-3v6zM124 132C124 60.8 181.8 3 253 3v-6c-74.6 0-135 60.4-135 135h6zm129 129c-71.2 0-129-57.8-129-129h-6c0 74.6 60.4 135 135 135v-6zm129-129c0 71.2-57.8 129-129 129v6c74.6 0 135-60.4 135-135h-6z" clip-path="url(#C)" fill="#fff"/></svg>