<svg xmlns="http://www.w3.org/2000/svg" xmlns:xlink="http://www.w3.org/1999/xlink" width="127" height="41" fill="none"><path d="M122.506.377H4.494C2.012.377 0 2.513 0 5.149v30.456c0 2.636 2.012 4.772 4.494 4.772h118.012c2.482 0 4.494-2.137 4.494-4.772V5.149c0-2.636-2.012-4.772-4.494-4.772z" fill="#fff"/><path d="M64.1 22.129c-2.209.009-3.993 1.918-3.986 4.266s1.801 4.246 4.01 4.241 3.996-1.911 3.993-4.259c.014-1.135-.405-2.228-1.162-3.028s-1.787-1.241-2.855-1.219zm0 6.83c-.996.076-1.935-.504-2.366-1.461a2.71 2.71 0 0 1 .412-2.876c.68-.778 1.738-1.034 2.668-.647s1.542 1.34 1.544 2.402c.031.663-.191 1.311-.616 1.797s-1.017.769-1.641.785zm-8.762-6.83c-2.209.009-3.993 1.918-3.986 4.266s1.801 4.246 4.01 4.241 3.996-1.911 3.993-4.259c.014-1.135-.405-2.228-1.162-3.028s-1.787-1.241-2.855-1.219zm0 6.83c-.996.075-1.934-.504-2.366-1.462s-.268-2.098.413-2.876 1.738-1.034 2.668-.646 1.542 1.34 1.544 2.402c.031.663-.191 1.311-.617 1.798s-1.017.769-1.642.784zm-10.422-5.526v1.803h4.061a3.88 3.88 0 0 1-.925 2.272c-.823.892-1.962 1.372-3.137 1.321-2.467-.04-4.447-2.178-4.447-4.801s1.98-4.761 4.447-4.801c1.14-.015 2.24.448 3.061 1.289l1.198-1.273c-1.131-1.192-2.666-1.849-4.259-1.824-2.24-.031-4.322 1.221-5.45 3.278a6.97 6.97 0 0 0 0 6.656c1.128 2.057 3.211 3.309 5.45 3.278 1.628.071 3.206-.603 4.334-1.853.989-1.148 1.517-2.662 1.47-4.218.004-.378-.026-.756-.091-1.127h-5.713zm42.623 1.401c-.493-1.578-1.862-2.66-3.425-2.706a3.7 3.7 0 0 0-2.741 1.267c-.713.802-1.085 1.88-1.032 2.982-.023 1.129.386 2.22 1.134 3.022a3.8 3.8 0 0 0 2.834 1.231c1.339.008 2.593-.701 3.335-1.886l-1.364-.966c-.416.734-1.165 1.18-1.971 1.175-.834.033-1.603-.477-1.94-1.288l5.35-2.352-.18-.48zm-5.457 1.418c-.038-.625.163-1.24.556-1.707s.947-.745 1.535-.774c.62-.043 1.205.312 1.485.902l-3.577 1.579zm-4.35 4.125h1.758V17.875h-1.758v12.501zm-2.88-7.296h-.06c-.541-.624-1.308-.97-2.106-.95-2.142.099-3.831 1.973-3.831 4.253s1.689 4.154 3.831 4.253c.802.023 1.572-.331 2.106-.967h.06v.613c0 1.627-.818 2.497-2.136 2.497-.899-.023-1.696-.622-2.016-1.515l-1.53.677c.592 1.525 1.994 2.517 3.547 2.508 2.061 0 3.804-1.289 3.804-4.43v-7.633h-1.668v.694zm-2.015 5.88c-1.26-.113-2.229-1.233-2.229-2.578s.969-2.465 2.229-2.578c.611.031 1.184.325 1.587.814s.601 1.131.55 1.779c.047.643-.154 1.279-.557 1.762s-.973.77-1.58.797v.002zm22.936-11.083h-4.206v12.499h1.755v-4.736h2.452c1.354.082 2.64-.64 3.34-1.875a4.1 4.1 0 0 0 0-4.015c-.7-1.235-1.986-1.957-3.34-1.875v.001zm.045 6.025h-2.497v-4.286h2.497c.731-.018 1.414.387 1.785 1.057a2.26 2.26 0 0 1 0 2.172c-.371.67-1.054 1.075-1.785 1.057v.001zm10.847-1.797c-1.31-.081-2.54.67-3.133 1.914l1.559.691c.318-.617.95-.975 1.609-.912.927-.096 1.753.623 1.846 1.609v.128a3.71 3.71 0 0 0-1.831-.482c-1.679 0-3.39.982-3.39 2.814.033.781.362 1.514.913 2.032s1.274.777 2.007.718c.901.056 1.759-.412 2.241-1.223h.06v.964h1.694V25.57c-.003-2.226-1.561-3.464-3.575-3.464zm-.215 6.851c-.575 0-1.376-.306-1.376-1.061 0-.965.999-1.335 1.861-1.335.562-.017 1.117.128 1.609.418-.134 1.123-1.029 1.969-2.094 1.978zm9.956-6.578l-2.012 5.419h-.06l-2.088-5.419h-1.891l3.132 7.575-1.786 4.218h1.831l4.826-11.789-1.952-.005zM100.6 30.376h1.756V17.875H100.6v12.501z" fill="#000"/><path d="M9.81 7.918c-.308.392-.464.894-.435 1.404v22.116c-.029.51.127 1.013.435 1.405l.07.072 11.655-12.387v-.292L9.88 7.847l-.07.072z" fill="url(#A)"/><path d="M25.421 24.659l-3.883-4.137v-.292l3.886-4.13.088.052 4.605 2.785c.587.204.984.787.984 1.443s-.397 1.239-.984 1.443l-4.611 2.78-.085.055z" fill="url(#B)"/><path d="M25.511 24.603l-3.973-4.225L9.813 32.843a1.46 1.46 0 0 0 1.955.062l13.743-8.3" fill="url(#C)"/><path d="M25.511 16.156L11.768 7.857a1.46 1.46 0 0 0-1.955.062l11.725 12.462 3.973-4.225z" fill="url(#D)"/><g fill="#000"><path opacity=".2" d="M25.423 24.51l-13.655 8.247a1.49 1.49 0 0 1-1.884.011l-.071.075.07.072a1.49 1.49 0 0 0 1.884-.011l13.743-8.3-.087-.093z"/><path opacity=".12" d="M9.81 32.697a2.08 2.08 0 0 1-.435-1.405v.146c-.029.51.127 1.012.435 1.404l.071-.075-.071-.071zm20.299-11.019l-4.691 2.833.088.093 4.603-2.78c.553-.254.932-.808.989-1.445-.118.575-.485 1.057-.989 1.3z"/></g><path opacity=".25" d="M11.766 8.004l18.346 11.08c.503.244.868.725.985 1.298-.056-.636-.434-1.19-.985-1.444L11.766 7.858c-1.314-.798-2.39-.135-2.39 1.467v.146c.001-1.602 1.078-2.262 2.39-1.467z" fill="#fff"/><g fill="#000"><path d="M38.885 13.38v-6h1.727c.772-.038 1.526.263 2.082.834.528.578.81 1.361.78 2.166.03.805-.252 1.588-.78 2.166-.556.571-1.309.873-2.082.834l-1.727-.001zm.724-.736h1.002c.57.032 1.129-.183 1.548-.595.4-.448.607-1.052.572-1.668a2.17 2.17 0 0 0-.565-1.655 1.9 1.9 0 0 0-1.555-.607h-1.002v4.526zm4.884.735v-6h.724v6h-.724zm3.605.133a2.02 2.02 0 0 1-1.202-.428 1.98 1.98 0 0 1-.769-1.199l.663-.284c.076.325.245.616.485.833.225.219.519.341.824.342.29.009.574-.084.809-.264.218-.164.343-.433.335-.717a.94.94 0 0 0-.335-.775 3.37 3.37 0 0 0-1.061-.507 2.8 2.8 0 0 1-1.136-.649c-.258-.267-.399-.637-.387-1.019 0-.431.175-.84.482-1.122a1.7 1.7 0 0 1 1.253-.478 1.74 1.74 0 0 1 1.167.381c.269.21.472.501.583.834l-.662.293a1.05 1.05 0 0 0-.351-.528c-.43-.326-1.007-.326-1.436 0a.77.77 0 0 0-.295.614c-.001.226.101.438.272.57.242.186.513.326.8.415a6.33 6.33 0 0 1 .698.277c.2.097.39.217.566.356a1.4 1.4 0 0 1 .429.553 1.88 1.88 0 0 1 .147.767 1.74 1.74 0 0 1-.169.779 1.45 1.45 0 0 1-.45.545c-.185.134-.388.237-.602.305a2.14 2.14 0 0 1-.657.105zm3.651-.133h-.725v-6h1.924c.46-.007.904.174 1.241.507a1.79 1.79 0 0 1 .525 1.278c0 .485-.19.948-.525 1.278a1.73 1.73 0 0 1-1.241.507h-1.199v2.429zm0-3.168h1.214a.91.91 0 0 0 .732-.326 1.08 1.08 0 0 0 0-1.441c-.186-.22-.454-.34-.732-.328h-1.214v2.095zm8.497 2.391a2.81 2.81 0 0 1-4.139 0c-.549-.591-.849-1.394-.831-2.225a3.17 3.17 0 0 1 .831-2.224c.548-.584 1.292-.912 2.067-.912s1.519.328 2.067.912a3.17 3.17 0 0 1 .835 2.221c.018.832-.282 1.636-.831 2.229zm-3.603-.503c.407.432.958.675 1.534.675s1.127-.243 1.534-.675a2.43 2.43 0 0 0 .627-1.723c.022-.643-.205-1.267-.627-1.727a2.08 2.08 0 0 0-3.067 0c-.421.459-.647 1.082-.626 1.723a2.43 2.43 0 0 0 .627 1.727h-.001z"/><use xlink:href="#E"/><path d="M67.739 13.378v-6h.724v6h-.724zm.677-6.468h-.63l.41-1.073h.788l-.567 1.073zm2.732 6.469l-1.987-6h.804l1.544 4.869h.032l1.609-4.869h.803l-2.049 6h-.756zm6.925-5.264h-2.574v1.904h2.317v.72h-2.314v1.903h2.574v.736h-3.299v-6h3.296v.736zm1.132 5.264v-6h.725v5.263h2.443v.736h-3.168z"/><use xlink:href="#E" x="23.092"/><path d="M95.443 12.602a2.81 2.81 0 0 1-4.14 0c-.549-.592-.849-1.394-.831-2.225-.018-.83.282-1.633.831-2.224.548-.584 1.292-.912 2.068-.912s1.52.328 2.068.912c.55.59.851 1.391.836 2.221.018.832-.282 1.636-.831 2.229zM91.84 12.1c.407.432.958.675 1.534.675s1.127-.243 1.534-.675c.422-.459.648-1.081.627-1.723.022-.643-.205-1.267-.627-1.727a2.08 2.08 0 0 0-3.067 0c-.421.459-.648 1.082-.626 1.723a2.43 2.43 0 0 0 .627 1.727h-.001z"/></g><defs><linearGradient id="A" x1="20.492" y1="31.662" x2="1.711" y2="26.956" gradientUnits="userSpaceOnUse"><stop stop-color="#00a0ff"/><stop offset=".007" stop-color="#00a1ff"/><stop offset=".26" stop-color="#00beff"/><stop offset=".512" stop-color="#00d2ff"/><stop offset=".76" stop-color="#00dfff"/><stop offset="1" stop-color="#00e3ff"/></linearGradient><linearGradient id="B" x1="31.828" y1="20.379" x2="9.057" y2="20.379" gradientUnits="userSpaceOnUse"><stop stop-color="#ffe000"/><stop offset=".409" stop-color="#ffbd00"/><stop offset=".775" stop-color="orange"/><stop offset="1" stop-color="#ff9c00"/></linearGradient><linearGradient id="C" x1="23.345" y1="18.057" x2="6.965" y2="-7.921" gradientUnits="userSpaceOnUse"><stop stop-color="#ff3a44"/><stop offset="1" stop-color="#c31162"/></linearGradient><linearGradient id="D" x1="6.862" y1="40.264" x2="14.179" y2="28.663" gradientUnits="userSpaceOnUse"><stop stop-color="#32a071"/><stop offset=".068" stop-color="#2da771"/><stop offset=".476" stop-color="#15cf74"/><stop offset=".801" stop-color="#06e775"/><stop offset="1" stop-color="#00f076"/></linearGradient><path id="E" d="M62.092 13.379v-6h.883l2.743 4.668h.031l-.031-1.157V7.379h.726v6h-.757l-2.871-4.894h-.031l.031 1.157v3.737h-.724z"/></defs></svg>