<svg xmlns="http://www.w3.org/2000/svg" width="48" height="48" fill="none"><style><![CDATA[.B{stroke-linejoin:round}.C{stroke-linecap:round}]]></style><circle cx="24" cy="24" r="24" fill="#f5f5f6"/><g clip-path="url(#A)" stroke="#549cff" stroke-width="2" class="B"><g class="C"><path d="M22.667 32h4m-10.042 1.164c-.037 0-.067.029-.067.067s.029.067.067.067M33.333 24v-9.333A2.67 2.67 0 0 0 30.667 12H16a2.67 2.67 0 0 0-2.667 2.667v6.667"/></g><path d="M35.333 34.667h-2.788a2 2 0 0 1-2-2V26a2 2 0 0 1 2-2h2.788a2 2 0 0 1 2 2v6.667a2 2 0 0 1-2 2z"/><path d="M30.547 28h-7.88" class="C"/><path d="M20 36h-6.667c-1.473 0-2.667-1.193-2.667-2.667V24c0-1.473 1.193-2.667 2.667-2.667H20c1.473 0 2.667 1.193 2.667 2.667v9.333C22.667 34.807 21.473 36 20 36z"/></g><defs><clipPath id="A"><path fill="#fff" transform="translate(8 8)" d="M0 0h32v32H0z"/></clipPath></defs></svg>