<svg xmlns="http://www.w3.org/2000/svg" xmlns:xlink="http://www.w3.org/1999/xlink" viewBox="0 0 505 493.5"><style><![CDATA[.C{fill:#fff}]]></style><path d="M435.4 321.5H505v-3h-69.6v3zM313.1 444.4l123.3-123.3-2.1-2.1L311 442.3l2.1 2.1zm-150.4.4H312v-3H162.7v3zm-27-26.4l26 26 2.1-2.1-26-26-2.1 2.1zm-72.6 74.7l74.7-74.7-2.1-2.1L61 490.9l2.1 2.2zm-63.1.4h62.1v-3H0v3zM435.4 320v-1.5h-.6l-.4.4 1 1.1zM312.1 443.3v1.5h.6l.4-.4-1-1.1zm-149.4 0l-1.1 1.1.4.4h.6v-1.5zm-26-26l1.1-1.1-1.1-1.1-1.1 1.1 1.1 1.1zM62.1 492v1.5h.6l.4-.4-1-1.1z" fill="#6baaff"/><defs><path id="A" d="M317.4 104.1c-.4 2.3-.8 3.3-1.4 4.5-.6 1.4-1.2 2.9-1.8 6l-.5 3v.1c-.2 1.3-.3 2.2-.8 3.6-.4 1.3-1.1 3.3-2.8 5.5-1.4 1.8-3.6 4.8-6.7 5.2-.3 0-.8 0-1.1-.1-8.7-4.4-16.1-7.7-18.6-8.4-3-.9-2.6-7.4-2.3-13.1.2-2.6.3-5 .2-7.1-.4-7.3-1.7-15.2-8-19-3.7-2.3-8.7-3-13.3-3 .9-.4 1.8-1 2.9-1.6 2.8-1.6 6.1-3.5 9.6-3.9 1.1-.1 2.2-.2 3.3-.4 6.8-.8 12.7-1.5 18.9.7 2.9 1 8.6 4.1 10 7.2 1.1 2.1 2.9 3.7 6.3 7l3.9 3.4c1.3 1 1.5 1.3 1.9 2 1.3 2.5.9 5 .3 8.4z"/></defs><clipPath id="B"><use xlink:href="#A"/></clipPath><g class="C"><path d="M315 97c.8 1.5.6 3.1 0 6.7l4.9.8c.6-3.3 1.2-6.6-.4-9.8L315 97zm-1.2-1.1l.9.8c.1.1.1.1.3.4l4.3-2.5c-.2-.4-.5-.8-.9-1.3s-.9-.9-1.6-1.4l-3 4zm-4-3.6l2.4 2.1 1.6 1.4L317 92l-1.6-1.4-2.3-2-3.3 3.7zm-6.9-7.7c1.3 2.5 3.5 4.5 6.8 7.7l3.4-3.6c-3.6-3.4-5-4.7-5.8-6.3l-4.4 2.2zm-8.7-6c1.2.4 3.2 1.4 5 2.5 1.9 1.3 3.2 2.5 3.6 3.4l4.5-2.2c-1.1-2.2-3.4-4-5.4-5.4-2.1-1.4-4.4-2.5-6.1-3.1l-1.6 4.8zm-17.8-.5c6.9-.8 12.2-1.4 17.8.6l1.6-4.7c-6.8-2.4-13.3-1.6-20-.8l.6 4.9zm-3.3.4c1.1-.1 2.3-.2 3.5-.4l-.9-4.9c-1 .2-1.9.3-3 .4l.4 4.9zm-8.5 3.6c2.9-1.7 5.8-3.3 8.6-3.6l-.6-5c-4.1.5-7.9 2.8-10.5 4.3l2.5 4.3zm-3.1 1.7c.6-.3 1.1-.6 1.6-.8.5-.3.9-.6 1.4-.8l-2.4-4.4c-.6.3-1.1.6-1.6.9s-.8.5-1.1.6l2.1 4.5zm13.6-1.5c-4.3-2.6-9.8-3.3-14.6-3.3v5c4.5 0 8.8.7 12 2.6l2.6-4.3zm9.2 21c-.2-3.7-.6-7.8-1.9-11.5s-3.5-7.2-7.3-9.5l-2.6 4.3c2.5 1.5 4.1 3.9 5.1 6.9s1.4 6.5 1.6 10.1l5.1-.3zm-.2 7.4c.2-2.6.3-5.2.2-7.4l-5 .2c.1 1.9 0 4.3-.2 6.8l5 .4zm.5 10.6c.2.1.1.2-.1-.3s-.4-1.2-.5-2.3c-.2-2.2-.1-5.1.1-8l-5-.3c-.1 2.8-.3 6.1-.1 8.7.1 1.3.4 2.7.9 3.9.6 1.2 1.5 2.5 3.2 3l1.5-4.7zm19 8.5c-4.4-2.2-8.4-4.2-11.7-5.6-3.2-1.4-5.9-2.5-7.4-2.9l-1.3 4.8c1.1.3 3.4 1.2 6.6 2.7 3.2 1.4 7.2 3.3 11.5 5.5l2.3-4.5zm-.1-.2h-.2-.2-.1.1l-1.6 4.7c.5.2.9.2 1.2.2h.7v-4.9zm4.8-4.2c-.7.9-1.5 2-2.4 2.8-.9.9-1.8 1.3-2.6 1.5l.6 5c2.3-.3 4.1-1.5 5.4-2.7s2.3-2.6 3-3.4l-4-3.2zm2.3-4.7c-.4 1.2-.9 2.9-2.3 4.7l4 3.1c2-2.5 2.7-4.9 3.2-6.3l-4.9-1.5zm.7-3.3c-.2 1.3-.3 2-.7 3.2l4.7 1.6c.6-1.7.7-2.8.9-4.1l-4.9-.7zm0 .2h0l5 .1v-.1h-5zm.5-3.3c-.2 1.1-.4 2.2-.5 3.1l5 .6c.1-.7.3-1.5.5-2.9l-5-.8zm2-6.6c-.6 1.5-1.3 3.2-1.9 6.5l4.9.9c.6-2.9 1.1-4.2 1.6-5.5l-4.6-1.9zm1.2-4c-.4 2.1-.7 2.9-1.2 3.8l4.5 2.2c.7-1.4 1.2-2.8 1.6-5.2l-4.9-.8zm2.2-7.8l2.2-1.1s0-.1-.1-.1l-2.1 1.2zm-1.8-2l-1.7 1.9.1.1 1.6-2zm-4-3.4l-1.7 1.8 1.7-1.8zm-6.3-7l-2.3 1.1v.1l2.3-1.2zm-10-7.2l-.8 2.4h0l.8-2.4zm-19-.7l-.3-2.5h-.2l.5 2.5zm-3.2.4l-.2-2.5h-.1l.3 2.5zm-9.6 3.9l1.2 2.2-1.2-2.2zm-2.8 1.6l-1-2.3c-1.1.5-1.7 1.6-1.4 2.8.2 1.2 1.3 2 2.4 2v-2.5zm13.3 2.9l1.3-2.1h0l-1.3 2.1zm8 19.1l2.5-.1-2.5.1zm-.2 7.1l-2.5-.2v.1l2.5.1zm2.2 13.1l-.7 2.4h.1l.6-2.4zm18.7 8.3l-1.1 2.2c.1.1.2.1.3.1l.8-2.3zm1 .1v2.5h.3l-.3-2.5zm6.7-5.2l2 1.5h0l-2-1.5zm2.8-5.5l-2.4-.8v.1l2.4.7zm.8-3.7l2.5.4v-.4h-2.5zm0-.1l-2.5-.3v.3h2.5zm.5-2.9l-2.5-.5 2.5.5zm1.7-6l-2.2-1.1s0 .1-.1.1l2.3 1zm1.4-4.6l2.5.4h0l-2.5-.4z" clip-path="url(#B)"/><path d="M286 134c.4.1.6.6.3 1l-3.3 5.6-1.7 3c-1.7 2.9-1.8 5.3-1.9 7.2-.1 2.1-.2 3-1.5 3.7-1 .7-2.1.9-9.2 2-1.3.2-1.8.4-2.3.7-.1.1-.3.1-.4.2-.4.2-.8-.2-.8-.6.1-1 .1-2.3.1-3.9v-.3l-.1-3.4c-.1-1.8-.1-2.6.4-3.3.6-1 1.1-1.3 1.8-1.8 1.1-.7 2.6-1.6 4.6-4.5 1.2-1.6 1.4-2.5 1.6-3.2.1-.3.1-.4 1-1.1s3.7-2.9 7.4-2.3c1.3.1 2.6.5 4 1z"/></g><defs><path id="C" d="M286 134c.4.1.6.6.3 1l-3.3 5.6-1.7 3c-1.7 2.9-1.8 5.3-1.9 7.2-.1 2.1-.2 3-1.5 3.7-1 .7-2.1.9-9.2 2-1.3.2-1.8.4-2.3.7-.1.1-.3.1-.4.2-.4.2-.8-.2-.8-.6.1-1 .1-2.3.1-3.9v-.3l-.1-3.4c-.1-1.8-.1-2.6.4-3.3.6-1 1.1-1.3 1.8-1.8 1.1-.7 2.6-1.6 4.6-4.5 1.2-1.6 1.4-2.5 1.6-3.2.1-.3.1-.4 1-1.1s3.7-2.9 7.4-2.3c1.3.1 2.6.5 4 1z"/></defs><clipPath id="D"><use xlink:href="#C"/></clipPath><g class="C"><path d="M281.8 135.4c1 .2 2.1.5 3.4 1l1.7-4.7c-1.4-.5-2.9-1-4.3-1.2l-.8 4.9zm-5.5 1.8c.9-.7 3-2.2 5.5-1.8l.8-4.9c-4.8-.8-8.4 2.1-9.3 2.8l3 3.9zm-.1-.1c0-.1 0-.1 0 0 0-.1 0-.1 0 0 0-.1 0-.1 0 0-.1.1-.1.2-.1.3s-.1.1-.1.2v.1h.1c.1-.1.2-.2.4-.3l-3.1-3.9c-.4.3-.9.7-1.2 1.1-.2.2-.4.5-.5.8-.1.1-.1.2-.1.3v.1l4.6 1.3zm-2 3.8c.7-.9 1.1-1.7 1.4-2.4s.5-1.3.5-1.6l-4.8-1.4c-.1.4-.2.6-.3.9s-.4.8-.9 1.4l4.1 3.1zm-5.3 5.2c1.2-.8 3-1.9 5.3-5.2l-4.1-2.9c-1.8 2.6-3 3.3-3.9 3.9l2.7 4.2zm-.9.9c.2-.3.3-.4.4-.5s.3-.2.7-.5l-2.9-4.1c-.7.5-1.6 1-2.5 2.5l4.3 2.6zm-.1 1.9c-.1-.9-.1-1.4 0-1.7v-.2l-4.2-2.6c-1 1.6-.9 3.2-.8 4.8l5-.3zm.1 3.6l-.1-3.7-5 .6c.1.7.1 1.7.1 3.2h5zm0 .3v-.3h-5v.3h5zm-.1 4.2c.1-1.1.1-2.6.1-4.2h-5l-.1 3.7 5 .5zm-2.8-1.9c.9-.4 1.7-.1 2.2.2a1.75 1.75 0 0 1 .7 1.4h-5c0 1 .5 1.9 1.1 2.4.8.6 2 1 3.3.4l-2.3-4.4zm-.3.3c.3-.3.5-.4.6-.4s.1 0 .1-.1h-.1c-.1 0-.1.1-.2.1-.2.1-.5.3-.8.6l3.5 3.5c-.3.3-.5.4-.6.4s-.1 0-.1.1h.1c.1 0 .1-.1.2-.1.2-.1.5-.3.8-.6l-3.5-3.5zm3.7-1.4c-1.5.2-2.3.5-3.2 1l2.6 4.3c.1-.1.2-.1.3-.1.2-.1.5-.1 1-.2l-.7-5zm8.1-1.6c-.1.1-.2.2-1.4.4-1.2.3-3.2.6-6.7 1.1l.8 4.9 7-1.2c1.4-.3 2.3-.6 3.2-1.2l-2.9-4zm.4-1.8c0 .5 0 .9-.1 1.2 0 .3-.1.4-.1.5l-.2.1 2.6 4.3c1.1-.6 1.8-1.5 2.2-2.7.3-1 .4-2.1.4-3l-4.8-.4zm2.2-8.3c-2 3.4-2.1 6.4-2.2 8.3l5 .3c.1-1.8.2-3.8 1.5-6.1l-4.3-2.5zm1.7-2.9l-1.6 2.8 4.2 2.6 1.7-3.1-4.3-2.3zm3.3-5.8l-3.3 5.7 4.4 2.5 3.2-5.5-4.3-2.7zm1.2 2.8c-1.5-.4-1.8-2-1.1-2.9l4 3c1.3-1.7.6-4.4-1.7-4.9l-1.2 4.8zm-3.2-3.5l.4-2.5h0l-.4 2.5zm-8.4 3.4l-2.4-.8v.1l2.4.7zm-1.6 3.1l-2-1.5v.1l2 1.4zm-4.6 4.5l-1.3-2.1s-.1 0-.1.1l1.4 2zm-1.8 1.8l2.1 1.3-2.1-1.3zm-.4 3.4l-2.5.1v.1l2.5-.2zm0 7.7l-2.5-.2v.2h2.5zm.8.5l1.1 2.2c.2-.1.5-.3.6-.5l-1.7-1.7zm.4-.2l-1.3-2.1c-.2.1-.3.2-.5.4l1.8 1.7zm2.3-.6l-.4-2.5h0l.4 2.5zm9.1-2l-1.3-2.1-.1.1 1.4 2zm1.5-3.8l-2.5-.1h0l2.5.1zm1.9-7.1l-2.1-1.3v.1l2.1 1.2zm1.7-3l-2.2-1.2 2.2 1.2zm3.2-5.6l-2-1.5-.1.1 2.1 1.4zm-.3-1l-.8 2.4c.1 0 .2.1.2.1l.6-2.5z" clip-path="url(#D)"/><path d="M257.7 166.7c-.2.2-.3.3-.6.3-.8 0-1.3-.2-1.6-.6-.7-.9-.6-2.7-.5-3.7l3.1-.8c.2 1.7.3 3.9-.4 4.8z"/></g><defs><path id="E" d="M257.7 166.7c-.2.2-.3.3-.6.3-.8 0-1.3-.2-1.6-.6-.7-.9-.6-2.7-.5-3.7l3.1-.8c.2 1.7.3 3.9-.4 4.8z"/></defs><clipPath id="F"><use xlink:href="#E"/></clipPath><g class="C"><path d="M255.6 162.2c.1.8.1 1.6.1 2.3 0 .3 0 .6-.1.8 0 .2-.1.1.1-.1l3.9 3.1c.5-.6.7-1.3.8-1.9l.2-1.7c0-1.1 0-2.2-.2-3.1l-4.8.6zm.1 2.9l3.1-.8-1.2-4.8-3.1.8 1.2 4.8zm1.8-.2c.1.1.1.1 0 0v-.4-1.5l-5-.5c-.1.6-.1 1.5-.1 2.4.1.8.2 2.1 1.1 3.2l4-3.2zm-.4-.4c-.2 0-.2 0 0 0l.2.2.3.3-4 3c1 1.3 2.4 1.6 3.6 1.6v-5.1zm-1.1.4c-.1.1-.1.1 0 0 0 0 .1-.1.3-.2s.4-.2.5-.2h.4v5c.5 0 1-.1 1.6-.4.4-.2.8-.6.8-.6l-3.6-3.6zm2.1-3l2.5-.3c-.1-.7-.5-1.4-1.1-1.8s-1.3-.5-2-.4l.6 2.5zm-3 .8l-.6-2.4c-1 .3-1.8 1.1-1.9 2.2l2.5.2zm.5 3.7l2-1.5-2 1.5zm2.1.3l1.8 1.8c.1-.1.1-.2.2-.2l-2-1.6z" clip-path="url(#F)"/><path d="M257.9 155.9c-.1.4-.1.9-.1 1.5v.6 1.7c-1 .3-1.8.3-2.8.3v-1.1-.7-.8c0-.6 0-1.5.1-1.8.3 0 .6-.1.9-.2.6-.1 1.5-.3 2-.2 0 .2 0 .5-.1.7z"/></g><defs><path id="G" d="M257.9 155.9c-.1.4-.1.9-.1 1.5v.6 1.7c-1 .3-1.8.3-2.8.3v-1.1-.7-.8c0-.6 0-1.5.1-1.8.3 0 .6-.1.9-.2.6-.1 1.5-.3 2-.2 0 .2 0 .5-.1.7z"/></defs><clipPath id="H"><use xlink:href="#G"/></clipPath><g class="C"><path d="M255.5 155.2s0 .1 0 0c0 .1 0 .1 0 0 0 .1 0 0 0 0a.76.76 0 0 1 .2-.4l4.5 2.2c.2-.5.3-1 .3-1.2v-.6h-5zm1 2.6c.2 0 .4-.1.5-.1.2 0 .3-.1.4-.1h.3c.1 0 0 0-.2 0l1-4.9c-.7-.1-1.4-.1-1.8 0s-.9.2-1.1.2l.9 4.9zm-1.3.3c.8 0 1.5-.3 1.7-.3l-1.6-4.7c-.1 0-.1 0-.2.1h-.1.1v4.9zm2.4-.8v-.9-.3s0 .1-.1.2l-4.7-1.6c-.1.3-.2.7-.2.9v.6 1.1h5zm0 .8c0-.1 0-.1 0 0 0-.1 0-.1 0 0 0-.1 0-.1 0 0 0-.1 0-.1 0 0 0-.1 0-.1 0 0 0-.1 0-.1 0 0 0-.1 0-.1 0 0 0-.1 0-.1 0 0 0-.1 0-.1 0 0v-.1h-5 5zm0 .7c0-.1 0-.1 0 0 0-.1 0-.1 0 0 0-.1 0-.1 0 0 0-.1 0-.1 0 0 0-.1 0-.1 0 0 0-.1 0-.1 0 0 0-.1 0-.1 0 0 0-.1 0-.1 0 0 0-.1 0-.1 0 0 0-.1 0-.1 0 0 0-.1 0-.1 0 0 0-.1 0-.1 0 0 0-.1 0-.1 0 0 0-.1 0-.1 0 0 0-.1 0-.1 0 0 0-.1 0-.1 0 0 0-.1 0-.1 0 0 0-.1 0-.1 0 0 0-.1 0-.1 0 0 0-.1 0-.1 0 0v-.1h-5 5zm0 1.1c0-.1 0-.1 0 0 0-.1 0-.1 0 0 0-.1 0-.1 0 0 0-.1 0-.1 0 0 0-.1 0-.1 0 0 0-.1 0-.1 0 0 0-.1 0-.1 0 0 0-.1 0-.1 0 0 0-.1 0-.1 0 0 0-.1 0-.1 0 0 0-.1 0-.1 0 0 0-.1 0-.1 0 0 0-.1 0-.1 0 0 0-.1 0-.1 0 0 0-.1 0-.1 0 0 0-.1 0-.1 0 0 0-.1 0-.1 0 0 0-.1 0-.1 0 0 0-.1 0-.1 0 0 0-.1 0-.1 0 0 0-.1 0-.1 0 0 0-.1 0-.1 0 0v-.1h-5 5zm-.5-2.7c-.6.2-1 .2-2 .2v5c1 0 2.1 0 3.5-.4l-1.5-4.8zm-1.8.7s0 .1 0 0c0 .1 0 .1 0 0 0 .1 0 .1 0 0 0 .1 0 .1 0 0 0 .1 0 .1 0 0 0 .1 0 .1 0 0 0 .1 0 .1 0 0 0 .1 0 .1 0 0 0 .1 0 .1 0 0 0 .1 0 .1 0 0 0 .1 0 .1 0 0 0 .1 0 .1 0 0 0 .1 0 .1 0 0 0 .1 0 .1 0 0 0 .1 0 .1 0 0 0 .1 0 .1 0 0 0 .1 0 .1 0 0 0 .1 0 .1 0 0 0 .1 0 .1 0 0 0 .1 0 .1 0 0 0 .1 0 .1 0 0 0 .1 0 .1 0 0 0 .1 0 .1 0 0 0 .1 0 .1 0 0 0 .1 0 .1 0 0 0 .1 0 .1 0 0 0 .1 0 .1 0 0 0 .1 0 .1 0 0 0 .1 0 .1 0 0v.1h5-5zm0-.6c0 .1 0 .1 0 0 0 .1 0 .1 0 0 0 .1 0 .1 0 0 0 .1 0 .1 0 0 0 .1 0 .1 0 0 0 .1 0 .1 0 0 0 .1 0 .1 0 0 0 .1 0 .1 0 0 0 .1 0 .1 0 0 0 .1 0 .1 0 0 0 .1 0 .1 0 0 0 .1 0 .1 0 0 0 .1 0 .1 0 0 0 .1 0 .1 0 0 0 .1 0 .1 0 0 0 .1 0 .1 0 0 0 .1 0 .1 0 0 0 .1 0 .1 0 0 0 .1 0 .1 0 0 0 .1 0 .1 0 0 0 .1 0 .1 0 0 0 .1 0 .1 0 0 0 .1 0 .1 0 0 0 .1 0 .1 0 0 0 .1 0 .1 0 0 0 .1 0 .1 0 0 0 .1 0 .1 0 0 0 .1 0 .1 0 0 0 .1 0 .1 0 0 0 .1 0 .1 0 0 0 .1 0 .1 0 0 0 .1 0 .1 0 0 0 .1 0 .1 0 0 0 .1 0 .1 0 0 0 .1 0 .1 0 0 0 .1 0 .1 0 0 0 .1 0 .1 0 0 0 .1 0 .1 0 0 0 .1 0 .1 0 0 0 .1 0 .1 0 0 0 .1 0 .1 0 0 0 .1 0 .1 0 0 0 .1 0 .1 0 0 0 .1 0 .1 0 0 0 .1 0 .1 0 0 0 .1 0 .1 0 0 0 .1 0 .1 0 0 0 .1 0 .1 0 0 0 .1 0 .1 0 0 0 .1 0 .1 0 0 0 .1 0 .1 0 0 0 .1 0 .1 0 0 0 .1 0 .1 0 0 0 .1 0 .1 0 0 0 .1 0 .1 0 0 0 .1 0 .1 0 0 0 .1 0 .1 0 0 0 .1 0 .1 0 0 0 .1 0 .1 0 0 0 .1 0 .1 0 0 0 .1 0 .1 0 0 0 .1 0 .1 0 0 0 .1 0 .1 0 0 0 .1 0 .1 0 0 0 .1 0 .1 0 0 0 .1 0 .1 0 0 0 .1 0 .1 0 0 0 .1 0 .1 0 0 0 .1 0 .1 0 0 0 .1 0 .1 0 0 0 .1 0 .1 0 0 0 .1 0 .1 0 0 0 .1 0 .1 0 0 0 .1 0 .1 0 0 0 .1 0 .1 0 0 0 .1 0 .1 0 0 0 .1 0 .1 0 0 0 .1 0 .1 0 0 0 .1 0 .1 0 0 0 .1 0 .1 0 0 0 .1 0 .1 0 0 0 .1 0 .1 0 0v.1h5-5zm.2-2c-.2.8-.2 1.6-.2 2.1h5v-.7-.2l-4.8-1.2zm2.5-.1h2.5c0-1.2-.8-2.2-2-2.5l-.5 2.5zm-2 .2l-.4-2.5c-.1 0-.3.1-.4.1l.8 2.4zm-.8.2v-2.5c-1.1 0-2 .7-2.4 1.7l2.4.8zm-.1 4.3h-2.5c0 1.4 1.1 2.5 2.5 2.5v-2.5zm2.7-.3l.7 2.4c1.1-.3 1.8-1.3 1.8-2.4h-2.5zm.1-3.7l-2.2-1.1c-.1.2-.1.3-.2.5l2.4.6z" clip-path="url(#H)"/><path d="M252.4 165.8c-.1 1.6-.6 3.4-2.1 3.7-.7.1-1-.1-1.2-.3-1-.9-1.1-3.6-1-5.6.7 0 1.5-.1 2.5-.3.6-.1 1.2-.3 1.7-.4.1.8.2 1.8.1 2.9z"/></g><defs><path id="I" d="M252.4 165.8c-.1 1.6-.6 3.4-2.1 3.7-.7.1-1-.1-1.2-.3-1-.9-1.1-3.6-1-5.6.7 0 1.5-.1 2.5-.3.6-.1 1.2-.3 1.7-.4.1.8.2 1.8.1 2.9z"/></defs><clipPath id="J"><use xlink:href="#I"/></clipPath><g class="C"><path d="M249.8 163.3c.1.7.2 1.5.1 2.3l5 .5c.1-1.4 0-2.6-.1-3.4l-5 .6zm1.2 2.5c.4-.1.8-.2 1.1-.2.3-.1.5-.1.7-.2l-1-4.9c-.3.1-.7.2-.9.2-.3.1-.5.1-.7.2l.8 4.9zm-2.8.4c.9 0 1.9-.1 3-.3l-1-4.9c-.9.2-1.5.2-2 .2v5zm2.6 1.2c.2.2.2.3.1.1s-.1-.5-.2-.9c-.1-.8-.1-1.9-.1-2.8l-5-.2c-.1 1.1-.1 2.4.1 3.7.1.6.2 1.3.4 1.9s.6 1.4 1.3 2l3.4-3.8zm-.8-.3c-.1 0 .1 0 .4.1s.5.3.6.3l-3.5 3.5c.3.3.7.6 1.4.9.6.2 1.3.2 1.9.1l-.8-4.9zm-.1-1.4c0 .6-.2 1.2-.3 1.5-.1.1-.1.2-.1.1.1-.1.2-.1.3-.1l1 4.9c1.8-.4 2.8-1.7 3.3-2.8a8.07 8.07 0 0 0 .7-3.2l-4.9-.4zm2.4-2.7l2.5-.3c-.1-.7-.5-1.3-1-1.7-.6-.4-1.3-.6-2-.4l.5 2.4zm-1.7.4l-.4-2.5h-.1l.5 2.5zm-2.4.3v-2.5c-1.3 0-2.4 1-2.5 2.4l2.5.1zm.9 5.6l1.8-1.8-.1-.1-1.7 1.9zm1.2.3l.4 2.5h.1l-.5-2.5zm2.1-3.8l-2.5-.2v.1l2.5.1z" clip-path="url(#J)"/><path d="M251.7 160.3l-3.3 1.2.5-4.2c.1-.8.3-1.1.4-1.2 0 0 .1-.1.2-.1h.1.1l2.1-.1c-.1 1-.1 3.1-.1 4.4z"/></g><defs><path id="K" d="M251.7 160.3l-3.3 1.2.5-4.2c.1-.8.3-1.1.4-1.2 0 0 .1-.1.2-.1h.1.1l2.1-.1c-.1 1-.1 3.1-.1 4.4z"/></defs><clipPath id="L"><use xlink:href="#K"/></clipPath><g class="C"><path d="M249.3 155.6c-.1 1.1-.1 3.5-.1 4.7h5l.1-4.2-5-.5zm.6 2.9l2.1-.1-.2-5-2.1.1.2 5zm-.2 0h0l.1-5h-.1v5zm-.1-2.5c0-2.5 0 0 0 2.5h0 0 0 0 0 0 0 0 0 0 0 0 0 0 0 0 0 0 0 0 0 0 0 0 0 0 0 0 0 0 0 0 0 0 0 0 0 0 0 0 0 0 0 0 0 0 0 0 0 0 0 0 0 0 0v-5h0 0 0 0 0 0 0 0 0 0 0 0 0 0 0 0 0 0 0 0 0 0 0 0 0 0 0 0 0 0 0 0 0 0 0 0 0 0 0 0 0 0 0 0 0 0 0 0 0 0 0 0 0 0 0v2.5zm-.2.1l1.8 1.8-.1.1s-.1.1-.2.1c-.1.1-.2.1-.4.2s-.5.2-.9.2v-5c-.8 0-1.4.4-1.5.5s-.2.2-.3.2l-.1.1c-.1 0-.1 0 1.7 1.8zm2 1.5c0-.2.1-.3 0-.2 0 .1-.1.3-.4.5l-3.5-3.5c-.7.7-1 1.6-1.1 2.6l5 .6zm-.5 4.3l.5-4.4-5-.4-.5 4.1 5 .7zm0-3.9l-3.3 1.2 1.7 4.7 3.3-1.2-1.7-4.7zm.9-2.1l2.5.2c.1-.7-.2-1.4-.7-2-.5-.5-1.2-.8-1.9-.8l.1 2.6zm-2.1.1v2.5h.1l-.1-2.5zm-.1 2.5c1.4 0 2.5-1.1 2.5-2.5s-1.1-2.5-2.5-2.5v5zm-.2-2.4l1.8 1.8h0l-1.8-1.8zm-.4 1.1l-2.5-.3v.1l2.5.2zm-.5 4.3l-2.5-.4c-.1.9.2 1.8.9 2.3.7.6 1.6.7 2.4.4l-.8-2.3zm3.2-1.2l.9 2.3c1-.4 1.6-1.3 1.6-2.3h-2.5z" clip-path="url(#L)"/><path d="M246.4 159.3c-.2.5-.4 1.9-.5 2.9l-4-.1c.2-1.3.6-2.6.9-3.5.4-1 .7-1.8 1.1-2s1.3-.3 1.9.2c.8.5 1 1.4.6 2.5z"/></g><defs><path id="M" d="M246.4 159.3c-.2.5-.4 1.9-.5 2.9l-4-.1c.2-1.3.6-2.6.9-3.5.4-1 .7-1.8 1.1-2s1.3-.3 1.9.2c.8.5 1 1.4.6 2.5z"/></defs><clipPath id="N"><use xlink:href="#M"/></clipPath><g class="C"><path d="M244.3 158.8c-.1-.2-.2-.3-.2-.4-.1-.2 0-.2-.1 0l4.7 1.7c.3-.9.5-1.9.2-2.9-.3-1.1-1-2-1.9-2.6l-2.7 4.2zm.6 0c-.1.1-.2.1-.3.1h-.1s-.3 0-.5-.2l3.2-3.8c-.8-.7-1.8-.9-2.5-.9s-1.4.1-2.1.4l2.3 4.4zm.2.7c.1-.3.2-.5.3-.7s.1-.3.2-.4.1-.1 0 0l-.2.2a1.38 1.38 0 0 1-.4.3l-2.2-4.5c-.6.3-.9.7-1.1 1l-.5.8c-.2.5-.5 1-.6 1.5l4.5 1.8zm-.8 3c.2-1.1.5-2.2.8-3.2l-4.8-1.4c-.3.9-.7 2.4-1 3.9l5 .7zm1.7-2.8l-4-.1-.1 5 4 .1.1-5zm-1.9-1.3c-.2.5-.3 1.3-.4 1.8-.1.6-.2 1.2-.2 1.8l5 .5c0-.5.1-1 .2-1.5 0-.2.1-.4.1-.6s.1-.2 0-.1l-4.7-1.9zm1.6-1.6l-1.6 1.9.2.2 1.4-2.1zm-3 1.7l-2.3-.9c0 .1-.1.1-.1.2l2.4.7zm-.8 3.6l-2.5-.4c-.1.7.1 1.4.6 2a2.32 2.32 0 0 0 1.9.9v-2.5zm4 .1l-.1 2.5c1.3 0 2.4-.9 2.5-2.3l-2.4-.2zm.5-2.9l2.3.9v-.1l-2.3-.8z" clip-path="url(#N)"/><path d="M244.9 171.8c-.3.4-.7.7-1.1.7-.5.1-.8-.1-1.1-.3-1.3-1.2-1.2-5-1.1-6.9 1.7-.4 3.5-.7 4.4-.8.1 1.5.2 5.6-1.1 7.3z"/></g><defs><path id="O" d="M244.9 171.8c-.3.4-.7.7-1.1.7-.5.1-.8-.1-1.1-.3-1.3-1.2-1.2-5-1.1-6.9 1.7-.4 3.5-.7 4.4-.8.1 1.5.2 5.6-1.1 7.3z"/></defs><clipPath id="P"><use xlink:href="#O"/></clipPath><g class="C"><path d="M243.6 164.5l-.1 3.3c-.1 1.4-.4 2.2-.6 2.5l4.1 2.9c1.1-1.5 1.4-3.5 1.5-5l.1-3.8h-5zm-1.4 3.3c1.6-.4 3.3-.6 4.1-.7l-.6-5c-1 .1-3 .4-4.7.8l1.2 4.9zm2.2 2.6c.2.1.1.2 0-.2-.1-.3-.2-.8-.2-1.4-.1-1.2-.1-2.4 0-3.3l-5-.3c-.1 1-.1 2.5 0 4.1l.4 2.4c.2.7.6 1.7 1.4 2.4l3.4-3.7zm-1.1-.3h.3c.1 0 .3 0 .4.1.1 0 .2.1.2.1l-.1-.1-2.8 4.2c.3.2 1.4 1 3 .7l-1-5zm-.4.2l.1-.1c.1-.1.4-.2.8-.2v5c1.6 0 2.6-1.1 3.1-1.7l-4-3zm3.2-5.8h2.5c0-.7-.3-1.4-.8-1.9s-1.2-.7-1.9-.6l.2 2.5zm-4.4.8l-.6-2.4c-1.1.3-1.9 1.2-1.9 2.3l2.5.1zm1 6.9L241 174c.1.1.2.2.3.2l1.4-2zm1.1.3V170h-.5l.5 2.5zm1.1-.7l2 1.5-2-1.5z" clip-path="url(#P)"/><path d="M239.6 161.9c-.2.5-.4 1-.5 1.5-.5.2-2 0-3.4-.3l1-6.4c1.7-.5 3.6-.6 4-.1.7.6-.6 3.9-1.1 5.3z"/></g><defs><path id="Q" d="M239.6 161.9c-.2.5-.4 1-.5 1.5-.5.2-2 0-3.4-.3l1-6.4c1.7-.5 3.6-.6 4-.1.7.6-.6 3.9-1.1 5.3z"/></defs><clipPath id="R"><use xlink:href="#Q"/></clipPath><g class="C"><path d="M238.9 158.3c-.4-.4-.5-.8-.5-.9v-.1c0 .2-.1.5-.2 1l-.9 2.7 4.7 1.7 1-3.1c.2-.6.3-1.3.4-2 0-.3 0-.8-.1-1.2s-.3-1.1-.9-1.7l-3.5 3.6zm-1.6.8c.7-.2 1.4-.3 1.9-.3h.3.1-.1s-.1 0-.2-.1-.4-.2-.7-.6l3.9-3.1c-.7-.9-1.6-1.1-2-1.2-.5-.1-1.1-.1-1.5-.1-1 0-2.1.2-3.1.5l1.4 4.9zm.8 4.3l1-6.4-4.9-.8-1 6.4 4.9.8zm.1-2.4c.2-.1.3-.1.3-.1h-.5l-1.9-.3-1 4.9c.8.2 1.6.3 2.3.4.4 0 .7.1 1.1.1.3 0 .9 0 1.4-.3l-1.7-4.7zm-.9-.1c-.2.4-.5 1.2-.6 1.9l4.9 1c0-.2.1-.5.4-1l-4.7-1.9zm3.4-4.3l-2 1.6.2.2 1.8-1.8zm-4.1.1l-.7-2.4c-.9.3-1.6 1.1-1.8 2l2.5.4zm-.9 6.4l-2.5-.4c-.2 1.3.7 2.6 2 2.8l.5-2.4zm3.4.3l.9 2.3c.8-.3 1.4-1 1.5-1.8l-2.4-.5zm.5-1.5l2.3.9v-.1l-2.3-.8z" clip-path="url(#R)"/><path d="M237.7 172.7c-.8 1-2 1.5-3.6 1.4-1.2 0-1.6-.5-1.8-.8-.9-1.5 0-4.9.9-7.1l5.5.3c.1.4.1.9.1 1.4.1 1.7-.1 3.6-1.1 4.8z"/></g><defs><path id="S" d="M237.7 172.7c-.8 1-2 1.5-3.6 1.4-1.2 0-1.6-.5-1.8-.8-.9-1.5 0-4.9.9-7.1l5.5.3c.1.4.1.9.1 1.4.1 1.7-.1 3.6-1.1 4.8z"/></defs><clipPath id="T"><use xlink:href="#S"/></clipPath><path d="M236.3 168c0 .7 0 1.4-.1 2s-.3.9-.4 1.1l3.8 3.2c.9-1 1.3-2.3 1.5-3.4s.2-2.2.2-3.2l-5 .3zm0-.9v.2.6h5c0-.4 0-1.2-.2-2l-4.8 1.2zm-3.2 1.6l5.5.3.3-5-5.5-.3-.3 5zm1.3 3.3c.1.1 0 .1 0-.3 0-.3 0-.8.1-1.3.2-1.1.6-2.3 1-3.3l-4.6-1.9c-.5 1.2-1 2.8-1.3 4.3l-.2 2.4c0 .8.2 1.7.7 2.6l4.3-2.5zm-.3-.4h-.2.2l.2.2.1.1-4.2 2.8c.2.3.6.8 1.3 1.3.7.4 1.6.6 2.5.6v-5zm1.7-.4c-.2.2-.5.5-1.5.4l-.3 5c2.3.1 4.3-.6 5.7-2.3l-3.9-3.1zm3-3.3h-2.5v.1l2.5-.1zm-.1-1.4l2.4-.6c-.3-1.1-1.2-1.8-2.3-1.9l-.1 2.5zm-5.5-.3l.1-2.5c-1.1-.1-2 .6-2.4 1.5l2.3 1zm-.9 7.1l-2.1 1.3s0 .1.1.1l2-1.4zm1.8.8l.1-2.5h-.1v2.5zm3.6-1.4l-1.9-1.6 1.9 1.6z" clip-path="url(#T)" class="C"/><defs><path id="U" d="M269.2 110c-1.4 2.4-2.1 3.6-3.3 4.6-2.4 2-5 2.4-7.3 2.4-1.6 0-3-.3-3.8-.4-2.4-.4-6.6-1.2-8.1-4.6-.3-.7-.3-1.1-.3-1.7 0-.5 0-1.5-.3-3.5v-.1c-.1-1-.2-2.1 0-3.4v-.3l1.2-5.1c.4-.8 1.4-1.2 2.3-.7.8.4 1.1 1.4.8 2.2-.1.2-.3 1.1-1 4.3v.2c-.2.9-.1 1.6 0 2.5v.1l.3 3.9v.3.1c.3.7.9 1.1 1.6 1.5.5.2 1-.2.9-.7-.7-3.6-.7-7.9.7-10.5.5-.9 1.3-2.3 2.1-3.6a.76.76 0 0 0 .2-.4c.1-.1.1-.2.2-.3.4-.6.7-1.1 1-1.6 0-.1.1-.1.1-.2l.1-.1c.1-.1.1-.2.2-.3 0 0 0-.1.1-.1l.1-.1c0-.1.1-.1.1-.2.3-.4.6-.8.8-1.2.4-.5-.1-1.1-.6-.9-1.4.6-2.3 1.3-2.5 1.4-.7.6-1.8.5-2.4-.3-.6-.7-.5-1.8.3-2.4.9-.7 5.4-3.9 10.8-2.5 3.9 1.1 5.9 4.1 6.7 5.2.6.9 2.6 3.6 2.5 7.6-.1 2.8-1.3 5-3.5 8.9zm-28.3-7.9l-.2 1.2c-.5 2.8-1.6 6.5-5.5 7.5-3.8.9-4.7 1.1-7.4 1.3h-.2c-2 0-5.8-1.3-6.5-4.3-.4-2 .5-3.4 1.9-5.8.2-.4.5-.8.8-1.3 2-3.3 2.7-5.6 3.3-7.5s1.1-3.3 2.4-4.6c.3-.3.6-.6 1-.8.2-.2.5-.3.8-.5.4-.2.8-.3 1.2-.5.9-.3 1.9-.4 2.8-.4 1.9 0 3.7.5 5 1.6.6.5 1.5 1.4 2 4.2 0 1.4-.4 4.1-1.4 9.9zm-4.9 25.5c-1.6 6.7-12 14.2-16.7 14.2h-.1-.2c-.1 0-.2 0-.3-.1h-.2c-.9-.3-2.1-.9-3-1.8-.6-.6-1.1-1.4-1.3-2.1 0-.1-.1-.3-.1-.4-.3-1.2-.6-2.6.4-4.9.1-.3.3-.6.4-.9 0-.1.1-.2.1-.3.1-.3.2-.5.3-.7.1-.4.3-.7.4-.9 0-.1.1-.2.1-.3.3-.8.3-1.1.4-1.4 0-.2.1-.6.2-1 .3-1.3.5-2.4.6-3.3.2-1.7.5-3.2 1.4-4.5.2-.2.3-.4.5-.6l.2-.2.2-.2c.2-.2.5-.3.7-.4.1 0 .2-.1.3-.1.2-.1.4-.1.6-.2.9-.2 1.9-.2 3.1-.1 1.3.1 2.5.3 3.4.6.9.2 1.7.5 2.3.8.1 0 .1.1.2.1.1.1.2.1.4.2s.3.1.5.2l.6.3.2.1c.7.3 1.4.7 1.9 1.1.3.2.5.4.7.6.1.1.2.1.2.2l.2.2c1.8 1.9 1.8 4.3 1.4 5.8zm47.4-1.5c-5-1.4-4.5-8.7-4.1-15.8.1-2.5.3-4.8.2-6.8-.4-6.6-1.5-13.8-6.8-17-5.7-3.4-15.1-2.7-20.8-2-2.1.6-4 1.1-5.6 1-3.3-.2-6-1.6-8.4-2.9-1.8-1-3.3-1.9-4.9-1.9h-.2c-4.4.3-6.5 1.4-8.4 3.1-.5.4-1.1 1.6-3 7-1 2.8-1.1 4.2-1.3 5.6-.2 1.3-.3 2.7-1 4.7-.5 1.4-.9 2.6-1.2 3.7-.9 3.1-1.7 5.5-3.8 8.5-.3.3-.6.9-1 1.4-.5.8-1.1 1.8-2 2.9-.6.8-1.9 3.7-1.8 4.6.1 1.5.6 2.4 1.1 3.3s1.2 2.2 1.3 3.8v.3c.2 2.6-.2 3.8-5 8.2-3.1 2.8-5.3 5.4-6.8 7.4-.1.2 0 .4.3.4h.1.3.3.3c1.2.1 2.4.6 3.2 1.5.1.2.4.2.6.1.8-.3 1.7-.3 2.5-.2 1 .1 2.1.4 2.8 1.1.2.2.5.3.8.2.8-.2 1.7-.2 2.5.1.6.2 1.2.6 1.6 1.1.3.3.8.4 1.2.2.2-.1.5-.3.8-.4 1.1-.4 2.3-.2 3.3.2.5.2 1 .3 1.5.7.8.6 1.4 1.4 1.7 2.3.2.5.9.7 1.3.3.8-.6 1.4-.7 2-.5.3.1.5.3.7.6.3.4.8.8 1.2.6 1.7-.5 3.6-.2 5.1.6.5.3 1.1.7 1.4 1.3v-.3c0-.1.1-.2.2-.3l.3-.1c.8-.3 4.9-1.5 6.5.2.1.1.2.1.3 0 .2-.2.4-.4.5-.4 1.1-.6 2.9-.7 4 .4.2.2.6.1.8-.1a.78.78 0 0 1 .4-.4c.4-.4 1-.5 1.6-.5l2.3-.1c.6 0 2.4-.2 2.9-.3h.1c.2 0 .5-.1.8-.2 1.1-.2 2.4-.5 3.3 0s.9 1.6.8 2.6c0 .4-.1.8-.1 1.2v.6c0 .9 0 1.7-.1 2.3l.1.5v.1c.1.4.6.7.9.4.8-.5 1.6-1.1 1.9-1.5v-.1c0-.1.1-.3.2-.7.1-.9.3-2.6.3-6v-.4c0-1.3 0-2.4-.1-3.3-.1-1.9-.2-3.3.8-4.8.9-1.5 1.8-2 2.7-2.6 1-.6 2.1-1.3 3.9-3.8.9-1.3 1-1.8 1.1-2.2.2-1 .5-1.6 2-2.6 1.2-.9 4.6-3.5 9.4-2.8 1.6.3 4 1.1 6.6 2.1.1 0 .2.1.3.1h.1c2.3.9 4.3 1.9 5.8 2.7.3.2.7.1 1-.2.5-.6 1-.9 1.5-1.3.2-.1.4-.2.5-.3.1 0 .1-.1.1-.1.4-.3.4-1.1-.1-1.3-7.2-3.2-13.5-5.2-15.6-5.8z"/></defs><clipPath id="V"><use xlink:href="#U"/></clipPath><path d="M270.1 101.1c0 2.1-.8 3.7-3.1 7.6l4.3 2.5c2.2-3.7 3.8-6.5 3.8-10.1h-5zm-2-6.2c.6.9 2.1 3.1 2 6.1l5 .1c.1-4.8-2.3-8.1-2.9-9l-4.1 2.8zm-5.3-4.2c3 .8 4.5 3.1 5.3 4.3l4-2.9c-.7-1-3.2-4.8-8.1-6.2l-1.2 4.8zm-8.7 2c.8-.6 4.5-3.2 8.6-2l1.3-4.8c-6.7-1.8-12.1 2.1-13 2.9l3.1 3.9zm.1-1.2c.4.4.2 1-.1 1.3l-3-4c-1.9 1.4-2.2 4.2-.7 6l3.8-3.3zm-1.2 0c.4-.4 1-.2 1.3.1l-4 3c1.4 1.9 4.2 2.2 6 .7l-3.3-3.8zm3.2-1.8c-.8.4-1.5.7-2 1-.2.2-.4.3-.6.4-.1 0-.1.1-.1.1-.1 0 0 0 .1-.1l2.2 4.5c.2-.1.3-.2.3-.2.1 0 .1-.1.2-.1.1-.1.3-.2.4-.3a7.62 7.62 0 0 1 1.3-.7l-1.8-4.6zm3.5 4.8c2-2.4-.5-5.9-3.5-4.8l1.9 4.6c-2 .8-3.5-1.5-2.3-3l3.9 3.2zm-.8 1.1c.3-.3.7-.9 1-1.6l-4.5-2.2c-.1.2-.2.4-.6.8l4.1 3zm.4-1.3c0 .2 0 .4-.1.6l-.3.6c-.1.2-.2.3-.3.3l-.1.1.1-.1a1.38 1.38 0 0 0 .3-.4l.3-.6c.1-.2.1-.5.1-.7h-5c0-.2 0-.4.1-.6l.3-.6c.1-.2.2-.3.3-.3l.1-.1-.1.1a1.38 1.38 0 0 0-.3.4l-.3.6c-.1.2-.1.5-.1.7h5zm-.8 1.9h0l-3.4-3.6-.1.1 3.5 3.5zm-1.9-1.7h2.5v.1.2c0 .2-.1.4-.2.7s-.4.6-.8.9-.9.4-1.3.4v-5c-.5 0-1 .1-1.4.4-.5.3-.7.7-.9 1-.1.3-.2.6-.2.7v.2.1c-.2.3-.2.3 2.3.3zm1.6 2.1c.2-.2.3-.4.4-.5 0-.1.1-.1.1-.2v-.1s0 .1-.1.1a1.38 1.38 0 0 0-.3.4l-3.5-3.5c-.2.2-.3.4-.4.5 0 .1-.1.1-.1.2v.1s0-.1.1-.1c.1-.1.2-.2.3-.4l3.5 3.5zm-.1.1h0l-3.4-3.6-.1.1 3.5 3.5zm.7-1.6c0 .2 0 .4-.1.6l-.3.6c-.1.2-.2.3-.3.3l-.1.1.1-.1a1.38 1.38 0 0 0 .3-.4l.3-.6c.1-.2.1-.5.1-.7h-5c0-.2 0-.4.1-.6l.3-.6c.1-.2.2-.3.3-.3l.1-.1-.1.1c-.1.1-.2.2-.3.4l-.3.6c-.1.2-.1.5-.1.7h5zm-1.5 2.9c.4-.6.8-1.2 1-1.7l-4.3-2.6c-.3.5-.6.9-.9 1.5l4.2 2.8zm-.5.7c.2-.2.3-.4.4-.5 0-.1.1-.1.1-.2v-.1s0 .1-.1.1a1.38 1.38 0 0 0-.3.4l-3.5-3.5c-.2.2-.3.4-.4.5 0 .1-.1.1-.1.2v.1s0-.1.1-.1a1.38 1.38 0 0 0 .3-.4l3.5 3.5zm-.2.4c.3-.3.5-.6.6-.8a3.07 3.07 0 0 0 .3-1.3h-5c0-.3.1-.6.1-.7s.1-.2.1-.3.1-.3.3-.5l3.6 3.6zm-1.6 3.1c.5-.9 1.3-2.2 2.1-3.6l-4.3-2.5-2.1 3.7 4.3 2.4zm-.4 8.9c-.3-1.7-.5-3.4-.4-5.1s.4-3 .8-3.9l-4.4-2.3c-.9 1.8-1.3 3.9-1.4 5.9-.1 2.1.1 4.2.5 6.2l4.9-.8zm-4.3 3.4c2.2.9 4.8-.9 4.3-3.5l-4.9 1c-.3-1.6 1.3-2.6 2.5-2.1l-1.9 4.6zm-2.9-2.8c.7 1.5 1.9 2.3 2.6 2.7l2.5-4.3c-.2-.1-.3-.2-.4-.2-.1-.1-.1-.1-.2-.1v.1l-4.5 1.8zm-.2-1.1h0l5 .1v-.1h-5zm0-.2c0 .1 0 .1 0 0 0 .1 0 .1 0 0 0 .1 0 .1 0 0 0 .1 0 .1 0 0 0 .1 0 .1 0 0v.1h5-5zm-.3-3.7c.3 2.3.3 3.1.3 3.6h5c0-.7 0-1.8-.3-4.3l-5 .7zm0-.4h0l5 .1v-.1h-5zm0-3c-.3 1.4-.1 2.5 0 3.3l5-.6c-.1-1-.1-1.2 0-1.6l-5-1.1zm0 .4v.2h5v-.2h-5zm1.2-5.5c-.2.3-.2.6-.3.8s-.1.5-.2.8c-.2.7-.4 1.7-.7 3.3l4.9 1c.3-1.6.6-2.6.7-3.3.1-.3.1-.5.1-.6 0-.2 0 0-.1.2l-4.4-2.2zm.3 1.2c-.3-.1-.4-.3-.4-.5 0-.1-.1-.3 0-.5l4.7 1.8c.7-1.8.1-4.2-2-5.3l-2.3 4.5zm1.1-.4c-.1.2-.3.4-.5.4-.2.1-.5 0-.7-.1l2.4-4.4c-2.2-1.2-4.7-.2-5.7 1.8l4.5 2.3zm-.9 4.4c.4-2 .6-3.2.8-3.8.1-.3.1-.5.2-.7 0-.1.1-.3.2-.5l-4.9-1.2v.1.1c-.1.2-.1.5-.2.9-.2.8-.5 2-.9 4.1l4.8 1zm0-.2v-.2h-5v.2h5zm0 3.2c-.1-1-.2-1.8 0-2.8l-4.9-.7c-.2 1.7-.1 3 0 4.1l4.9-.6zm0 .3h0l-5-.1v.1h5zm.3 3.6c0-.6 0-1.7-.3-3.9l-4.9.7c.3 1.9.3 2.8.3 3.2h4.9zm.1.6l-.1-.2v-.4h-5c0 .7 0 1.5.5 2.7l4.6-2.1zm6.2 3.2c-1.2-.2-2.6-.5-3.8-1s-2-1.2-2.4-2.2l-4.6 2c1.1 2.5 3.1 3.9 5 4.8 1.9.8 3.8 1.2 5 1.3l.8-4.9zm3.4.4c-1.4 0-2.3-.2-3.6-.4l-.6 5c.6.1 2.4.4 4.1.4v-5zm5.7-1.8c-1.7 1.4-3.7 1.8-5.7 1.8v5c2.5 0 5.9-.4 8.9-2.9l-3.2-3.9zm2.7-4c-1.5 2.6-1.9 3.3-2.7 4l3.2 3.8c1.6-1.3 2.5-3.1 3.8-5.3l-4.3-2.5zm-27.4-16.2c.1.4 0 1.2-.2 2.7a167.82 167.82 0 0 1-1 6.5l4.9.8 1.1-6.7c.2-1.6.3-2.9.1-4l-4.9.7zm-1.1-2.7c.1.1.3.2.4.5.2.3.5 1 .7 2.2l4.9-.8c-.3-1.6-.7-2.8-1.2-3.8-.6-1-1.2-1.6-1.6-1.9l-3.2 3.8zm-3.4-1c1.5 0 2.7.4 3.4 1l3.2-3.8c-1.9-1.6-4.4-2.2-6.6-2.2v5zm-2 .3c.5-.2 1.2-.3 2-.3v-5c-1 0-2.3.1-3.5.5l1.5 4.8zm-.9.3c.1 0 .1-.1.4-.1.2-.1.5-.2.8-.4l-2.2-4.5c-.1 0-.1.1-.4.1-.2.1-.5.2-.8.4l2.2 4.5zm-.1.1l-.2.2h.1c0-.1.1-.1.1-.2a.76.76 0 0 0 .4-.2l-2.8-4.2h-.1s-.1 0-.1.1c-.2.1-.6.3-.9.7l3.5 3.6zm-1 .7l.3-.3h0l-2.2-4.5c-.8.4-1.4 1-1.6 1.3l3.5 3.5zm-1.7 3.7c.6-1.9 1-2.8 1.7-3.6l-3.5-3.5c-1.8 1.8-2.4 3.8-3 5.6l4.8 1.5zm-3.5 8c2.1-3.5 2.9-6.1 3.5-8l-4.8-1.5c-.6 1.9-1.2 4-3 6.9l4.3 2.6zm-.7 1.1c0-.1.1-.2.2-.4a3.04 3.04 0 0 1 .5-.7l-4.3-2.6c-.1.2-.2.4-.4.6-.1.2-.3.5-.5.8l4.5 2.3zm-1.7 4.2c-.2-.9.1-1.5 1.6-4.1l-4.3-2.5c-1.2 2.1-2.8 4.5-2.2 7.6l4.9-1zm4.1 2.3c-.6 0-1.6-.2-2.5-.7s-1.4-1.1-1.5-1.7l-4.9 1.1c.6 2.5 2.4 4.1 4 5a10.58 10.58 0 0 0 4.9 1.3v-5zm.2 0s-.1 0 0 0c-.1 0-.1 0 0 0-.1 0-.1 0 0 0-.1 0-.1 0 0 0-.1 0-.1 0 0 0-.1 0-.1 0 0 0-.1 0-.1 0 0 0-.1 0-.1 0 0 0-.1 0-.1 0 0 0-.1 0-.1 0 0 0-.1 0-.1 0 0 0-.1 0-.1 0 0 0-.1 0-.1 0 0 0-.1 0-.1 0 0 0-.1 0-.1 0 0 0-.1 0-.1 0 0 0-.1 0-.1 0 0 0-.1 0-.1 0 0 0-.1 0-.1 0 0 0-.1 0-.1 0 0 0-.1 0-.1 0 0 0-.1 0-.1 0 0 0-.1 0-.1 0 0 0-.1 0-.1 0 0 0-.1 0-.1 0 0 0-.1 0-.1 0 0 0-.1 0-.1 0 0 0-.1 0-.1 0 0 0-.1 0-.1 0 0 0-.1 0-.1 0 0 0-.1 0-.1 0 0 0-.1 0-.1 0 0 0-.1 0-.1 0 0 0-.1 0-.1 0 0 0-.1 0-.1 0 0 0-.1 0-.1 0 0 0-.1 0-.1 0 0 0-.1 0-.1 0 0 0-.1 0-.1 0 0 0-.1 0-.1 0 0 0-.1 0-.1 0 0 0-.1 0-.1 0 0 0-.1 0-.1 0 0 0-.1 0-.1 0 0 0-.1 0-.1 0 0 0-.1 0-.1 0 0 0-.1 0-.1 0 0 0-.1 0-.1 0 0 0-.1 0-.1 0 0 0-.1 0-.1 0 0 0-.1 0-.1 0 0 0-.1 0-.1 0 0 0-.1 0-.1 0 0 0-.1 0-.1 0 0 0-.1 0-.1 0 0 0-.1 0-.1 0 0 0-.1 0-.1 0 0 0-.1 0-.1 0 0 0-.1 0-.1 0 0 0-.1 0-.1 0 0 0-.1 0-.1 0 0 0-.1 0-.1 0 0 0-.1 0-.1 0 0 0-.1 0-.1 0 0 0-.1 0-.1 0 0 0-.1 0-.1 0 0 0-.1 0-.1 0 0 0-.1 0-.1 0 0 0-.1 0-.1 0 0 0-.1 0-.1 0 0 0-.1 0-.1 0 0 0-.1 0-.1 0 0 0-.1 0-.1 0 0 0-.1 0-.1 0 0 0-.1 0-.1 0 0 0-.1 0-.1 0 0 0-.1 0-.1 0 0 0-.1 0-.1 0 0 0-.1 0-.1 0 0 0-.1 0-.1 0 0 0-.1 0-.1 0 0 0-.1 0-.1 0 0 0-.1 0-.1 0 0 0-.1 0-.1 0 0 0-.1 0-.1 0 0 0-.1 0-.1 0 0 0-.1 0-.1 0 0 0-.1 0-.1 0 0 0-.1 0-.1 0 0 0-.1 0-.1 0 0 0-.1 0-.1 0 0 0-.1 0-.1 0 0 0-.1 0-.1 0 0 0-.1 0-.1 0 0 0-.1 0-.1 0 0 0-.1 0-.1 0 0 0-.1 0-.1 0 0 0-.1 0-.1 0 0 0-.1 0-.1 0 0 0-.1 0-.1 0 0 0-.1 0-.1 0 0 0-.1 0-.1 0 0 0-.1 0-.1 0 0 0-.1 0-.1 0 0 0-.1 0-.1 0 0 0-.1 0-.1 0 0 0-.1 0-.1 0 0 0-.1 0-.1 0 0 0-.1 0-.1 0 0 0-.1 0-.1 0 0 0-.1 0-.1 0 0 0-.1 0-.1 0 0 0-.1 0-.1 0 0 0-.1 0-.1 0 0 0-.1 0-.1 0 0 0-.1 0-.1 0 0 0-.1 0-.1 0 0 0-.1 0-.1 0 0 0-.1 0-.1 0 0 0-.1 0-.1 0 0 0-.1 0-.1 0 0 0-.1 0-.1 0 0 0-.1 0-.1 0 0 0-.1 0-.1 0 0 0-.1 0-.1 0 0 0-.1 0-.1 0 0 0-.1 0-.1 0 0 0-.1 0-.1 0 0 0-.1 0-.1 0 0 0-.1 0-.1 0 0 0-.1 0-.1 0 0 0-.1 0-.1 0 0 0-.1 0-.1 0 0 0-.1 0-.1 0 0 0-.1 0-.1 0 0 0-.1 0-.1 0 0 0-.1 0-.1 0 0 0-.1 0-.1 0 0 0-.1 0-.1 0 0 0-.1 0-.1 0 0 0-.1 0-.1 0 0 0-.1 0-.1 0 0 0-.1 0-.1 0 0 0-.1 0-.1 0 0 0-.1 0-.1 0 0 0-.1 0-.1 0 0 0-.1 0-.1 0 0 0-.1 0-.1 0 0 0-.1 0-.1 0 0 0-.1 0-.1 0 0 0-.1 0-.1 0 0 0-.1 0-.1 0 0 0-.1 0-.1 0 0 0-.1 0-.1 0 0 0-.1 0-.1 0 0 0-.1 0-.1 0 0 0-.1 0-.1 0 0 0-.1 0-.1 0 0 0-.1 0-.1 0 0 0-.1 0-.1 0 0 0-.1 0-.1 0 0 0-.1 0-.1 0 0 0-.1 0-.1 0 0 0-.1 0-.1 0 0 0-.1 0-.1 0 0 0-.1 0-.1 0 0 0-.1 0-.1 0 0 0-.1 0-.1 0 0 0-.1 0-.1 0 0 0-.1 0-.1 0 0 0-.1 0-.1 0 0 0-.1 0-.1 0 0 0-.1 0-.1 0 0 0-.1 0-.1 0 0 0-.1 0-.1 0 0 0-.1 0-.1 0 0 0-.1 0-.1 0 0 0-.1 0-.1 0 0 0-.1 0-.1 0 0 0-.1 0-.1 0 0 0-.1 0-.1 0 0 0-.1 0-.1 0 0 0-.1 0-.1 0 0 0-.1 0-.1 0 0 0-.1 0-.1 0 0 0-.1 0-.1 0 0 0-.1 0-.1 0 0 0-.1 0-.1 0 0 0-.1 0-.1 0 0 0-.1 0-.1 0 0 0-.1 0-.1 0 0 0-.1 0-.1 0 0 0-.1 0-.1 0 0 0-.1 0-.1 0 0 0-.1 0-.1 0 0 0-.1 0-.1 0 0 0-.1 0-.1 0 0 0-.1 0-.1 0 0 0-.1 0-.1 0 0 0-.1 0-.1 0 0 0-.1 0-.1 0 0 0-.1 0-.1 0 0 0-.1 0-.1 0 0 0-.1 0-.1 0 0 0h-.1v5-5zm6.8-1.2c-3.8.9-4.6 1-7 1.2l.4 5c2.9-.2 3.9-.4 7.8-1.3l-1.2-4.9zm3.6-5.5c-.5 2.8-1.4 4.9-3.7 5.5l1.2 4.9c5.6-1.4 6.9-6.7 7.4-9.5l-4.9-.9zm.2-1.1l-.2 1.2 4.9.8.2-1.2-4.9-.8zm-5.6 22.1c1 .9 1.1 2.1.8 3.2l4.8 1.3c.5-1.9.8-5.6-2.4-8.3l-3.2 3.8zm-.4-.3h0l.2.2 3.5-3.5-.1-.1-.1-.1-3.5 3.5zm-.2-.2c.2.2.3.3.5.4.1 0 .1.1.1.1-.1 0-.4-.2-.6-.6-.3-.4-.4-.9-.4-1.4h5c0-.5-.1-1-.5-1.5-.3-.4-.6-.6-.7-.7-.3-.2.1 0 .2.2l-3.6 3.5zm-.3-.3c.1 0 .1.1.3.3l3.5-3.5c-.2-.2-.5-.6-1.1-.9l-2.7 4.1zm-1.5-.9a7.62 7.62 0 0 1 1.3.7l3.1-3.9a8.37 8.37 0 0 0-2.4-1.4l-2 4.6zm-.3-.2l.2.1 2.2-4.5-.2-.1-2.2 4.5zm-.6-.2c.1 0 .2.1.3.1s.2.1.3.1l2.2-4.5c-.1 0-.2-.1-.3-.1s-.2-.1-.3-.1l-2.2 4.5zm-.5-.2c.1.1.2.1.4.2.1 0 .2.1.2.1h-.1l2.2-4.5c-.1-.1-.2-.1-.4-.2-.1 0-.2-.1-.2-.1h.1l-2.2 4.5zm-1-.7c.2.2.4.3.6.4s.3.2.4.2c.2.1.1 0 0 0l2.2-4.5c-.1-.1-.2-.1-.3-.1h-.1s.1 0 .3.1c.1.1.3.2.4.3l-3.5 3.6zm1.6.6c-.2 0-.4 0-.6-.1l-.6-.3c-.2-.1-.3-.2-.3-.3l-.1-.1.1.1c.1.1.2.2.4.3l.6.3c.2.1.5.1.7.1v-5c.2 0 .4 0 .6.1l.6.3c.2.1.3.2.3.3l.1.1-.1-.1c-.1-.1-.2-.2-.4-.3l-.6-.3c-.2-.1-.5-.1-.7-.1v5zm-2.9-.8c.7.2 1.3.4 1.7.6l2.2-4.5c-.8-.4-1.8-.8-2.8-1l-1.1 4.9zm-3.1-.6c1.2.1 2.2.3 2.9.5l1.4-4.8c-1.2-.4-2.6-.6-4-.7l-.3 5zm-2.3.1c.5-.1 1.2-.1 2.3 0l.4-5c-1.3-.1-2.5-.1-3.8.1l1.1 4.9zm0 0c-.1.1-.2.1-.2.1s-.1 0 0 0c0 0 .2-.1.2-.1.2 0 .4-.1.6-.2l-2.2-4.5c.1-.1.2-.1.2-.1h0s-.2 0-.3.1c-.1 0-.3.1-.5.2l2.2 4.5zm-1.4.3c.2 0 .4 0 .6-.1.2 0 .3-.1.4-.1s.2-.1.2-.1h.1s-.1 0-.1.1c-.1 0-.2.1-.3.1s-.3.1-.5.1v-5c-.2 0-.4 0-.6.1-.2 0-.3.1-.4.1s-.2.1-.2.1h-.1s.1 0 .1-.1c.1 0 .2-.1.3-.1s.3-.1.5-.1v5zm1.1-.3l-.2.2h-.1.1.1c0-.1.1-.1.1-.2l-2.2-4.4h-.1c-.1 0-.2.1-.3.1-.2.1-.6.3-1 .7l3.6 3.6zm-.2.2c0-.1.1-.1 0 0l.2-.2-3.5-3.5-.1.1-.1.1 3.5 3.5zm-.2.2c0-.1.1-.1 0 0l.2-.2-3.5-3.5-.1.1-.1.1 3.5 3.5zm-.5.6c.2-.2.4-.5.5-.6s.1-.1 0 0L217 117c-.2.2-.4.5-.5.6s-.1.1 0 0l3.6 3.5zm-.7 3c.2-1.6.4-2.6 1-3.5l-4.2-2.7c-1.2 1.9-1.6 3.8-1.8 5.6l5 .6zm-.6 3.6c.3-1.3.5-2.5.6-3.5l-5-.6c-.1.8-.3 1.7-.5 3l4.9 1.1zm-.1.4v.2-.1c0-.1.1-.3.1-.5l-4.9-1.2c0 .2-.1.4-.2.6 0 .2-.1.5-.1.9h5.1zm-.6 2.2c.2-.5.3-.9.4-1.2 0-.1.1-.3.1-.3 0-.1 0 0 0 0l-4.7-1.6c-.1.2-.1.4-.1.5 0 .2 0 .1-.1.3 0 .1-.1.3-.2.6l4.6 1.7zm.1-.5c0 .2 0 .4-.1.5 0 .1-.1.2-.1.3s-.1.1-.1.1v-.1s.1-.1.1-.2.1-.2.1-.4.1-.4.1-.6h-5c0-.2 0-.4.1-.5 0-.1.1-.2.1-.3s.1-.1.1-.1v.1s-.1.1-.1.2-.1.2-.1.4-.1.4-.1.6h5zm-.5 1.5s0-.1.1-.1c0 0 0-.1.1-.1 0 0 0-.1.1-.2l-4.5-2.2v.1c0 .1-.1.2-.2.3-.1.2-.3.6-.4 1l4.8 1.2zm-.4.8c0-.1 0-.1.1-.2 0-.1 0-.1.1-.2l-4.5-2.2c-.1.2-.3.5-.4 1l4.7 1.6zm.1-.5c0 .2 0 .4-.1.5 0 .1-.1.2-.1.3s-.1.1-.1.1v-.1s.1-.1.1-.2.1-.2.1-.4.1-.4.1-.6h-5c0-.2 0-.4.1-.5 0-.1.1-.2.1-.3s.1-.1.1-.1v.1s-.1.1-.1.2-.1.2-.1.4-.1.4-.1.6h5zm-.5 1.7c-.1.1-.1.1 0 0l.1-.1c0-.1.1-.2.1-.3.1-.1.1-.3.2-.5l-4.7-1.6s0-.1 0 0c0 0 0 .1-.1.1 0 .1-.1.2-.1.3-.1.1-.1.3-.2.5l4.7 1.6zm-.4 3.5c-.1-.6-.2-.9-.2-1.4 0-.4.1-1.1.5-2l-4.6-1.9c-.6 1.4-.9 2.7-.9 3.8s.2 2 .4 2.7l4.8-1.2zm.2 1v-.5c0-.1 0-.2-.1-.3v-.2-.1.2.4h-5v.5c0 .1 0 .2.1.3v.2.1-.2-.4h5zm.5.3c-.4-.4-.6-.8-.6-1l-4.8 1.4c.3 1.2 1.1 2.3 1.9 3.1l3.5-3.5zm2 1.2c-.6-.2-1.4-.6-2-1.2l-3.5 3.5c1.2 1.2 2.8 2 3.9 2.4l1.6-4.7zm-.6-.1s-.1 0 0 0c-.1 0-.1 0 0 0-.1 0-.1 0 0 0-.1 0-.1 0 0 0-.1 0-.1 0 0 0-.1 0-.1 0 0 0-.1 0-.1 0 0 0-.1 0-.1 0 0 0-.1 0-.1 0 0 0-.1 0-.1 0 0 0-.1 0-.1 0 0 0-.1 0-.1 0 0 0-.1 0-.1 0 0 0-.1 0-.1 0 0 0-.1 0-.1 0 0 0-.1 0-.1 0 0 0-.1 0-.1 0 0 0-.1 0-.1 0 0 0-.1 0-.1 0 0 0-.1 0-.1 0 0 0-.1 0-.1 0 0 0-.1 0-.1 0 0 0-.1 0-.1 0 0 0-.1 0-.1 0 0 0-.1 0-.1 0 0 0-.1 0-.1 0 0 0-.1 0-.1 0 0 0-.1 0-.1 0 0 0-.1 0-.1 0 0 0-.1 0-.1 0 0 0-.1 0-.1 0 0 0-.1 0-.1 0 0 0-.1 0-.1 0 0 0-.1 0-.1 0 0 0-.1 0-.1 0 0 0-.1 0-.1 0 0 0-.1 0-.1 0 0 0-.1 0-.1 0 0 0-.1 0-.1 0 0 0-.1 0-.1 0 0 0-.1 0-.1 0 0 0-.1 0-.1 0 0 0-.1 0-.1 0 0 0-.1 0-.1 0 0 0-.1 0-.1 0 0 0-.1 0-.1 0 0 0-.1 0-.1 0 0 0-.1 0-.1 0 0 0-.1 0-.1 0 0 0-.1 0-.1 0 0 0-.1 0-.1 0 0 0-.1 0-.1 0 0 0-.1 0-.1 0 0 0-.1 0-.1 0 0 0-.1 0-.1 0 0 0-.1 0-.1 0 0 0-.1 0-.1 0 0 0-.1 0-.1 0 0 0-.1 0-.1 0 0 0-.1 0-.1 0 0 0-.1 0-.1 0 0 0-.1 0-.1 0 0 0-.1 0-.1 0 0 0-.1 0-.1 0 0 0-.1 0-.1 0 0 0-.1 0-.1 0 0 0-.1 0-.1 0 0 0-.1 0-.1 0 0 0-.1 0-.1 0 0 0-.1 0-.1 0 0 0-.1 0-.1 0 0 0-.1 0-.1 0 0 0-.1 0-.1 0 0 0-.1 0-.1 0 0 0-.1 0-.1 0 0 0-.1 0-.1 0 0 0-.1 0-.1 0 0 0-.1 0-.1 0 0 0-.1 0-.1 0 0 0-.1 0-.1 0 0 0-.1 0-.1 0 0 0-.1 0-.1 0 0 0-.1 0-.1 0 0 0-.1 0-.1 0 0 0-.1 0-.1 0 0 0-.1 0-.1 0 0 0-.1 0-.1 0 0 0-.1 0-.1 0 0 0-.1 0-.1 0 0 0-.1 0-.1 0 0 0-.1 0-.1 0 0 0-.1 0-.1 0 0 0-.1 0-.1 0 0 0-.1 0-.1 0 0 0-.1 0-.1 0 0 0-.1 0-.1 0 0 0-.1 0-.1 0 0 0-.1 0-.1 0 0 0-.1 0-.1 0 0 0-.1 0-.1 0 0 0-.1 0-.1 0 0 0-.1 0-.1 0 0 0-.1 0-.1 0 0 0-.1 0-.1 0 0 0-.1 0-.1 0 0 0-.1 0-.1 0 0 0-.1 0-.1 0 0 0h-.1v5-5zm.3.1c-.1 0 .2 0 .5.1.4.1.7.3 1 .6l-3.5 3.5c.9.9 1.9.8 2.1.8v-5zm.2 0c-.1 0-.1 0 0 0-.1 0-.1 0 0 0-.1 0-.1 0 0 0-.1 0-.1 0 0 0-.1 0-.1 0 0 0-.1 0-.1 0 0 0-.1 0-.1 0 0 0-.1 0-.1 0 0 0-.1 0-.1 0 0 0-.1 0-.1 0 0 0-.1 0-.1 0 0 0-.1 0-.1 0 0 0-.1 0-.1 0 0 0-.1 0-.1 0 0 0-.1 0-.1 0 0 0-.1 0-.1 0 0 0-.1 0-.1 0 0 0-.1 0-.1 0 0 0-.1 0-.1 0 0 0-.1 0-.1 0 0 0-.1 0-.1 0 0 0-.1 0-.1 0 0 0-.1 0-.1 0 0 0-.1 0-.1 0 0 0-.1 0-.1 0 0 0-.1 0-.1 0 0 0-.1 0-.1 0 0 0-.1 0-.1 0 0 0-.1 0-.1 0 0 0-.1 0-.1 0 0 0-.1 0-.1 0 0 0-.1 0-.1 0 0 0-.1 0-.1 0 0 0-.1 0-.1 0 0 0-.1 0-.1 0 0 0-.1 0-.1 0 0 0-.1 0-.1 0 0 0-.1 0-.1 0 0 0-.1 0-.1 0 0 0-.1 0-.1 0 0 0-.1 0-.1 0 0 0-.1 0-.1 0 0 0-.1 0-.1 0 0 0-.1 0-.1 0 0 0-.1 0-.1 0 0 0-.1 0-.1 0 0 0-.1 0-.1 0 0 0-.1 0-.1 0 0 0-.1 0-.1 0 0 0-.1 0-.1 0 0 0-.1 0-.1 0 0 0-.1 0-.1 0 0 0-.1 0-.1 0 0 0-.1 0-.1 0 0 0-.1 0-.1 0 0 0-.1 0-.1 0 0 0-.1 0-.1 0 0 0-.1 0-.1 0 0 0-.1 0-.1 0 0 0-.1 0-.1 0 0 0-.1 0-.1 0 0 0-.1 0-.1 0 0 0-.1 0-.1 0 0 0-.1 0-.1 0 0 0-.1 0-.1 0 0 0-.1 0-.1 0 0 0-.1 0-.1 0 0 0-.1 0-.1 0 0 0-.1 0-.1 0 0 0-.1 0-.1 0 0 0-.1 0-.1 0 0 0-.1 0-.1 0 0 0-.1 0-.1 0 0 0-.1 0-.1 0 0 0h-.1 0 0 0 0 0 0 0v2.5 2.5h0 0 0 0 0 0 0v-5zm.1 0h0l-.1 5h.1v-5zm14.3-12.3c-.6 2.5-3.1 5.6-6.3 8.2-1.6 1.3-3.2 2.3-4.7 3s-2.7 1-3.3 1v5c1.7 0 3.7-.7 5.5-1.5 1.9-.9 3.8-2.1 5.6-3.6 3.5-2.8 7.1-6.8 8.1-11l-4.9-1.1zm66 2.7c-6.8-3.3-13.2-5.4-15.4-6l-1.4 4.8c2 .6 8.1 2.5 14.6 5.7l2.2-4.5zm.5 5.5c1-.8 1.3-1.9 1.3-2.8s-.5-2.2-2-2.8l-1.9 4.6c-.9-.4-1.2-1.2-1.2-1.6 0-.3.1-1 .7-1.4l3.1 4zm-1.6.6c.5 0 1-.1 1.4-.4.5-.3.7-.7.9-1 .1-.3.2-.6.2-.7v-.2-.1h-2.5-2.5v-.1-.2c0-.2.1-.4.2-.7s.4-.6.8-.9.9-.4 1.3-.4v4.7zm.6 0c.1 0 .2-.1.4-.2.1-.1.4-.3.7-.6l-3.5-3.5c.1-.1.1-.1.2-.1l.1-.1h.1s-.1 0-.1.1l2.1 4.4zm-.6.7l.4-.4c.1-.1.2-.1.3-.2s.3-.2.4-.3l-3.1-3.9c-.2.2-1.1.8-1.8 1.6l3.8 3.2zm-4.3.7c1.7 1.1 3.4.3 4.1-.5l-3.5-3.5c.1-.1.4-.3.8-.4s.9 0 1.4.3l-2.8 4.1zm-5.4-2.5c2.2.8 4.2 1.8 5.5 2.5l2.4-4.4c-1.6-.8-3.7-1.9-6.1-2.8l-1.8 4.7zm.9.2h0l.1-5h-.1v5zm-.3-.1c-.2 0-.4 0-.5-.1-.1 0-.2-.1-.3-.1s-.1-.1-.1-.1h.1s.1.1.2.1.2.1.4.1.4.1.6.1v-5c.2 0 .4 0 .5.1.1 0 .2.1.3.1s.1.1.1.1h-.1s-.1-.1-.2-.1-.2-.1-.4-.1-.4-.1-.6-.1v5zm-7.1-2.1c1.3.3 3.6 1 6.2 1.9l1.8-4.7c-2.6-1-5.2-1.9-7-2.2l-1 5zm-7.4 2.3c1.2-.9 3.9-2.9 7.4-2.3l.8-4.9c-5.9-1-10.1 2.3-11.3 3.2l3.1 4zm-1 1.1c0-.2.1-.3.1-.3s.2-.2.8-.7l-2.8-4.2c-.8.6-1.6 1.1-2.1 1.9-.6.8-.8 1.6-.9 2.2l4.9 1.1zm-1.5 3.1c.5-.7.8-1.3 1.1-1.8.2-.6.3-1 .4-1.2l-4.9-1.2c-.1.2-.1.2-.1.3-.1.1-.2.4-.6 1l4.1 2.9zm-4.7 4.5c.5-.3 1.2-.7 2-1.5.8-.7 1.6-1.7 2.6-3l-4-3c-.9 1.2-1.5 1.9-2 2.3-.4.4-.8.6-1.2.9l2.6 4.3zm-1.8 1.7c.3-.5.6-.8.8-1 .3-.3.5-.4 1.1-.8l-2.8-4.2c-.9.6-2.2 1.3-3.4 3.4l4.3 2.6zm-.5 3.4c-.1-2-.1-2.6.4-3.3l-4.2-2.8c-1.5 2.3-1.3 4.6-1.2 6.3l5-.2zm.2 3.4c0-1.2 0-2.5-.1-3.5l-5 .6c.1.7.1 1.6.1 3h5zm0 .4s0-.1 0 0c0-.1 0-.1 0 0 0-.1 0-.1 0 0 0-.1 0-.1 0 0 0-.1 0-.1 0 0 0-.1 0-.1 0 0 0-.1 0-.1 0 0 0-.1 0-.1 0 0 0-.1 0-.1 0 0 0-.1 0-.1 0 0 0-.1 0-.1 0 0 0-.1 0-.1 0 0 0-.1 0-.1 0 0 0-.1 0-.1 0 0 0-.1 0-.1 0 0 0-.1 0-.1 0 0 0-.1 0-.1 0 0 0-.1 0-.1 0 0 0-.1 0-.1 0 0 0-.1 0-.1 0 0 0-.1 0-.1 0 0 0-.1 0-.1 0 0 0-.1 0-.1 0 0 0-.1 0-.1 0 0 0-.1 0-.1 0 0 0-.1 0-.1 0 0 0-.1 0-.1 0 0 0-.1 0-.1 0 0 0-.1 0-.1 0 0 0-.1 0-.1 0 0 0-.1 0-.1 0 0 0-.1 0-.1 0 0 0-.1 0-.1 0 0v-.1h-5 5zm-.4 6.3c.1-.9.3-2.7.3-6.3h-5c0 3.3-.2 4.9-.3 5.7l5 .6zm-.1.4v.2.2.2-.1c0-.1 0-.1.1-.3 0-.1.1-.2.1-.4l-4.9-1.2c0 .1 0 .2-.1.3 0 0 0 .1-.1.3 0 .1 0 .2-.1.3v.5h5zm0 .1h0l-5-.1v.1h5zm-3.1 3.6c.5-.3.9-.6 1.3-.9s.9-.7 1.2-1.2l-4-3c.1-.1.1-.1 0 0s-.2.1-.3.2l-.9.6 2.7 4.3zm-4.6-1.9c.2 1 .9 1.7 1.7 2.1s2.3.6 3.4-.5l-3.5-3.5c.3-.3.8-.6 1.3-.6s.8.1 1.1.2c.4.2.8.6.9 1.2l-4.9 1.1zm2.4-.7h-2.5 0 0 0 0 0 0 0 0 0 0 0 0 0 0 0 0 0 0 0 0 0 0 0 0 0 0 0 0 0 0 0 0 0 0 0 0 0 0 0 0 0 0 0 0 0 0 0 0 0 0 0 0 0 0 0 0 0 0 0 0 5 0 0 0 0 0 0 0 0 0 0 0 0 0 0 0 0 0 0 0 0 0 0 0 0 0 0 0 0 0 0 0 0 0 0 0 0 0 0 0 0 0 0 0 0 0 0 0 0 0 0 0 0 0 0 0 0 0 0 0 0 0 0-2.5zm-2.6 0l.1.5 4.9-1-.1-.5-4.9 1zm.1-2.8c0 1 0 1.5-.1 1.9l4.9.8c.1-.8.1-1.9.1-2.7h-4.9zm0-.5v.1h5-5zm.1-1.2v.3c0 .2-.1.5-.1.9h5v-.1-.2c0-.2.1-.5.1-.9h-5zm.6-.4s-.1-.1-.2-.1l-.2-.2c-.1-.2-.1-.3-.1-.3v.2.6l5 .5c0-.4.1-1.3 0-2.2-.2-1-.8-2.2-2.1-2.9l-2.4 4.4zm-1.8.3c.6-.1 1-.2 1.4-.2h.4l2.2-4.5c-1.1-.5-2.1-.6-2.9-.5-.8 0-1.6.2-2 .3l.9 4.9zm-1.2.2c.4 0 .8-.1 1-.1.2-.1.4-.1.6-.2l-1.6-4.7h-.1-.1-.1.1.2v5zm-.1 0h0l.1-5h-.1v5zm-2.9.3c.4 0 1.2-.1 1.7-.1.6-.1 1.2-.1 1.6-.2l-1-4.9h-.1-.3c-.2 0-.5.1-.8.1a7.5 7.5 0 0 1-1.2.1v5zm-2.1.1l2.3-.1-.2-5-2.3.1.2 5zm0-.2c-.2.2-.4.2-.4.3h.2v-5c-.7 0-2.2.1-3.3 1.2l3.5 3.5zm.1-.3c0 .1-.1.2-.3.4s-.4.3-.4.3l-2.2-4.5c-.2.1-.6.3-.9.6s-.5.6-.6.9l4.4 2.3zm-4.8.8c.9.9 2 .9 2.6.8s1.3-.4 1.8-.9l-3.5-3.5c.3-.3.6-.4 1-.5.3-.1 1.1-.1 1.8.6l-3.7 3.5zm-1 0c.1-.1.4-.1.7-.1s.4.1.5.2l3.4-3.7c-2.2-2-5.2-1.7-6.9-.7l2.3 4.3zm0 0l.1-.1c.1-.1 0 0-.1.1a.76.76 0 0 0-.4.2c-.2.1-.5.2-.8.2v-5c-.7 0-1.3.3-1.4.4-.2.1-.4.3-.4.3-.2.1-.3.3-.4.4l3.4 3.5zm-3.8 0c.3.3 1 .8 1.9.8s1.6-.5 1.9-.8l-3.5-3.5c.2-.2.8-.7 1.6-.7s1.4.4 1.6.7l-3.5 3.5zm-3.9.3c.2-.1 1.2-.4 2.3-.5h1.3c.3.1.3.1.2 0l3.6-3.4c-.9-.9-2-1.3-2.9-1.5s-1.9-.2-2.7-.1c-1.6.1-3 .6-3.6.8l1.8 4.7zm-.3.2l.3-.1-1.6-4.7-.3.1 1.6 4.7zm1.5-2.1c0 .4-.1.7-.2.9l-.2.4-.1.1-3.5-3.5-.4.4c-.1.2-.6.8-.6 1.6h5zm0 .3v-.3h-5v.3h5zm-5.2.8a1.38 1.38 0 0 1 .4.3c.1.1 0 .1 0 0l4.5-2.2c-.7-1.3-1.9-2-2.3-2.3l-2.6 4.2zm-3.1-.3c1-.3 2.3-.1 3.2.4l2.4-4.4c-2-1.1-4.6-1.5-7-.8l1.4 4.8zm-3.9-1.5c.3.4.7.8 1.3 1.2.5.3 1.7.8 3 .2l-2.2-4.5c.9-.4 1.6-.1 1.8 0 .1.1.1.1.2.1l-4.1 3zm.5.3c-.2-.1-.4-.2-.5-.3s-.1-.2-.1-.1l4.2-2.8c-.3-.5-.9-1.2-2-1.6l-1.6 4.8zm.3.1c.2-.2.2-.1.1-.1h-.3-.2l1.6-4.7c-.7-.2-1.5-.3-2.3-.1s-1.4.6-2 1l3.1 3.9zm-5.1-1.4c.4 1.1 1.4 1.7 2.3 2 1 .2 2.2.1 3.1-.8L223 151c.5-.5 1.2-.6 1.7-.5.4.1.9.4 1.1 1l-4.7 1.9zm-.8-1.1c.4.3.7.7.8 1.1l4.7-1.6c-.5-1.4-1.4-2.6-2.5-3.5l-3 4zm-.9-.4c.2.1.4.1.5.2.1 0 .2.1.3.1h.1l3.1-3.9c-.9-.7-2.1-1-2.1-1.1l-1.9 4.7zm-1.5-.2c.3-.1.8-.1 1.5.2l1.9-4.6c-1.3-.5-3.2-.9-5-.2l1.6 4.6zm-.5.3c.1-.1.2-.1.3-.1s.1-.1.2-.1h.1l-1.6-4.7c-.4.1-.7.3-.8.4-.1 0-.2.1-.2.1h-.1l2.1 4.4zm-4.1-.7c1 1 2.7 1.4 4.1.7l-2.2-4.5c.3-.2.7-.2.9-.1.3 0 .5.2.8.4l-3.6 3.5zm-.6-.4a1.38 1.38 0 0 1 .4.3l3.9-3.1c-.7-.9-1.7-1.6-2.7-1.9l-1.6 4.7zm-1.1-.1c.4-.1.8-.1 1 0l1.8-4.7c-1.3-.5-2.8-.5-3.9-.2l1.1 4.9zm-3.1-.8c.8.8 2 1.2 3.3.8l-1.6-4.7c.7-.2 1.4 0 1.8.4l-3.5 3.5zm-1.3-.4c.8.1 1.2.3 1.2.4l3.5-3.5c-1.3-1.3-3.1-1.7-4.3-1.8l-.4 4.9zm-1.3 0c.2-.1.7-.1 1.3-.1l.6-5c-1-.1-2.3-.2-3.7.3l1.8 4.8zm-3.7-1.3c.6 1.1 1.6 1.5 2.2 1.5.6.1 1.2-.1 1.7-.3l-2.2-4.5c.3-.1.7-.2 1.1-.2s1.2.3 1.7 1.2l-4.5 2.3zm-1.1-.1c.7.1 1.2.3 1.5.6l3.7-3.3c-1.3-1.5-3.1-2.2-4.8-2.3l-.4 5zm-.1 0h0 0 0 0 0 0 0 0 0 0 0 0 0 0 0 0 0 0 0 0 0 0 0 0 0 0 0 0 0 0 0 0 0 0 0 0 0 0 0 0 0 0 0 0 0 0 0 0 0 0 0 0 0 0 0 0 0 .1v-5 5zm-.3 0h0 0 0 0 0 0 0 0 0 0 0 0 0 0 0 0 0 0 0 0 0 0 0 0 0 0 0 0 0 0 0 0 0 0 0 0 0 0 0 0 0 0 0 0 0 0 0 0 0 0 0 0 0 0 0 0 0 0 0 0 0 0 0 0 0 .1v-5 5zm-.3 0h0 0 0 0 0 0 0 0 0 0 0 0 0 0 0 0 0 0 0 0 0 0 0 0 0 0 0 0 0 0 0 0 0 0 0 0 0 0 0 0 0 0 0 0 0 0 0 0 0 0 0 0 0 0 0 0 0 0 0 0 0 0 0 0 0 0 0 0 0 0 0 0 0 .1v-5 5zm-.1 0h0 0 0 0 0 0 0 0 0 0 0 0 0 0 0 0 0 0 0 0 0 0 0 0 0 0 0 0 0 0 0 0 0 0 0 0 0 0 0 0 0 0 0 0 0 0 0 0 0 0 0 0 0 0 0 0 0 0 0 0 0 0 0 0 0 0 0 0 0 0 0 0 0 0 0 0 0 0 0 0 0 0 0 0 0 0 0 0 0 0 0 0 0 0 0 0 0 0 0 0 0 0 0 0 0 0 0 0 0 0 0 0 0 0 0 0 0 0 0 0 0 0 0 0 0 0 0 0 0 0 0 0 0 0 0 0 0 0 0 0 0 0 0 0 0 0 0 0 0 0 0 0 0 0 0 0 0 0 0 0 0 0 0 0 0 0 0 0 0 0 0 0 0 0 0 0 0 0 0 0 0 0 0 0 0 0 0 0 0 0 0 0 0 0 0 0 0 0 0 0 0 0 0 0 0 0 0 0 0 0 0 0 0 0 0 0 0 0 0 0 0 0 0 0 0 0 0 0 0 0 0 0 0 0 0 0 0 0 0 0 0 0 0 0 0 0 0 0 0 0 0 0 0 0 0 0 0 0 0 0 0 0 0 0 0 0 0 0 0 0 0 0 0 0 0 0 0 0 0 0 0 0 0 0 0 0 0 0 0 0 0 0 0 0 0 0 0 0 0 0 0 0 0 0 0 0 0 0 0 0 0 0 0 0 0 0 0 0 0 0 0 0 0 0 0 0 0 0 0 0 0 0 0 0 0 0 0 0 0 0 0 0 0 0 0 0 0 0 0 0 0 0 0 0 0 0 0 0 0 0 0 0 0 0c.1-2.5.1-5 .1-2.5s0 0 0-2.5h0 0 0 0 0 0 0 0 0 0 0 0 0 0 0 0 0 0 0 0 0 0 0 0 0 0 0 0 0 0 0 0 0 0 0 0 0 0 0 0 0 0 0 0 0 0 0 0 0 0 0 0v5zm-2.5-4c-.3.7-.5 1.8.2 2.8s1.7 1.2 2.4 1.2v-5c.4 0 1.2.1 1.8 1s.4 1.8.2 2.2l-4.6-2.2zm7.3-8.1c-3.2 2.9-5.6 5.7-7.1 7.7l4 3c1.4-1.9 3.6-4.4 6.5-7l-3.4-3.7zm4.2-6.1c.1 1 0 1.4-.3 2-.5.8-1.5 2-3.9 4.1l3.3 3.7c2.4-2.2 4-3.8 4.9-5.4 1-1.8 1.1-3.3 1-4.9l-5 .5zm0-.5v.3h5v-.3h-5zm-1-2.8c.6 1.1 1 1.8 1 2.9l5-.3c-.1-2.3-1.1-4-1.5-4.8l-4.5 2.2zm-1.3-4.3c.1 2 .9 3.4 1.3 4.3l4.5-2.2c-.5-1-.8-1.5-.8-2.4l-5 .3zm2.2-6.3c-.5.7-1.1 1.9-1.5 2.8-.2.5-.4 1.1-.6 1.6-.1.4-.3 1.2-.2 1.9l5-.6v.2s0-.1.1-.3c.1-.3.2-.7.4-1.1s.4-.8.5-1.2c.1-.2.2-.3.2-.4.1-.1.1-.2.1-.1l-4-2.8zm1.9-2.6c-.5.8-1 1.7-1.8 2.6l3.9 3.2c1-1.2 1.7-2.4 2.2-3.1l-4.3-2.7zm1.3-1.9c-.2.2-.4.4-.5.6s-.2.3-.3.4c-.2.3-.3.4-.4.6l3.9 3.1c.3-.4.5-.8.7-1 .1-.1.1-.2.2-.2 0-.1 0 0 0 0l-3.6-3.5zm3.2-7.4c-.9 3-1.6 5.1-3.5 7.7l4 3c2.4-3.3 3.3-6.1 4.2-9.3l-4.7-1.4zm1.3-3.8c-.5 1.4-.9 2.7-1.3 4l4.9 1.2c.3-1.1.6-2.1 1.1-3.5l-4.7-1.7zm.8-4.3c-.2 1.4-.3 2.5-.9 4.3l4.7 1.6c.8-2.3.9-4 1.1-5.1l-4.9-.8zm1.4-6.1c-1.1 3-1.2 4.8-1.4 6.1l4.9.7c.2-1.4.3-2.6 1.2-5.1l-4.7-1.7zm3.8-8.1c-.8.6-1.3 1.6-1.7 2.6-.5 1.1-1.1 2.8-2.1 5.6l4.7 1.6c.9-2.7 1.5-4.3 1.9-5.2.4-1 .5-.9.2-.7l-3-3.9zm9.7-3.6c-2.4.2-4.3.5-5.9 1.2s-2.9 1.5-4 2.5l3.3 3.7c.8-.7 1.5-1.2 2.5-1.6s2.3-.7 4.4-.8l-.3-5zm.4 0s-.1 0 0 0c-.1 0-.1 0 0 0-.1 0-.1 0 0 0-.1 0-.1 0 0 0-.1 0-.1 0 0 0-.1 0-.1 0 0 0-.1 0-.1 0 0 0-.1 0-.1 0 0 0-.1 0-.1 0 0 0-.1 0-.1 0 0 0-.1 0-.1 0 0 0-.1 0-.1 0 0 0-.1 0-.1 0 0 0-.1 0-.1 0 0 0-.1 0-.1 0 0 0-.1 0-.1 0 0 0-.1 0-.1 0 0 0-.1 0-.1 0 0 0-.1 0-.1 0 0 0-.1 0-.1 0 0 0-.1 0-.1 0 0 0-.1 0-.1 0 0 0-.1 0-.1 0 0 0-.1 0-.1 0 0 0-.1 0-.1 0 0 0-.1 0-.1 0 0 0-.1 0-.1 0 0 0-.1 0-.1 0 0 0-.1 0-.1 0 0 0-.1 0-.1 0 0 0-.1 0-.1 0 0 0-.1 0-.1 0 0 0-.1 0-.1 0 0 0-.1 0-.1 0 0 0-.1 0-.1 0 0 0-.1 0-.1 0 0 0-.1 0-.1 0 0 0-.1 0-.1 0 0 0-.1 0-.1 0 0 0-.1 0-.1 0 0 0-.1 0-.1 0 0 0-.1 0-.1 0 0 0-.1 0-.1 0 0 0-.1 0-.1 0 0 0-.1 0-.1 0 0 0-.1 0-.1 0 0 0-.1 0-.1 0 0 0-.1 0-.1 0 0 0-.1 0-.1 0 0 0-.1 0-.1 0 0 0-.1 0-.1 0 0 0-.1 0-.1 0 0 0-.1 0-.1 0 0 0-.1 0-.1 0 0 0-.1 0-.1 0 0 0-.1 0-.1 0 0 0-.1 0-.1 0 0 0-.1 0-.1 0 0 0-.1 0-.1 0 0 0-.1 0-.1 0 0 0-.1 0-.1 0 0 0-.1 0-.1 0 0 0-.1 0-.1 0 0 0-.1 0-.1 0 0 0-.1 0-.1 0 0 0-.1 0-.1 0 0 0-.1 0-.1 0 0 0-.1 0-.1 0 0 0-.1 0-.1 0 0 0-.1 0-.1 0 0 0-.1 0-.1 0 0 0-.1 0-.1 0 0 0-.1 0-.1 0 0 0-.1 0-.1 0 0 0-.1 0-.1 0 0 0-.1 0-.1 0 0 0-.1 0-.1 0 0 0-.1 0-.1 0 0 0-.1 0-.1 0 0 0-.1 0-.1 0 0 0-.1 0-.1 0 0 0-.1 0-.1 0 0 0-.1 0-.1 0 0 0-.1 0-.1 0 0 0-.1 0-.1 0 0 0-.1 0-.1 0 0 0-.1 0-.1 0 0 0-.1 0-.1 0 0 0-.1 0-.1 0 0 0-.1 0-.1 0 0 0-.1 0-.1 0 0 0h-.1 0 0 0 0 0 0 0 0v2.5 2.5h0 0 0 0 0 0 0 0v-5zm6.1 2.2c-.9-.5-1.8-1-2.8-1.4s-2.1-.8-3.4-.8v5c.3 0 .8.1 1.4.4.7.3 1.4.7 2.3 1.2l2.5-4.4zm7.3 2.5c-2.7-.2-5-1.3-7.3-2.6l-2.4 4.4c2.4 1.3 5.5 2.9 9.4 3.2l.3-5zm4.8-.9c-2.1.6-3.7 1-4.8.9l-.3 5c2.1.1 4.5-.5 6.5-1.1l-1.4-4.8zm22.8 2.3c-3.4-2-7.7-2.7-11.6-2.9-4-.2-7.9.2-10.8.6l.6 5c2.8-.3 6.4-.7 10-.6s6.9.8 9.2 2.2l2.6-4.3zm8 19c-.2-3.3-.6-7.1-1.7-10.4-1.1-3.4-3-6.6-6.3-8.6l-2.6 4.3c2 1.2 3.3 3.2 4.2 5.9s1.2 5.9 1.4 9.2l5-.4zm-.2 7.1c.1-2.3.3-4.9.2-7l-5 .2c.1 1.8-.1 3.9-.2 6.6l5 .2zm2.3 13.2c-1.1-.3-1.9-1.2-2.3-3.7-.4-2.6-.2-5.8 0-9.5l-5-.3c-.2 3.4-.4 7.3.1 10.6.5 3.2 2 6.7 5.9 7.8l1.3-4.9zm-11.5-22.6l-2.5-.1v.1h2.5zm-2.5-7.6l2.1-1.4s0-.1-.1-.1l-2 1.5zm-6.7-5.2l.7-2.4h0l-.7 2.4zm-10.8 2.4l1.5 2-1.5-2zm-.3 2.4l2-1.5-.1-.1-1.9 1.6zm2.4.3l-1.1-2.2c-.2.1-.4.2-.5.3l1.6 1.9zm2.4-1.4l-.9-2.3h-.1l1 2.3zm.6.9l-2-1.6c-.1.1-.2.3-.3.4l2.3 1.2zm-.8 1.2l-2-1.5c-.3.4-.5 1-.5 1.5h2.5zm-.1.2l1.8 1.8c.5-.5.7-1.1.7-1.8h-2.5zm-.1.1v2.5c.7 0 1.3-.3 1.8-.7l-1.8-1.8zm-.1.1l1.8 1.8c.5-.5.7-1.1.7-1.8h-2.5zm-.2.3l-1.8-1.8h0l1.8 1.8zm-.1.1l-1.8-1.8c-.5.5-.7 1.1-.7 1.8h2.5zm0 .2l2.1 1.3c.2-.4.4-.8.4-1.3h-2.5zm-1 1.6l1.8 1.8a1.38 1.38 0 0 0 .3-.4l-2.1-1.4zm-.2.3l-1.8-1.8c-.5.5-.7 1.1-.7 1.8h2.5zm-.2.3l-1.8-1.8c-.2.2-.3.3-.4.5l2.2 1.3zm-2.1 3.7l-2.2-1.2v.1l2.2 1.1zm-.7 10.5l-2.5.5 2.5-.5zm-.9.7l-1.2 2.2c.1.1.2.1.3.2l.9-2.4zm-1.5-1.5h-2.5c0 .3.1.7.2 1l2.3-1zm-.3-4.3h-2.5v.3l2.5-.3zm0-.1h2.5v-.3l-2.5.3zm0-2.4l2.4.5c0-.2.1-.4.1-.5h-2.5zm0-.2l-2.4-.5c0 .2-.1.3-.1.5h2.5zm.9-4.4l2.2 1.1c0-.1.1-.2.1-.2l-2.3-.9zm-.7-2.1l-1.2 2.2s.1 0 .1.1l1.1-2.3zm-2.3.6l-2.2-1.1c-.1.2-.1.3-.2.5l2.4.6zm-1.2 5.2l-2.5-.5v.5h2.5zm0 .2l2.5.4v-.4h-2.5zm0 3.4h2.5v-.2l-2.5.2zm0 .1h-2.5v.4l2.5-.4zm.6 5.2l2.3-1-2.3 1zm8.1 4.7l-.4 2.5h.1l.3-2.5zm14.4-6.6l-2.2-1.3h0l2.2 1.3zm-27.1-17.9l2.5-.3v-.1l-2.5.4zm-2-4.2l-1.6 1.9 1.6-1.9zm-7.8-1.2l-.8-2.4c-.1 0-.2.1-.3.1l1.1 2.3zm-1.2.5L230 85c-.1 0-.2.1-.3.2l1.4 2zm-.8.5l1.1 2.2c.2-.1.5-.3.6-.5l-1.7-1.7zm-.9.8l-1.8-1.8 1.8 1.8zm-5.7 12.1l-2.1-1.3h0l2.1 1.3zm-.7 1.3l2.2 1.3.1-.1-2.3-1.2zm-1.9 5.8l-2.5.5v.1l2.5-.6zm6.7 4.3v2.5h.2l-.2-2.5zm7.4-1.3l.6 2.4-.6-2.4zm5.5-7.4l2.5.4-2.5-.4zm.2-1.2l-2.5-.4h0l2.5.4zm-6.5 19.8l-1.8 1.8.1.1 1.7-1.9zm-.2-.2h-2.5c0 .7.3 1.3.7 1.8l1.8-1.8zm-.2-.2l1.8-1.8-1.8 1.8zm-.7-.6l-1.6 2c.1 0 .1.1.2.1l1.4-2.1zm-1.9-1.1l-1.1 2.2s.1 0 .1.1l1-2.3zm-.2-.1l-1.1 2.2 1.1-2.2zm-1.4-.7l1.8-1.8c-.5-.5-1.1-.7-1.8-.7v2.5zm-.2-.1l-1.1 2.2c.3.2.7.3 1.1.3v-2.5zm-2.3-.8l-.7 2.4h.2l.5-2.4zm-3.5-.6l-.2 2.5.2-2.5zm-3 .1l-.5-2.4c-.2 0-.4.1-.6.2l1.1 2.2zm-.6.2v2.5c.4 0 .8-.1 1.1-.3l-1.1-2.2zm-.3.1v-2.5c-.4 0-.8.1-1.1.3l1.1 2.2zm-.7.4l-1.8-1.8 1.8 1.8zm-.4.4l1.8 1.8-1.8-1.8zm-.5.6l-1.8-1.8c-.1.1-.2.3-.3.4l2.1 1.4zm-1.4 4.5l-2.5-.3 2.5.3zm-.5 3.3l2.4.6-2.4-.6zm-.2 1l2.4.8c.1-.3.1-.5.1-.8h-2.5zm-.4 1.4l-2.3-.9c-.1.3-.2.6-.2.9h2.5zm-.1.3l2.2 1.1c.2-.3.3-.7.3-1.1h-2.5zm-.4.8l2.2 1.1c.1-.2.1-.3.2-.5l-2.4-.6zm-.3.7l-2.4-.8c-.1.3-.1.5-.1.8h2.5zm-.1.3l2.4.8c.1-.3.1-.5.1-.8h-2.5zm-.4.9l2.3 1c0-.1 0-.1.1-.2l-2.4-.8zm-.4 4.9h2.5c0-.2 0-.4-.1-.6l-2.4.6zm.1.4h-2.5c0 .2 0 .5.1.7l2.4-.7zm1.3 2.1l1.8-1.8-1.8 1.8zm2.9 1.8l-.8 2.4c.3.1.5.1.8.1v-2.5zm.2 0l1.8-1.8c-.5-.5-1.1-.7-1.8-.7v2.5zm17.4-14.1l-2.4-.6v.1l2.4.5zm62.4 4.3l-1.1 2.2c.1 0 .1.1.2.1l.9-2.3zm.1 1.3l-1.5-2c-.6.5-1 1.2-1 2h2.5zm-.1.1v-2.5c-.7 0-1.3.3-1.8.7l1.8 1.8zm-.5.3l-1.1-2.2a1.38 1.38 0 0 0-.4.3l1.5 1.9zm-1.5 1.3l1.8 1.8.2-.2-2-1.6zm-.9.2l1.4-2.1c-.1 0-.1-.1-.2-.1l-1.2 2.2zm-5.9-2.7l.9-2.3c-.3-.1-.6-.2-.9-.2v2.5zm-.3-.1l-.9 2.3c.3.1.6.2.9.2v-2.5zm-6.6-2l.5-2.5-.5 2.5zm-9.4 2.7l1.4 2.1.1-.1-1.5-2zm-2 2.6l2.4.6v-.1l-2.4-.5zm-1.1 2.1l2 1.5v-.1l-2-1.4zm-3.9 3.9l-1.3-2.1s-.1 0-.1.1l1.4 2zm-2.7 2.5l2.1 1.4s0-.1.1-.1l-2.2-1.3zm-.7 4.9l-2.5.1v.1l2.5-.2zm-.2 9.6l2.4.6c0-.1 0-.2.1-.3l-2.5-.3zm-.2.8l2 1.5c.3-.4.5-1 .5-1.5h-2.5zm-1.9 1.5l-1.3-2.1a.78.78 0 0 0-.4.4l1.7 1.7zm-.9-.4h-2.5c0 .2 0 .4.1.6l2.4-.6zm0-.1h2.5v-.5l-2.5.5zm-.1-.5l-2.5-.4v.9l2.5-.5zm.2-4l-2.5-.2v.2h2.5zm-4.1-2.6l-.4-2.5c-.1 0-.2.1-.3.1l.7 2.4zm-.9.2V151h-.5l.5 2.5zm-2.9.3v-2.5h-.1l.1 2.5zm-2.2.1v2.5h.1l-.1-2.5zm-1.6.5l1.1 2.2c.2-.1.5-.3.6-.5l-1.7-1.7zm-.4.4l1.8 1.8c.2-.2.3-.4.5-.6l-2.3-1.2zm-.8.1l1.8-1.8-.1-.1-1.7 1.9zm-4-.4v2.5c.4 0 .8-.1 1.2-.3l-1.2-2.2zm-.5.4l1.8 1.8-1.8-1.8zm-.3 0l-1.8 1.7.1.1 1.7-1.8zm-6.5-.2l.8 2.4h.1l-.9-2.4zm-.3.1l-.8-2.4c-.4.1-.7.3-1 .6l1.8 1.8zm-.2.6l-2.2 1.1c.5 1 1.7 1.6 2.8 1.3s1.9-1.3 1.9-2.4h-2.5zm-1.4-1.3l1.3-2.1s-.1 0-.1-.1l-1.2 2.2zm-5.1-.6l-.7-2.4a.76.76 0 0 0-.4.2l1.1 2.2zm-1.2-.6l-2.1 1.4.1.1 2-1.5zm-.7-.6l-.8 2.4.8-2.4zm-2 .5l-1.5-2c-.1.1-.2.1-.3.2l1.8 1.8zm-1.3-.3l-2.4.8s0 .1.1.1l2.3-.9zm-1.6-2.2l-1.6 2h.1l1.5-2zm-1.5-.7l.9-2.3-.9 2.3zm-3.3-.2l.8 2.4h.1l-.9-2.4zm-.7.4l-1.1-2.2 1.1 2.2zm-1.2-.2l-2 1.6.2.2 1.8-1.8zm-1.6-1.1l-.9 2.3h.1l.8-2.3zm-2.5-.1l-.6-2.4c-.1 0-.1 0-.2.1l.8 2.3zm-.8-.2l-1.8 1.8 1.8-1.8zm-2.7-1.1l-.3 2.5h.1l.2-2.5zm-2.5.2l-.9-2.3c-.1 0-.2.1-.2.1l1.1 2.2zm-.6-.1l2.2-1.1c-.1-.2-.2-.4-.4-.5l-1.8 1.6zm-3.1-1.5l.2-2.5h-.2v2.5zm-.9-2.5c-1.4 0-2.5 1.1-2.5 2.5s1.1 2.5 2.5 2.5v-5zm-.4 2.1l-2-1.5c-.1.1-.2.2-.2.4l2.2 1.1zm6.8-7.4l-1.7-1.9h0l1.7 1.9zm5-8.1h-2.5v.2l2.5-.2zm0-.3h2.5v-.1l-2.5.1zm-2.3-7.2l2.5-.2v-.1l-2.5.3zm1.7-4.7l-1.9-1.6s0 .1-.1.1l2 1.5zm2-2.8l-2-1.6c-.1.1-.1.2-.2.2l2.2 1.4zm1-1.4l1.8 1.8c.1-.1.2-.2.2-.3l-2-1.5zm3.8-8.5l2.4.7v-.1l-2.4-.6zm1.2-3.7l2.4.8v-.1l-2.4-.7zm1-4.7l2.5.4-2.5-.4zm1.3-5.7l2.4.8-2.4-.8zm2.9-6.9l1.6 2 .1-.1-1.7-1.9zm8.4-3.1v-2.5h-.2l.2 2.5zm5.1 1.9l-1.2 2.2 1.2-2.2zm8.4 2.8l.2-2.5h0l-.2 2.5zm5.6-1l-.3-2.5c-.1 0-.3 0-.4.1l.7 2.4zm20.8 2l1.3-2.1h0l-1.3 2.1zm6.8 17.1l2.5-.1-2.5.1zm-.2 6.8l2.5.1-2.5-.1zm4.1 15.7l.7-2.4-.7 2.4z" clip-path="url(#V)" class="C"/><defs><path id="W" d="M233.9 89.8l-1 2.4-2.3 5.3-1.9 3.2c-.6.9-1 1.6-1.4 2.6-.6 1.7-.7 3.5-.3 5.6-1.1-.1-2.8-.8-3-1.8-.1-.7.3-1.4 1.5-3.4a9.13 9.13 0 0 1 .8-1.3c2.1-3.5 3-6.2 3.5-8.2.7-2.1 1-3 2.1-3.7.8-.4 1.4-.6 2-.7z"/></defs><clipPath id="X"><use xlink:href="#W"/></clipPath><g class="C"><path d="M233 92.7c.6-.3 1-.4 1.3-.4l-.8-4.9c-.9.1-1.7.4-2.4.8l1.9 4.5zm-.7 2.2l.7-2c.1-.2.2-.4.4-.5l-2.9-4c-1.8 1.3-2.3 3.1-3 5l4.8 1.5zm-3.7 8.6c2.2-3.8 3.2-6.6 3.8-8.7l-4.8-1.4c-.6 1.9-1.4 4.3-3.3 7.6l4.3 2.5zm-.8 1.2c.1-.3.4-.6.6-.9l-4-3c-.4.5-.8 1.1-1 1.7l4.4 2.2zm-1.2 2c0 .3-.1.5.1.2l1.1-2-4.3-2.5a20.5 20.5 0 0 0-1.3 2.5c-.3.7-.6 1.6-.5 2.6l4.9-.8zm.7-.4c-.1 0-.2 0-.4-.1s-.3-.1-.5-.2c-.1-.1-.2-.1-.1-.1 0 0 .2.2.3.6l-4.9 1c.3 1.7 1.7 2.5 2.4 2.9.9.5 1.9.8 2.8.8l.4-4.9zm-2.3-4c-.8 2.2-.9 4.5-.4 6.9l4.9-.9c-.3-1.7-.2-3.1.2-4.3l-4.7-1.7zm1.7-3.1c-.7 1-1.1 1.8-1.6 3l4.6 1.9c.3-.8.6-1.3 1.1-2.1l-4.1-2.8zm1.7-2.9l-1.7 2.9 4.1 2.9c.6-.8 1.2-1.9 2-3.4l-4.4-2.4zm2.2-5.1l-2.1 5 4.4 2.4c.6-1.1 1.6-3.6 2.4-5.6l-4.7-1.8zm1-2.4l-1 2.3 4.6 2c.4-.8.8-1.9 1-2.4l-4.6-1.9zm.4 1.6l-1-2.3c-.2.1-.3.2-.5.3l1.5 2zm-2.1 3.7l-2.4-.8v.1l2.4.7zm-3.5 8.2l2 1.5c.1-.1.1-.2.2-.2l-2.2-1.3zm-.8 1.3l2.2 1.2s0-.1.1-.1l-2.3-1.1zm-1.5 3.4l-2.5.4v.1l2.5-.5zm3 1.8l-.2 2.5c.8.1 1.6-.2 2.1-.8s.8-1.4.6-2.1l-2.5.4zm.3-5.6l-2.3-.9v.1l2.3.8zm1.4-2.6l-2-1.5v.1l2 1.4zm1.8-3.2l-2.2-1.2 2.2 1.2zm2.3-5.3l-2.3-1s0 .1-.1.1l2.4.9zm1-2.3l2.3 1c.4-.8.2-1.8-.3-2.5s-1.5-1.1-2.4-.9l.4 2.4z" clip-path="url(#X)"/><path d="M231.8 164.2a42.08 42.08 0 0 1-3.4 5.6c-.8-2-2.1-6.6-1.7-10.2v-.3c.1-1.2.4-2.2 1-3.1.4-.6 1.4-.9 2.5-.9.8 0 1.7.2 2.5.6.4.2 1 .7 1 2 .1 1.8-.8 4.2-1.9 6.3z"/></g><defs><path id="Y" d="M231.8 164.2a42.08 42.08 0 0 1-3.4 5.6c-.8-2-2.1-6.6-1.7-10.2v-.3c.1-1.2.4-2.2 1-3.1.4-.6 1.4-.9 2.5-.9.8 0 1.7.2 2.5.6.4.2 1 .7 1 2 .1 1.8-.8 4.2-1.9 6.3z"/></defs><clipPath id="Z"><use xlink:href="#Y"/></clipPath><path d="M231.1 158.2c0 .4 0 1.1-.3 2s-.7 1.9-1.2 2.9l4.5 2.2c.6-1.2 1.1-2.4 1.5-3.7.4-1.2.7-2.6.5-4l-5 .6zm.4 0l-.3-.3c0-.1-.1-.1-.1-.1v.2h5c0-1-.2-2-.7-2.7-.5-.8-1.1-1.2-1.6-1.5l-2.3 4.4zm-1.4-.3a3.08 3.08 0 0 1 1.3.3l2.2-4.5c-1.1-.6-2.4-.9-3.6-.9v5.1zm-.4-.3c-.1.2-.2.3-.3.3s-.1 0 0 0c0 0 .1 0 .3-.1h.4v-5c-.8 0-1.6.1-2.3.4-.7.2-1.6.7-2.2 1.6l4.1 2.8zm-.5 1.9c.1-.9.3-1.4.6-1.9l-4.2-2.8c-.9 1.3-1.3 2.7-1.4 4.2l5 .5zm0 .1c0-.1 0-.1 0 0 0-.1 0-.1 0 0 0-.1 0-.1 0 0 0-.1 0-.1 0 0 0-.1 0-.1 0 0 0-.1 0-.1 0 0 0-.1 0-.1 0 0 0-.1 0-.1 0 0 0-.1 0-.1 0 0 0-.1 0-.1 0 0 0-.1 0-.1 0 0 0-.1 0-.1 0 0 0-.1 0-.1 0 0 0-.1 0-.1 0 0 0-.1 0-.1 0 0 0-.1 0-.1 0 0 0-.1 0-.1 0 0 0-.1 0-.1 0 0 0-.1 0-.1 0 0 0-.1 0-.1 0 0 0-.1 0-.1 0 0 0-.1 0-.1 0 0 0-.1 0-.1 0 0 0-.1 0-.1 0 0 0-.1 0-.1 0 0 0-.1 0-.1 0 0 0-.1 0-.1 0 0 0-.1 0-.1 0 0 0-.1 0-.1 0 0 0-.1 0-.1 0 0 0-.1 0-.1 0 0 0-.1 0-.1 0 0 0-.1 0-.1 0 0 0-.1 0-.1 0 0 0-.1 0-.1 0 0 0-.1 0-.1 0 0 0-.1 0-.1 0 0 0-.1 0-.1 0 0 0-.1 0-.1 0 0 0-.1 0-.1 0 0 0-.1 0-.1 0 0 0-.1 0-.1 0 0 0-.1 0-.1 0 0 0-.1 0-.1 0 0 0-.1 0-.1 0 0 0-.1 0-.1 0 0 0-.1 0-.1 0 0 0-.1 0-.1 0 0 0-.1 0-.1 0 0 0-.1 0-.1 0 0 0-.1 0-.1 0 0 0-.1 0-.1 0 0 0-.1 0-.1 0 0 0-.1 0-.1 0 0 0-.1 0-.1 0 0 0-.1 0-.1 0 0 0-.1 0-.1 0 0 0-.1 0-.1 0 0 0-.1 0-.1 0 0 0-.1 0-.1 0 0 0-.1 0-.1 0 0 0-.1 0-.1 0 0 0-.1 0-.1 0 0 0-.1 0-.1 0 0 0-.1 0-.1 0 0v-.1h-5 5zm1.5 9.3c-.7-1.8-1.8-6-1.5-9l-5-.5c-.5 4.2 1 9.3 1.8 11.4l4.7-1.9zm-1.1-5.8c-1.1 2.3-2.4 4.3-3.1 5.2l3.9 3.2c1-1.3 2.5-3.6 3.7-6.1l-4.5-2.3zm4-5.2h-2.5v.3l2.5-.3zm-5.9-1.6l2.1 1.4-2.1-1.4zm-1 3l-2.5-.2v.2h2.5zm0 .3l2.5.3v-.3h-2.5zm1.7 10.3l-2.3.9c.3.8 1.1 1.4 1.9 1.5s1.8-.2 2.3-.9l-1.9-1.5z" clip-path="url(#Z)" class="C"/><defs><path id="a" d="M294.9 137.9c.1.1.1.2.1.3-.3.7-.8 1.2-1.3 1.8-.6.7-1.3 1.5-1.9 2.8-.9 1.8-1.2 3.3-1.3 7.5-.2 4.8 0 7.5.2 9.5.1 1.9.2 3.1-.1 4.9-.7 3.7-2.3 6.2-4.3 9.4-2.6 3.9-5.1 8-9.5 9.3-.4.1-.4.1-1.6.1-1 0-2.7 0-5.7.1-5.7.2-8.6.3-10.9.8-2.6.5-3.8 1.1-5.2 1.6-1.2.5-2.3.9-4.3 1.4-1.3.3-3.2.5-9.6.6-6.7 0-10.7 0-16-.6-7.3-.8-10.9-1.3-13.4-2.6-5.7-3.1-8.2-8.6-12.1-17.6 0-.1.1-.2.2-.2l.6.3c.2.1.4.1.5.1.4.1.8.1 1.2 0 .1 0 .1 0 .2-.1.1 0 .2 0 .2.1.3.7.7 1.3 1.4 1.7s1.5.4 2.2.4c.8 0 1.6-.1 2.4-.2.4 0 .8.2 1 .5.7 1.8 1.6 3 3 3.2h.3c.3 0 .8-.1 1.4-.5.5-.4 1.3-.1 1.7.4.3.5.7.8 1.1 1.1 1.4 1.4 4.7 2.1 7.5 2.1 1.5 0 2.9-.2 3.6-.6 1.2-.6 1.2-1.4 1.1-1.8l-.3-1.9c0-.1.1-.1.1 0 .2.4.4.8.9.9h.2c.8 0 2 .3 2.2 1 .1.4.3.7.5 1.1.5.7 1.4 1.6 3.3 1.7h.1c2.2 0 3.8-.7 4.9-2.1.1-.1.1-.2.2-.3.4-.6 1.6-.6 2.1-.1.6.5 1.3.8 2.1.8h.4c1-.1 1.8-.6 2.5-1.5.4-.6.7-1.3.9-2.1.1-.2.4-.3.6-.1.4.4 1.1.8 2.1.8.2 0 .5 0 .8-.1 1.9-.4 2.9-2 3.3-3.6 0-.1.1-.1.1 0 .5.6 1.4 1.3 2.9 1.3h.2c.8 0 1.5-.4 2-1 .6-.8.8-2 .9-3.1 0-.3.2-.6.6-.8 1.6-.7 3.5-2.2 4.1-3.2 0 0 0-.1.1-.1.1-.3.4-.5.6-.5 1.3-.2 1.8-.5 2.3-.7.4-.2.7-.3 1.7-.5 7.2-1.1 8.6-1.4 10.1-2.4 2.4-1.6 2.5-3.7 2.6-5.8.1-1.8.2-3.7 1.6-6.1.5-.9 1.1-1.9 1.7-3.1 1.1-2 2.6-4.7 3.6-6.2.2-.3.6-.4.9-.2 1.8.8 4 1.7 4.4 2.1z"/></defs><clipPath id="b"><use xlink:href="#a"/></clipPath><g class="C"><path d="M289 138l3.1 1.2c.4.2.7.3 1 .5s.2.2 0 0l3.5-3.5c-.4-.4-.9-.7-1.2-.8l-1.3-.6-3.5-1.4-1.6 4.6zm2-.7c-.5.7-1.6 1.1-2.6.5l2.8-4.2c-1.6-1-3.5-.4-4.4.9l4.2 2.8zm-3.5 6c1.1-2.1 2.5-4.6 3.5-5.9l-4-3c-1.2 1.6-2.8 4.6-3.8 6.5l4.3 2.4zm-1.7 3l1.7-3.2-4.5-2.2-1.6 3 4.4 2.4zm-1.2 5.1c.1-1.7.2-3.2 1.2-5l-4.3-2.5c-1.7 2.9-1.8 5.4-1.9 7.2l5 .3zm-3.7 7.7c3.5-2.3 3.6-5.8 3.7-7.8l-5-.2c-.1 1.1-.1 1.8-.3 2.4-.2.5-.4 1-1.1 1.4l2.7 4.2zm-11.2 2.8c7-1.1 9-1.4 11.1-2.7l-2.6-4.2c-1 .6-1.8.9-9.2 2l.7 4.9zm-.9.2c.1 0 .1-.1.2-.1s.4-.1.8-.2l-1-4.9a9.01 9.01 0 0 0-2.3.7l2.3 4.5zm-3 1c1.6-.3 2.5-.7 2.8-.8l-1.9-4.6-.4.2c-.1 0-.2.1-.3.1-.2.1-.5.2-1 .2l.8 4.9zm1.4-1.2a1.31 1.31 0 0 1-.6.8.76.76 0 0 1-.4.2c-.2.1-.4.1-.8.1v-5c-.8 0-1.5.4-1.9.7s-.9.8-1.1 1.5l4.8 1.7zm-2.5-.7h2.5v.1.2c0 .2-.1.4-.2.7s-.4.6-.8.9-.9.4-1.3.4v-5c-.5 0-1 .1-1.4.4-.5.3-.7.7-.9 1-.1.3-.2.6-.2.7v.2.1c-.2.3-.2.3 2.3.3zm-3.1 5.4c1-.4 2.1-1.1 2.9-1.8.8-.6 1.8-1.5 2.3-2.4l-4.3-2.6-.3.3c-.2.2-.5.4-.8.7-.6.5-1.4.9-1.9 1.2l2.1 4.6zm.9-1.5c0 .9-.6 1.4-.8 1.4l-2.2-4.5c-1 .5-2 1.5-2 3h5zm-1.4 4.6c1.1-1.4 1.3-3.3 1.4-4.3l-5-.5c-.1 1.1-.3 1.6-.4 1.8l4 3zm-4 2c1.7 0 3-.8 3.9-1.9l-3.8-3.2-.1.1v5zm-.2 0h0 0 0 0 0 0 0 0 0 0 0 0 0 0 0 0 0 0 0 0 0 0 0 0 0 0 0 0 0 0 0 0 0 0 0 0 0 0 0 0 0 0 0 0 0 0 0 0 0 0 0 0 0 0 0 0 0 0 0 0 0 0 0 0 0 0 0 0 0 0 0 0 0 0 0 0 0 0 0 0 0 0 0 0 0 0 0 0 0 0 0 0 0 0 0 0 0 0 0 0 0 0 0 0 0 0 0 0 0 0 0 0 0 0 0 0 0 0 0 0 0 0 0 0 0 0 0 0 0 0 0 0 0 0 0 0 0 0 0 0 0 0 0 0 0 0 0 0 0 0 0 0 0 0 0 0 0 .1 0 0 0 0 0 0 0 0 0 0 0v-2.5-2.5h0 0 0 0 0 0 0 0 0 0 0v5zm-4.7-2.2c.9 1 2.4 2.2 4.8 2.2v-5c-.3 0-.5-.1-.6-.1l-.3-.3-3.9 3.2zm4.3-1.6c0 .6-.5 2.4-2.5 2.4s-2.5-1.8-2.5-2.4h5c.1-.7-.4-2.6-2.5-2.6s-2.5 1.9-2.5 2.6h5zm-5.3 6.1c3.2-.7 4.7-3.4 5.2-5.5l-4.9-1.1c-.1.6-.3 1-.6 1.3-.2.3-.4.4-.8.5l1.1 4.8zm-1.3.1c.2 0 .9 0 1.6-.2l-1.6-4.7h.1-.1v4.9zm-3.8-1.5c.8.8 2.1 1.5 3.8 1.5v-5h-.3l-3.5 3.5zm3.4-.5c-.3.6-.9 1-1.4 1.1-.7.1-1.4 0-2-.6l3.5-3.5c-.8-.8-1.8-1-2.6-.8s-1.5.7-2 1.5l4.5 2.3zm-1 2.3c.6-.9 1-1.8 1.2-2.8l-4.9-1.2c-.1.5-.3 1-.5 1.3l4.2 2.7zm-4.3 2.6c1.8-.2 3.2-1.1 4.2-2.4l-3.9-3.1c-.4.5-.6.5-.7.5l.4 5zm-.7 0h0 0 0 0 0 0 0 0 0 0 0 0 0 0 0 0 0 0 0 0 0 0 0 0 0 0 0 0 0 0 0 0 0 0 0 0 0 0 0 0 0 0 0 0 0 0 0 0 0 0 0 0 0 0 0 0 0 0 0 0 0 0 0 0 0 0 0 0 0 0 0 0 0 0 0 0 0 0 0 0 0 0 0 0 0 0 0 0 0 0 0 0 0 0 0 0 0 0 0 0 0 0 0 0 0 0 0 0 0 0 0 0 0 0 0 0 0 0 0 0 0 0 .1v-5 5zm-3.6-1.4c1 .8 2.2 1.4 3.7 1.4v-5h-.2c-.1 0-.2-.1-.3-.2l-3.2 3.8zm1.6-.4c-.2.3-.5.5-.7.6s-.3.1-.3.1h-.2c-.1 0-.3-.1-.5-.3l3.5-3.5c-.9-.9-2.1-1.1-2.9-1.1s-2.2.3-3 1.6l4.1 2.6zm-.5.7c.2-.2.3-.4.4-.5 0-.1.1-.1.1-.2v-.1s0 .1-.1.1c-.1.1-.2.2-.3.4l-3.5-3.5c-.2.2-.3.4-.4.5 0 .1-.1.1-.1.2v.1s0-.1.1-.1a1.38 1.38 0 0 0 .3-.4l3.5 3.5zm-6.7 2.8c2.7 0 5.2-.9 6.9-3l-3.9-3.1c-.5.6-1.3 1.1-3 1.1v5zm-.1 0h0l.1-5h-.1v5zm-5.3-2.8c.8 1.1 2.3 2.6 5.2 2.7l.3-5c-.5 0-.8-.2-1-.2-.1-.1-.3-.2-.4-.4l-4.1 2.9zm-.9-1.9c.2.7.6 1.5.7 1.6l4.5-2.2c-.1-.1-.1-.3-.2-.3-.1-.1-.1-.2-.1-.2 0-.1 0-.1 0 0L228 174zm.3.9h.2.2l-.1-.1c-.1-.1-.4-.4-.5-.8l4.8-1.4c-.4-1.5-1.8-2.2-2.4-2.4-.7-.3-1.5-.4-2.2-.4v5.1zm-.2 0h0 0 0 0 0 0 0 0 0 0 0 0 0 0 0 0 0 0 0 0 0 0 0 0 0 0 0 0 0 0 0 0 0 0 0 0 0 0 0 0 0 0 0 0 0 0 0 0 0 0 0 0 0 0 0 0 0 0 0 0 0 0 0 0 0 0 0 0 0 0 0 0 .1v-5 5zm-3.2-2.2c.1.2.8 1.8 2.6 2.2l1-4.9c.2 0 .3.1.5.2s.3.2.3.3l.1.1s0-.1-.1-.2l-4.4 2.3zm4.7-1.2c0 .6-.5 2.4-2.5 2.4s-2.5-1.8-2.5-2.4h5c.1-.7-.4-2.6-2.5-2.6-2 0-2.5 1.9-2.5 2.6h5zm.2 1.5c0-.3-.1-.6-.1-.9s-.1-.7-.2-1l-4.9.8c0 .3.1.6.1.9s.1.7.2 1l4.9-.8zm-2.4 4.4c1-.5 1.8-1.2 2.2-2.2s.3-1.8.2-2.4L225 174c0-.2-.1-.5.1-.8.1-.3.3-.4.2-.3l2.1 4.5zm-4.7.9c1.6 0 3.4-.2 4.8-.9l-2.2-4.5c-.2.1-1.1.3-2.5.3v5.1zm-9.3-2.8c1.2 1.2 2.9 1.8 4.4 2.2 1.6.4 3.3.6 4.9.6v-5c-1.2 0-2.5-.2-3.6-.4-1.2-.3-1.9-.7-2.1-.9l-3.6 3.5zm-1.5-1.6c.6 1 1.4 1.5 1.7 1.8l3-4c-.4-.3-.4-.3-.4-.4l-4.3 2.6zm2.1.3c-.6.5-1.2.4-1.4.3s-.3-.2-.5-.3l3.9-3.1c-.5-.7-1.3-1.1-2.1-1.4-.8-.2-2.1-.3-3.1.6l3.2 3.9zm-3 1c.8 0 1.8-.3 2.8-.9l-2.8-4.2c-.1.1-.2.1-.2.1h.1v5zm-.3 0h0 0 0 0 0 0 0 0 0 0 0 0 0 0 0 0 0 0 0 0 0 0 0 0 0 0 0 0 0 0 0 0 0 0 0 0 0 0 0 0 0 0 0 0 0 0 0 0 0 0 0 0 0 0 0 0 0 0 0 0 0 0 0 0 0 0 0 0 0 0 0 0 0 0 0 0 0 0 0 0 0 0 0 0 0 0 0 0 0 0 0 0 0 0 0 0 0 0 0 0 0 0 0 0 0 0 0 0 0 0 0 0 0 0 0 0 0 0 0 0 0 0 0 0 0 0 0 0 0 0 0 0 0 0 0 0 0 0 0 0 0 0 .1v-5 5zm-5.3-4.7c.7 1.9 2.1 4.3 4.9 4.7l.7-4.9s-.1 0-.2-.2c-.2-.2-.5-.7-.8-1.4l-4.6 1.8zm1.4 1.1c-.2 0-.4 0-.6-.1s-.4-.2-.5-.5l4.2-2.8c-.7-1.1-1.9-1.6-3.1-1.6v5zm-2.4.2c1 0 1.9-.1 2.7-.2l-.6-5c-.8.1-1.4.2-2.1.2v5zm-3.4-.8c1.4.8 2.8.7 3.4.7v-5h-.8-.2L201 171zm-2.4-2.8c.4 1 1.1 2.1 2.4 2.9l2.5-4.3s-.1 0-.1-.1-.1-.2-.2-.4l-4.6 1.9zm2.1 1.4c-.2 0-.4 0-.7-.1s-.8-.3-1.1-.8c-.4-.5-.5-1.1-.5-1.5h5c0-.5-.1-1.1-.5-1.6s-.9-.8-1.2-.9-.6-.1-.7-.1h-.2v5zm-.2.1h.3a1.9 1.9 0 0 0 .9-.3c.3-.2.5-.3.6-.4s.1-.1.2-.1l-3.5-3.5c.1 0 .2-.2.5-.3.3-.2.6-.2.8-.2h.2v4.8zm-1.8-.1c.8.2 1.6.2 2.4 0l-1.2-4.9-1.2 4.9zm-1-.3c.8.4 1.5.4 1.6.4v-5h.1c.1 0 .3.1.5.2l-2.2 4.4zm-.6-.3c.1 0 .2.1.3.1s.2.1.3.1l2.2-4.5c-.1 0-.2-.1-.3-.1s-.2-.1-.3-.1l-2.2 4.5zm3.4-2c0 .8-.4 1.3-.7 1.6s-.9.7-1.6.7v-5c-.9 0-1.5.4-1.9.8s-.8 1-.8 1.9h5zm10.8 15.4c-4.8-2.6-7-7.1-11-16.4l-4.6 2c3.8 8.8 6.6 15.3 13.2 18.8l2.4-4.4zm12.5 2.3c-3.7-.4-6.3-.7-8.3-1.1s-3.3-.8-4.2-1.2l-2.3 4.4c1.6.8 3.4 1.3 5.6 1.7s5 .7 8.7 1.1l.5-4.9zm15.7.6c-6.7 0-10.6 0-15.7-.6l-.6 5c5.4.6 9.6.6 16.2.6v-5zm9-.5c-1 .2-2.6.4-9 .5l.1 5c6.4-.1 8.5-.3 10.1-.7l-1.2-4.8zm3.9-1.3c-1.1.4-2 .8-4 1.3l1.2 4.9c2.2-.5 3.4-1 4.7-1.5l-1.9-4.7zm5.7-1.7c-2.8.5-4.3 1.2-5.6 1.7l1.7 4.7c1.5-.5 2.5-1 4.9-1.5l-1-4.9zm11.4-.8c-5.6.2-8.7.3-11.4.8l1 4.9c2.1-.4 4.7-.5 10.5-.7l-.1-5zm5.8-.1c-1 0-2.7 0-5.8.1l.2 5c3-.1 4.7-.1 5.6-.1v-5zm.9-.1h-.1.1-.3-.7v5h1.2c.4 0 .7-.1.9-.2l-1.1-4.8zm8-8.2c-1.3 2-2.5 3.8-3.8 5.3s-2.7 2.4-4.2 2.9l1.4 4.8c2.8-.8 4.8-2.5 6.5-4.4 1.7-1.8 3.1-4 4.3-5.9l-4.2-2.7zm4-8.4c-.6 3.2-1.9 5.3-4 8.4l4.2 2.7c2.1-3.2 3.9-6 4.7-10.3l-4.9-.8zm0-4.4c.1 1.9.2 2.8-.1 4.4l4.9.8c.3-2.2.2-3.6.1-5.4l-4.9.2zm-.2-9.6c-.2 5 0 7.7.2 9.8l5-.5c-.2-1.9-.4-4.4-.2-9.1l-5-.2zm1.6-8.6c-1.1 2.3-1.4 4.3-1.5 8.5l5 .1c.1-4.1.4-5.2 1-6.4l-4.5-2.2zm2.2-3.2c-.6.7-1.5 1.7-2.2 3.3l4.5 2.1c.4-.9.9-1.5 1.5-2.2l-3.8-3.2zm.9-1.2c-.1.3-.2.3-.9 1.2l3.8 3.2c.3-.4 1.2-1.3 1.7-2.4l-4.6-2zm.4 2.5c-.3-.3-.5-.6-.6-1-.1-.3-.1-.6-.1-.5h5c0-.1 0-1.2-.8-2.1l-3.5 3.6zm-3.3-4l-1.4 2.1c.2.1.3.2.5.3l.9-2.4zm-.8.2l2 1.5s0-.1.1-.1l-2.1-1.4zm-3.7 6.2l-2.2-1.2v.1l2.2 1.1zm-1.7 3l2.2 1.3-2.2-1.3zm-1.5 6.1l-2.5-.1 2.5.1zm-2.6 5.9l1.3 2.1h.1l-1.4-2.1zm-10.2 2.3l-.4-2.5h-.1l.5 2.5zm-1.6.5l.9 2.3c.1 0 .1-.1.2-.1l-1.1-2.2zm-2.3.7v2.5h.4l-.4-2.5zm-.6.5v2.5c1.1 0 2-.7 2.4-1.7l-2.4-.8zm-.1.1l2.1 1.3c.2-.4.4-.8.4-1.3h-2.5zm-4.1 3.1l-1-2.3s-.1 0-.1.1l1.1 2.2zm-.6.8l2.5.2v-.2H260zm-.9 3.1l1.9 1.6.1-.1-2-1.5zm-5-.3h-2.5c0 .6.2 1.2.6 1.6l1.9-1.6zm-.1 0l2.4.6c0-.2.1-.4.1-.6H254zm-3.3 3.6l-.5-2.4c-.1 0-.2 0-.3.1l.8 2.3zm-2.8-.7l-1.8 1.8 1.8-1.8zm-.6.1l-2.2-1.1c-.1.2-.1.3-.2.5l2.4.6zm-.9 2.1l2 1.5.1-.1-2.1-1.4zm-2.5 1.5v2.5h.2l-.2-2.5zm-2.4-.8l-1.8 1.8.2.2 1.6-2zm-2.1.1l1.8 1.8c.1-.1.2-.2.3-.4l-2.1-1.4zm-.2.3l-1.8-1.8-.2.2 2 1.6zm-5 2.1l-.1 2.5h.1v-2.5zm-3.3-1.7l-2.2 1.1c.1.1.1.2.2.3l2-1.4zm-.5-1.1l2.4-.6v-.1l-2.4.7zm-2.3-1l-.5 2.5h.5v-2.5zm-.9-.9h-2.5c0 .4.1.8.3 1.1l2.2-1.1zm-.1 0h-2.5v.4l2.5-.4zm.3 1.9l-2.5.4v.2l2.5-.6zm-1.1 1.8l-1.1-2.2 1.1 2.2zm-11.1-1.5l1.8-1.8c-.1-.1-.2-.2-.3-.2l-1.5 2zm-1.1-1.1l2.1-1.3c-.1-.1-.1-.2-.2-.3l-1.9 1.6zm-1.7-.4l1.4 2.1c.1 0 .1-.1.2-.1l-1.6-2zm-1.7.5l-.4 2.5h.4v-2.5zm-2.9-3.1l2.3-.9c-.1-.2-.1-.3-.2-.5l-2.1 1.4zm-1-.5v-2.5h-.3l.3 2.5zm-5.9-1.9h-2.5c0 .3.1.7.2 1l2.3-1zm-.2-.1v-2.5c-.7 0-1.3.3-1.8.7l1.8 1.8zm-.2.1v-2.5c-.2 0-.4 0-.6.1l.6 2.4zm-1.2 0l.6-2.4c-.2 0-.4-.1-.6-.1v2.5zm-1.1-.4l1.1-2.2c-.3-.2-.7-.3-1.1-.3v2.5zm-.2.2h-2.5c0 .3.1.7.2 1l2.3-1zm12.1 17.6l-1.2 2.2 1.2-2.2zm13.4 2.6l.3-2.5h0l-.3 2.5zm16 .6v2.5-2.5zm9.6-.6l.6 2.4-.6-2.4zm4.3-1.4l-.8-2.4h-.1l.9 2.4zm5.2-1.6l.5 2.5-.5-2.5zm10.9-.7l-.1-2.5h0l.1 2.5zm7.3-.2l.6 2.4h.1l-.7-2.4zm9.5-9.3l-2.1-1.4h0l2.1 1.4zm4.3-9.4l2.5.5v-.1l-2.5-.4zm.1-4.9l2.5-.1v-.1l-2.5.2zm-.2-9.4l2.5.1-2.5-.1zm1.3-7.5l2.2 1.1v-.1l-2.2-1zm1.9-2.8l1.9 1.6-1.9-1.6zm1.3-1.8l2.3 1c.1-.3.2-.6.2-1H295zm-.1-.3l-1.8 1.8 1.8-1.8z" clip-path="url(#b)"/><path d="M224.9 159.1c-.3 2.5-.5 5.8-.1 10.1.1 1.2.3 2.5.5 3.7-.3.2-1.4.5-3.2.4-2.6-.1-5.1-.7-5.9-1.6l-.1-.1c-.6-.5-1.1-.9-1.1-1.8 0-.3.1-.6.4-1.1.2-.2.4-.5.6-.9.4-.6 1-1.3 1.6-2.3 1.7-2.8 2.3-3.6 3.1-4.7.1-.1.1-.2.2-.3.5-.6 1-1.4 1.9-2.7.6-.9 1.1-1.7 1.6-2.3.7-1 1.2-1.5 1.5-1.8 0 .4-.1 1-.2 1.6-.6 1.5-.7 2.5-.8 3.8z"/></g><defs><path id="c" d="M224.9 159.1c-.3 2.5-.5 5.8-.1 10.1.1 1.2.3 2.5.5 3.7-.3.2-1.4.5-3.2.4-2.6-.1-5.1-.7-5.9-1.6l-.1-.1c-.6-.5-1.1-.9-1.1-1.8 0-.3.1-.6.4-1.1.2-.2.4-.5.6-.9.4-.6 1-1.3 1.6-2.3 1.7-2.8 2.3-3.6 3.1-4.7.1-.1.1-.2.2-.3.5-.6 1-1.4 1.9-2.7.6-.9 1.1-1.7 1.6-2.3.7-1 1.2-1.5 1.5-1.8 0 .4-.1 1-.2 1.6-.6 1.5-.7 2.5-.8 3.8z"/></defs><clipPath id="d"><use xlink:href="#c"/></clipPath><path d="M223.2 154.8c-.5 1.4-.7 2.7-.8 4.1l5 .4c.1-1.1.2-2 .6-2.9l-4.8-1.6zm0-.8v.1.3c0 .2-.1.5-.1.8l4.9.8c.1-.5.2-1.3.2-2h-5zm3.1 3.2c.6-.8 1-1.2 1.2-1.4l-3.5-3.5c-.4.4-1 1-1.8 2.1l4.1 2.8zm-1.5 2.2l1.4-2.1-3.8-3.2c-.6.7-1.2 1.7-1.7 2.5l4.1 2.8zm-2.1 2.9c.6-.7 1.2-1.7 2-2.8l-4.1-2.8-1.7 2.5 3.8 3.1zm-.3.5c.2-.2.3-.4.4-.5 0-.1.1-.1.1-.2v-.1s0 .1-.1.1c-.1.1-.2.2-.3.4L219 159c-.2.2-.3.4-.4.5 0 .1-.1.1-.1.2v.1s0-.1.1-.1c.1-.1.2-.2.3-.4l3.5 3.5zm-2.7 4.2l2.9-4.6-4-2.9-3.2 4.9 4.3 2.6zm-1.6 2.4c.2-.2.3-.5.7-.9.3-.4.6-.9 1-1.5l-4.3-2.6c-.2.4-.5.7-.7 1.1l-.8 1.1 4.1 2.8zm-.9 1.2c.5-.5.8-1 1.1-1.5l-4.5-2.2c-.1.1-.1.2-.1.2l3.5 3.5zm.3-.6v.2.2s0-.1.1-.2l-4.3-2.6c-.4.6-.8 1.4-.8 2.4h5zm.2-.2l-.2-.2c-.1 0-.1-.1-.1-.1-.1-.1-.1-.1 0 0 0 0 .1.1.1.2v.2h-5c0 1 .3 1.8.8 2.5.4.6 1 1 1.2 1.2l3.2-3.8zm.2.3h0l-3.6 3.4.1.1 3.5-3.5zm4.3.8c-1.1 0-2.2-.2-3.1-.4l-1-.3c-.2-.1-.2-.1-.1 0l-3.7 3.3c.5.6 1.2 1 1.7 1.2.6.3 1.2.5 1.8.6 1.3.3 2.7.5 4.1.6l.3-5zm1.7 0c.2-.1.3-.2.3-.1-.1 0-.2 0-.3.1h-1.6l-.3 5c1 .1 1.9 0 2.7-.1.6-.1 1.4-.3 2-.7l-2.8-4.2zm-1.6-1.4a46.06 46.06 0 0 0 .5 3.9l4.9-.8-.5-3.6-4.9.5zm.1-10.7c-.3 2.6-.5 6.1-.1 10.7l5-.5c-.4-4.1-.2-7.3.1-9.6l-5-.6zm3.1-3.2l2.4.8c0-.1.1-.3.1-.4l-2.5-.4zm.2-1.6h2.5c0-1-.6-1.9-1.5-2.3a2.46 2.46 0 0 0-2.7.5l1.7 1.8zm-1.4 1.8l1.9 1.6c0-.1.1-.1.1-.2l-2-1.4zm-1.6 2.2l2.1 1.4-2.1-1.4zm-1.9 2.7l1.8 1.8.2-.2-2-1.6zm-.2.3l-1.8-1.8-.3.3 2.1 1.5zm-3 4.7l-2.1-1.3h0l2.1 1.3zM216 168l-2.1-1.4c-.1.1-.1.2-.2.3l2.3 1.1zm-.6.9l-1.8-1.8c-.1.1-.3.3-.4.5l2.2 1.3zm.7 2.8l1.8-1.8-.2-.2-1.6 2zm.1.1l1.9-1.7-.1-.1-1.8 1.8zm5.9 1.6l.1-2.5-.1 2.5zm3.1-.4l1.4 2.1c.8-.5 1.2-1.5 1.1-2.5l-2.5.4zm-.4-3.7l2.5-.2-2.5.2zm.1-10.2l2.5.3v-.1l-2.5-.2z" clip-path="url(#d)" class="C"/><defs><path id="e" d="M223.6 120.6c0 .1 0 .1 0 0-.4.5-.8 1.1-1.3 2.1-1.3 2.8-1.3 4.3-1.3 5.6 0 .7 0 1.2-.2 1.8-.1.4-.3.9-.6 1.4-.7 1.7-1.7 3.8-1.3 6.8-.6-.3-1.5-1-1.7-1.3 0-.2-.1-.3-.1-.5-.2-.9-.3-1.5.2-2.9 1.6-3.5 1.8-4.4 1.9-5.4 0-.2.1-.4.1-.7l.6-3.5c.2-1.5.4-2.5.9-3.2.2-.3.7-.4 1.4-.4.3 0 .6 0 1 .1h.1l.3.1z"/></defs><clipPath id="f"><use xlink:href="#e"/></clipPath><g class="C"><path d="M222.5 122.9c.1 0 .2.1.3.1 2.7-.7 3-3.5.8-2.4s-1.9-1.6.8-2.4c0 0-.1 0-.3-.1l-1.6 4.8zm.7.1h0l.1-5h-.1v5zm-.9-.1h.3.1l1.2-4.9c-.7-.2-1.3-.2-1.6-.2v5.1zm.7-.7c-.4.6-.9.7-.9.7-.1 0 0 0 .2 0v-5c-.4 0-1 0-1.5.2-.5.1-1.4.5-1.9 1.3l4.1 2.8zm-.5 2.1c.2-1.6.4-1.9.4-2l-4.1-2.9c-.9 1.3-1.1 2.9-1.3 4.3l5 .6zm-.7 3.7c.3-1.4.5-2.7.6-3.8l-5-.5-.5 3.3 4.9 1zm0 .2v.3-.1c0-.2.1-.5.1-.9h-5v-.2s0 .1-.1.3c0 .1-.1.3-.1.6h5.1zm-2.1 6.4c1.6-3.6 1.9-4.8 2.1-6.2l-5-.5c-.1.6-.1 1.1-1.7 4.7l4.6 2zm0 1.3c-.1-.4-.1-.5-.1-.6s0-.3.2-.8l-4.7-1.7c-.3.8-.5 1.6-.5 2.4s.1 1.4.2 1.9l4.9-1.2zm.1 1.1c0-.5-.2-1-.2-1 0-.1.1.2.1.5h-5a3.1 3.1 0 0 0 .2 1c0 .1-.1-.2-.1-.5h5zm.3-1s-.1-.1-.2-.1c-.1-.1-.2-.2-.3-.2-.1-.1-.2-.2-.3-.2 0 0 .1.1.1.2l-4.2 2.8c.2.3.5.6.6.7.2.2.4.3.6.5.4.3.9.6 1.4.9l2.3-4.6zm-2.1-5.5c-.7 1.6-1.9 4.4-1.4 8.1l5-.7c-.3-2.2.4-3.8 1.1-5.5l-4.7-1.9zm.5-1c0 .1-.1.4-.3.7l4.3 2.6c.4-.7.7-1.4.9-2.1l-4.9-1.2zm.1-1.2c0 .7 0 .8-.1 1l4.7 1.6c.3-1 .3-1.9.3-2.6h-4.9zm1.5-6.7c-1.5 3.2-1.5 5.2-1.5 6.7h5c0-1.1 0-2.2 1-4.6l-4.5-2.1zm1.6-2.6c-.5.6-1 1.4-1.6 2.5l4.5 2.2c.4-.9.7-1.3 1-1.6l-3.9-3.1zm-.6 1.6s0 .1 0 0c0 .1 0 .1 0 0 0 .1 0 .1 0 0 0 .1 0 .1 0 0 0 .1 0 .1 0 0 0 .1 0 .1 0 0 0 .1 0 .1 0 0 0 .1 0 .1 0 0 0 .1 0 .1 0 0 0 .1 0 .1 0 0 0 .1 0 .1 0 0 0 .1 0 .1 0 0 0 .1 0 .1 0 0 0 .1 0 .1 0 0 0 .1 0 .1 0 0 0 .1 0 .1 0 0 0 .1 0 .1 0 0 0 .1 0 .1 0 0 0 .1 0 .1 0 0 0 .1 0 .1 0 0 0 .1 0 .1 0 0 0 .1 0 .1 0 0 0 .1 0 .1 0 0 0 .1 0 .1 0 0 0 .1 0 .1 0 0 0 .1 0 .1 0 0 0 .1 0 .1 0 0 0 .1 0 .1 0 0 0 .1 0 .1 0 0 0 .1 0 .1 0 0 0 .1 0 .1 0 0 0 .1 0 .1 0 0 0 .1 0 .1 0 0 0 .1 0 .1 0 0 0 .1 0 .1 0 0 0 .1 0 .1 0 0 0 .1 0 .1 0 0 0 .1 0 .1 0 0 0 .1 0 .1 0 0 0 .1 0 .1 0 0 0 .1 0 .1 0 0 0 .1 0 .1 0 0 0 .1 0 .1 0 0 0 .1 0 .1 0 0 0 .1 0 .1 0 0 0 .1 0 .1 0 0 0 .1 0 .1 0 0 0 .1 0 .1 0 0 0 .1 0 .1 0 0 0 .1 0 .1 0 0 0 .1 0 .1 0 0 0 .1 0 .1 0 0 0 .1 0 .1 0 0 0 .1 0 .1 0 0 0 .1 0 .1 0 0 0 .1 0 .1 0 0 0 .1 0 .1 0 0 0 .1 0 .1 0 0 0 .1 0 .1 0 0 0 .1 0 .1 0 0 0 .1 0 .1 0 0 0 .1 0 .1 0 0 0 .1 0 .1 0 0 0 .1 0 .1 0 0 0 .1 0 .1 0 0 0 .1 0 .1 0 0 0 .1 0 .1 0 0 0 .1 0 .1 0 0 0 .1 0 .1 0 0 0 .1 0 .1 0 0 0 .1 0 .1 0 0 0 .1 0 .1 0 0 0 .1 0 .1 0 0 0 .1 0 .1 0 0 0 .1 0 .1 0 0 0 .1 0 .1 0 0 0 .1 0 .1 0 0 0 .1 0 .1 0 0 0 .1 0 .1 0 0 0 .1 0 .1 0 0 0 .1 0 .1 0 0 0 .1 0 .1 0 0 0 .1 0 .1 0 0 0 .1 0 .1 0 0 0 .1 0 .1 0 0 0 .1 0 .1 0 0 0 .1 0 .1 0 0 0 .1 0 .1 0 0 0 .1 0 .1 0 0 0 .1 0 .1 0 0 0 .1 0 .1 0 0 0 .1 0 .1 0 0 0 .1 0 .1 0 0 0 .1 0 .1 0 0 0 .1 0 .1 0 0 0 .1 0 .1 0 0 0 .1 0 .1 0 0 0 .1 0 .1 0 0 0 .1 0 .1 0 0 0 .1 0 .1 0 0 0 .1 0 .1 0 0 0 .1 0 .1 0 0 0 .1 0 .1 0 0 0 .1 0 .1 0 0 0 .1 0 .1 0 0 0 .1 0 .1 0 0 0 .1 0 .1 0 0 0 .1 0 .1 0 0 0 .1 0 .1 0 0 0 .1 0 .1 0 0 0 .1 0 .1 0 0 0 .1 0 .1 0 0 0 .1 0 .1 0 0 0 .1 0 .1 0 0 0 .1 0 .1 0 0 0 .1 0 .1 0 0 0 .1 0 .1 0 0 0 .1 0 .1 0 0 0 .1 0 .1 0 0 0 .1 0 .1 0 0h0c0 .1 0 .1 0 0 0 .1 0 .1 0 0h0c0 .1 0 .1 0 0h0 0c0 .1 0 .1 0 0 0 .1 0 .1 0 0 0 .1 0 .1 0 0 0 .1 0 .1 0 0 0 .1 0 .1 0 0h0c0 .1 0 .1 0 0 0 .1 0 .1 0 0 0 .1 0 .1 0 0h0c0 .1 0 .1 0 0h0 0 0 0 0c0 .1 0 .1 2.5.1h2.5 0 0 0 0 0 0 0 0 0 0 0-5v-.1s0 .1 0 0c0 .1 0 .1 0 0 0 .1 0 .1 0 0 0 .1 0 .1 0 0 0 .1 0 .1 0 0 0 .1 0 .1 0 0 0 .1 0 .1 0 0 0 .1 0 .1 0 0 0 .1 0 .1 0 0 0 .1 0 .1 0 0 0 .1 0 .1 0 0 0 .1 0 .1 0 0 0 .1 0 .1 0 0 0 .1 0 .1 0 0 0 .1 0 .1 0 0 0 .1 0 .1 0 0 0 .1 0 .1 0 0 0 .1 0 .1 0 0 0 .1 0 .1 0 0 0 .1 0 .1 0 0 0 .1 0 .1 0 0 0 .1 0 .1 0 0 0 .1 0 .1 0 0 0 .1 0 .1 0 0 0 .1 0 .1 0 0 0 .1 0 .1 0 0 0 .1 0 .1 0 0 0 .1 0 .1 0 0 0 .1 0 .1 0 0 0 .1 0 .1 0 0 0 .1 0 .1 0 0 0 .1 0 .1 0 0 0 .1 0 .1 0 0 0 .1 0 .1 0 0 0 .1 0 .1 0 0 0 .1 0 .1 0 0 0 .1 0 .1 0 0 0 .1 0 .1 0 0 0 .1 0 .1 0 0 0 .1 0 .1 0 0 0 .1 0 .1 0 0 0 .1 0 .1 0 0 0 .1 0 .1 0 0 0 .1 0 .1 0 0 0 .1 0 .1 0 0 0 .1 0 .1 0 0 0 .1 0 .1 0 0 0 .1 0 .1 0 0 0 .1 0 .1 0 0 0 .1 0 .1 0 0 0 .1 0 .1 0 0 0 .1 0 .1 0 0 0 .1 0 .1 0 0 0 .1 0 .1 0 0 0 .1 0 .1 0 0 0 .1 0 .1 0 0 0 .1 0 .1 0 0 0 .1 0 .1 0 0 0 .1 0 .1 0 0 0 .1 0 .1 0 0 0 .1 0 .1 0 0 0 .1 0 .1 0 0 0 .1 0 .1 0 0 0 .1 0 .1 0 0 0 .1 0 .1 0 0 0 .1 0 .1 0 0 0 .1 0 .1 0 0 0 .1 0 .1 0 0 0 .1 0 .1 0 0 0 .1 0 .1 0 0 0 .1 0 .1 0 0 0 .1 0 .1 0 0 0 .1 0 .1 0 0 0 .1 0 .1 0 0 0 .1 0 .1 0 0 0 .1 0 .1 0 0 0 .1 0 .1 0 0 0 .1 0 .1 0 0 0 .1 0 .1 0 0 0 .1 0 .1 0 0 0 .1 0 .1 0 0 0 .1 0 .1 0 0 0 .1 0 .1 0 0 0 .1 0 .1 0 0 0 .1 0 .1 0 0 0 .1 0 .1 0 0 0 .1 0 .1 0 0 0 .1 0 .1 0 0 0 .1 0 .1 0 0 0 .1 0 .1 0 0 0 .1 0 .1 0 0 0 .1 0 .1 0 0 0 .1 0 .1 0 0 0 .1 0 .1 0 0 0 .1 0 .1 0 0 0 .1 0 .1 0 0 0 .1 0 .1 0 0 0 .1 0 .1 0 0 0 .1 0 .1 0 0 0 .1 0 .1 0 0 0 .1 0 .1 0 0 0 .1 0 .1 0 0 0 .1 0 .1 0 0 0 .1 0 .1 0 0 0 .1 0 .1 0 0 0 .1 0 .1 0 0 0 .1 0 .1 0 0 0 .1 0 .1 0 0 0 .1 0 .1 0 0 0 .1 0 .1 0 0 0 .1 0 .1 0 0 0 .1 0 .1 0 0 0 .1 0 .1 0 0 0 .1 0 .1 0 0 0 .1 0 .1 0 0 0 .1 0 .1 0 0 0 .1 0 .1 0 0 0 .1 0 .1 0 0 0 .1 0 .1 0 0 0 .1 0 .1 0 0h0c0 .1 0 .1 0 0 0 .1 0 .1 0 0h0c0 .1 0 .1 0 0h0 0c0 .1 0 .1 0 0 0 .1 0 .1 0 0 0 .1 0 .1 0 0 0 .1 0 .1 0 0 0 .1 0 .1 0 0h0c0 .1 0 .1 0 0 0 .1 0 .1 0 0 0 .1 0 .1 0 0h0c0 .1 0 .1 0 0h0 0 0 0 0c0 .1 0 .1 2.5.1h2.5 0 0 0 0 0 0 0 0 0 0 0-5zm2.2-.1l.8-2.4c-.3-.1-.5-.1-.8-.1v2.5zm-.1 0l-.6 2.4c.2 0 .4.1.6.1v-2.5zm-2.3.3l2 1.5v-.1l-2-1.4zm-.9 3.1l-2.5-.3v.1l2.5.2zm-.6 3.6l-2.4-.5c0 .2-.1.3-.1.5h2.5zm-.1.7l2.5.2v-.2h-2.5zm-1.9 5.4l-2.3-1c0 .1 0 .1-.1.2l2.4.8zm-.2 2.9h2.5c0-.2 0-.4-.1-.5l-2.4.5zm.1.5h-2.5c0 .5.1 1 .4 1.4l2.1-1.4zm1.7 1.2l-1.1 2.2c.8.4 1.8.3 2.6-.2s1.1-1.4 1-2.4l-2.5.4zm1.3-6.8l-2.1-1.3c-.1.1-.1.2-.2.3l2.3 1zm.6-1.3l-2.4-.8c0 .1 0 .1-.1.2l2.5.6zm1.5-7.4l-2.2-1.1v.1l2.2 1z" clip-path="url(#f)"/><path d="M221.7 155.8c-.1-.9-.2-1.7-.6-2.6 0 0-.1-.2-.1-.3-.1-.1-.1-.2-.2-.3l-.1-.1c-.1-.1-.1-.1-.2-.1l-.1-.1c-.1 0-.1-.1-.2-.1h-.1c-.5-.2-1-.4-1.6-.5h-.2-.2-.1c-.1 0-.2.1-.4.1-.1 0-.1.1-.2.1l-.1.1-.2.2-.1.1v.1l-.6.9-1.5 2.2-1.4 2-.8 1.1c0 .1-.1.1-.1.2.3.1.6.1.9.2l2 .3c1.4.2 2.9.3 4.2.2h.2c.3-.5.8-1.1 1.3-1.9.3-.4.6-.8.8-1.2-.2-.1-.3-.4-.3-.6z"/></g><defs><path id="g" d="M221.7 155.8c-.1-.9-.2-1.7-.6-2.6 0 0-.1-.2-.1-.3-.1-.1-.1-.2-.2-.3l-.1-.1c-.1-.1-.1-.1-.2-.1l-.1-.1c-.1 0-.1-.1-.2-.1h-.1c-.5-.2-1-.4-1.6-.5h-.2-.2-.1c-.1 0-.2.1-.4.1-.1 0-.1.1-.2.1l-.1.1-.2.2-.1.1v.1l-.6.9-1.5 2.2-1.4 2-.8 1.1c0 .1-.1.1-.1.2.3.1.6.1.9.2l2 .3c1.4.2 2.9.3 4.2.2h.2c.3-.5.8-1.1 1.3-1.9.3-.4.6-.8.8-1.2-.2-.1-.3-.4-.3-.6z"/></defs><clipPath id="h"><use xlink:href="#g"/></clipPath><g class="C"><path d="M222.9 154a2.55 2.55 0 0 1 1.1.9c.2.3.2.6.2.9h-5c0 .8.4 2.4 2.1 3l1.6-4.8zm.4 5c.3-.3.7-.9 1-1.6l-4.5-2.2c-.1.2-.2.4-.6.8l4.1 3zm-1.2 1.7c.1-.1.2-.3.5-.7l.8-1.2-4.2-2.6-.6.9c-.2.3-.5.6-.7 1l4.2 2.6zm-2.3 1.2h0 0 0 0 0 0 0 0 0 0 0 0 0 0 0 0 0 0 0 0 0 0 0 0 0 0 0 0 0 0 0 0 0 0 0 0 0 0 0 0 0 0 0 0 0 0 0 0 0 0 0 0 0 0 0 0 0 0 0 0 0 0 0 0 0 0 0 0 0 0 0 0 0 0 0 0 0 0 0 0 0 0 0 0 0 0 0 0 0 0 0 0 0 0 0 0 0 0 0 0 0 0 0 0 0 0 0 0 0 0 0 0 0 0 0 0 0 0 0 0 0 0 0 0 0 0 0 0 0 0 0 0 0 0 0 0 0 0 0 0 0 0 0 0 0 0 .1v-5 5zm-4.6-.2c1.5.2 3.2.3 4.8.2l-.4-5c-1.2.1-2.4 0-3.7-.2l-.7 5zm-2-.3l1.9.3.8-4.9-2-.3-.7 4.9zm-1.3-.3l.8.2h.1l1.6-4.7-.8-.2h-.1l-1.6 4.7zm-1.6-2.6c0-.2 0-.4.1-.6l.3-.6c.1-.2.2-.3.3-.3l.1-.1-.1.1c-.1.1-.2.2-.3.4l-.3.6c-.1.2-.1.5-.1.7h5c0 .2 0 .4-.1.6l-.3.6c-.1.2-.2.3-.3.3l-.1.1.1-.1c.1-.1.2-.2.3-.4l.3-.6c.1-.2.1-.5.1-.7h-5zm1.3-2.6c-.2.2-.3.4-.4.6s-.2.3-.4.5l4 3c.2-.2.3-.4.4-.6s.2-.3.4-.5l-4-3zm1.3-1.9l-.7 1-.7 1 4.1 2.9.7-1 .7-1-4.1-2.9zm1.5-2.1c-.3.4-.5.8-.8 1.2l-.7 1 4.1 2.9c.3-.4.5-.8.8-1.2l.7-1-4.1-2.9zm.6-.9c-.1.1-.2.3-.3.4s-.2.3-.3.4l4.2 2.8c.1-.1.2-.3.3-.4s.2-.3.3-.4L215 151zm-.5 1.3h0l5 .1v-.1h-5zm.9-1.8h0l3.4 3.6.1-.1-3.5-3.5zm.2-.2c-.1 0-.1 0 0 0l-.2.2 3.5 3.5.1-.1.1-.1-3.5-3.5zm.1-.1h0l3.4 3.6.1-.1-3.5-3.5zm1.9-.9c-.2 0-.5 0-.7.1s-.5.2-.6.3a1.38 1.38 0 0 0-.4.3l-.1.1.1-.1.3-.3.6-.3c.2-.1.4-.1.6-.1v5c.2 0 .5 0 .7-.1s.5-.2.6-.3a1.38 1.38 0 0 0 .4-.3l.1-.1-.1.1-.3.3-.6.3c-.2.1-.4.1-.6.1v-5zm.4-.1c-.4 0-.8.1-.9.2-.1 0-.1.1-.2.1 0 0 .1 0 .2-.1.1 0 .3-.1.5-.1v5c.3 0 .5 0 .7-.1.2 0 .4-.1.4-.1h-.1c-.1 0-.4.1-.8.1v-5zm.1 0h0l-.1 5h.1v-5zm.2 0c-.1 0-.1 0 0 0-.1 0-.1 0 0 0-.1 0-.1 0 0 0-.1 0-.1 0 0 0-.1 0-.1 0 0 0-.1 0-.1 0 0 0-.1 0-.1 0 0 0-.1 0-.1 0 0 0-.1 0-.1 0 0 0-.1 0-.1 0 0 0-.1 0-.1 0 0 0-.1 0-.1 0 0 0-.1 0-.1 0 0 0-.1 0-.1 0 0 0-.1 0-.1 0 0 0-.1 0-.1 0 0 0-.1 0-.1 0 0 0-.1 0-.1 0 0 0-.1 0-.1 0 0 0-.1 0-.1 0 0 0-.1 0-.1 0 0 0-.1 0-.1 0 0 0-.1 0-.1 0 0 0-.1 0-.1 0 0 0-.1 0-.1 0 0 0-.1 0-.1 0 0 0-.1 0-.1 0 0 0-.1 0-.1 0 0 0-.1 0-.1 0 0 0-.1 0-.1 0 0 0-.1 0-.1 0 0 0-.1 0-.1 0 0 0-.1 0-.1 0 0 0-.1 0-.1 0 0 0-.1 0-.1 0 0 0-.1 0-.1 0 0 0-.1 0-.1 0 0 0-.1 0-.1 0 0 0-.1 0-.1 0 0 0-.1 0-.1 0 0 0-.1 0-.1 0 0 0-.1 0-.1 0 0 0-.1 0-.1 0 0 0-.1 0-.1 0 0 0-.1 0-.1 0 0 0-.1 0-.1 0 0 0-.1 0-.1 0 0 0-.1 0-.1 0 0 0-.1 0-.1 0 0 0-.1 0-.1 0 0 0-.1 0-.1 0 0 0-.1 0-.1 0 0 0-.1 0-.1 0 0 0-.1 0-.1 0 0 0-.1 0-.1 0 0 0-.1 0-.1 0 0 0-.1 0-.1 0 0 0-.1 0-.1 0 0 0-.1 0-.1 0 0 0-.1 0-.1 0 0 0-.1 0-.1 0 0 0-.1 0-.1 0 0 0-.1 0-.1 0 0 0-.1 0-.1 0 0 0-.1 0-.1 0 0 0-.1 0-.1 0 0 0-.1 0-.1 0 0 0-.1 0-.1 0 0 0-.1 0-.1 0 0 0-.1 0-.1 0 0 0-.1 0-.1 0 0 0-.1 0-.1 0 0 0-.1 0-.1 0 0 0-.1 0-.1 0 0 0-.1 0-.1 0 0 0-.1 0-.1 0 0 0-.1 0-.1 0 0 0-.1 0-.1 0 0 0-.1 0-.1 0 0 0-.1 0-.1 0 0 0-.1 0-.1 0 0 0-.1 0-.1 0 0 0-.1 0-.1 0 0 0-.1 0-.1 0 0 0-.1 0-.1 0 0 0-.1 0-.1 0 0 0-.1 0-.1 0 0 0-.1 0-.1 0 0 0-.1 0-.1 0 0 0-.1 0-.1 0 0 0-.1 0-.1 0 0 0-.1 0-.1 0 0 0-.1 0-.1 0 0 0-.1 0-.1 0 0 0-.1 0-.1 0 0 0-.1 0-.1 0 0 0-.1 0-.1 0 0 0-.1 0-.1 0 0 0-.1 0-.1 0 0 0-.1 0-.1 0 0 0-.1 0-.1 0 0 0-.1 0-.1 0 0 0-.1 0-.1 0 0 0-.1 0-.1 0 0 0h-.1v5-5zm.2 0s-.1 0 0 0c-.1 0-.1 0 0 0-.1 0-.1 0 0 0-.1 0-.1 0 0 0-.1 0-.1 0 0 0-.1 0-.1 0 0 0-.1 0-.1 0 0 0-.1 0-.1 0 0 0-.1 0-.1 0 0 0-.1 0-.1 0 0 0-.1 0-.1 0 0 0-.1 0-.1 0 0 0-.1 0-.1 0 0 0-.1 0-.1 0 0 0-.1 0-.1 0 0 0-.1 0-.1 0 0 0-.1 0-.1 0 0 0-.1 0-.1 0 0 0-.1 0-.1 0 0 0-.1 0-.1 0 0 0-.1 0-.1 0 0 0-.1 0-.1 0 0 0-.1 0-.1 0 0 0-.1 0-.1 0 0 0-.1 0-.1 0 0 0-.1 0-.1 0 0 0-.1 0-.1 0 0 0-.1 0-.1 0 0 0-.1 0-.1 0 0 0-.1 0-.1 0 0 0-.1 0-.1 0 0 0-.1 0-.1 0 0 0-.1 0-.1 0 0 0-.1 0-.1 0 0 0-.1 0-.1 0 0 0-.1 0-.1 0 0 0-.1 0-.1 0 0 0-.1 0-.1 0 0 0-.1 0-.1 0 0 0-.1 0-.1 0 0 0-.1 0-.1 0 0 0-.1 0-.1 0 0 0-.1 0-.1 0 0 0-.1 0-.1 0 0 0-.1 0-.1 0 0 0-.1 0-.1 0 0 0-.1 0-.1 0 0 0-.1 0-.1 0 0 0-.1 0-.1 0 0 0-.1 0-.1 0 0 0-.1 0-.1 0 0 0-.1 0-.1 0 0 0-.1 0-.1 0 0 0-.1 0-.1 0 0 0-.1 0-.1 0 0 0-.1 0-.1 0 0 0-.1 0-.1 0 0 0-.1 0-.1 0 0 0-.1 0-.1 0 0 0-.1 0-.1 0 0 0-.1 0-.1 0 0 0-.1 0-.1 0 0 0-.1 0-.1 0 0 0-.1 0-.1 0 0 0-.1 0-.1 0 0 0h-.1 0 0 0 0 0v2.5 2.5h0 0 0 0 0v-5zm2.5.7c-.5-.2-1.2-.5-2.1-.6l-.8 4.9c.3 0 .5.1 1.1.3l1.8-4.6zm-.8-.2h0l-.1 5h.1v-5zm.2.1c.2 0 .4 0 .6.1l.6.3c.2.1.3.2.3.3l.1.1-.1-.1c-.1-.1-.2-.2-.4-.3l-.6-.3c-.2-.1-.5-.1-.7-.1v5c-.2 0-.4 0-.6-.1l-.6-.3c-.2-.1-.3-.2-.3-.3l-.1-.1.1.1a1.38 1.38 0 0 0 .4.3l.6.3c.2.1.5.1.7.1v-5zm1.9.9h0l-3.6 3.4.1.1 3.5-3.5zm.2.1s-.1-.1-.2-.1c-.1-.1-.3-.3-.6-.4-.3-.2-.7-.2-.9-.3h-.2-.1v5c.1 0-.1 0-.2 0-.2 0-.5-.1-.8-.2s-.5-.3-.5-.3-.1-.1 0 0l3.5-3.7zm0 .1h0l-3.6 3.4.1.1 3.5-3.5zm.2.2c.1.1.2.3.3.4 0 .1.1.1.1.1v-.1s-.1-.1-.1-.2c-.1-.2-.2-.3-.4-.5l-3.5 3.5c-.1-.1-.2-.3-.3-.4 0-.1-.1-.1-.1-.1v.1s.1.1.1.2c.1.2.2.3.4.5l3.5-3.5zm-1.6 2.1l2.2-1.1v.1a2.18 2.18 0 0 0 .1.6h-5c0 .4.1.7.1.8s.1.3.1.3c0 .1.1.2.1.2v.1c.1.1.1.1 2.4-1zm3.1 2.3c-.1-.9-.2-2-.8-3.3l-4.6 2c.2.5.3.9.4 1.8l5-.5zm-2.1.9l2.2 1.1c.3-.6.4-1.4.1-2.1s-.8-1.2-1.5-1.4l-.8 2.4zm-.8 1.1l-2-1.5c0 .1-.1.1-.1.2l2.1 1.3zm-1.3 1.9v2.5c.9 0 1.7-.5 2.1-1.2l-2.1-1.3zm-.2 0v-2.5h-.2l.2 2.5zm-4.2-.2l-.4 2.5h.1l.3-2.5zm-2-.3l-.8 2.4c.1 0 .3.1.4.1l.4-2.5zm-.9-.2h-2.5c0 1.1.7 2 1.7 2.4l.8-2.4zm.1-.2l-2-1.5c-.3.4-.5 1-.5 1.5h2.5zm.8-1.1l2 1.5-2-1.5zm2.8-4.1l2 1.5v-.1l-2-1.4zm.6-.9l2.1 1.4c.3-.4.4-.9.4-1.4H217zm0-.1l-1.8-1.8c-.5.5-.7 1.1-.7 1.8h2.5zm.1-.1l-1.8-1.8 1.8 1.8zm.2-.2l-1.8-1.8h0l1.8 1.8zm.1-.1v-2.5c-.7 0-1.3.3-1.8.7l1.8 1.8zm1.1-.2l.4-2.5h-.4v2.5zm1.6.5l-.9 2.3c.3.1.6.2.9.2v-2.5zm.3.1l1.8-1.8c-.5-.5-1.1-.7-1.8-.7v2.5zm.1.1l-1.8 1.8c.5.5 1.1.7 1.8.7v-2.5zm.2.1l1.8-1.8-1.8 1.8zm.1.1l-1.8 1.8 1.8-1.8zm.2.3h2.5c0-.7-.3-1.3-.7-1.8l-1.8 1.8zm.1.3l2.3-1v-.1l-2.3 1.1zm.6 2.6h2.5v-.3l-2.5.3z" clip-path="url(#h)"/><path d="M216.6 161.6c-.1 1.1-1.3 3.8-3.2 6.5-1.6 2.2-2.6 2.8-2.8 2.8-.8-.1-1.5-2-2.1-3.8-.2-.8-.5-1.5-.6-2.2-.4-1.4-.5-3.3-.4-4.5 1.6.9 4.3 1.1 8.3 1.1.3 0 .6 0 .8.1z"/></g><defs><path id="i" d="M216.6 161.6c-.1 1.1-1.3 3.8-3.2 6.5-1.6 2.2-2.6 2.8-2.8 2.8-.8-.1-1.5-2-2.1-3.8-.2-.8-.5-1.5-.6-2.2-.4-1.4-.5-3.3-.4-4.5 1.6.9 4.3 1.1 8.3 1.1.3 0 .6 0 .8.1z"/></defs><clipPath id="j"><use xlink:href="#i"/></clipPath><g class="C"><path d="M214.8 163.6c.3.1.5.2.6.2s.3.1.3.1h0s-.2 0-.3-.1l2.2-4.5c-.3-.1-.5-.2-.6-.2s-.3-.1-.3-.1c-.1 0-.1 0 0 0 0 0 .2 0 .3.1l-2.2 4.5zm-8.3-1.1c1.2.7 2.7 1 4.2 1.2s3.3.2 5.3.2v-5c-1.9 0-3.5 0-4.7-.2-1.3-.1-2-.4-2.3-.6l-2.5 4.4zm4 1.6c-.3-1-.4-2.7-.3-3.6l-5-.4c-.1 1.4 0 3.7.5 5.4l4.8-1.4zm.6 2.3c-.1-.5-.3-1-.4-1.3s-.2-.5-.2-.7l-4.9.7.3 1.4.3 1 4.9-1.1zm-.1 2c.4 0 .6.2.8.3l.2.2s-.1-.1-.2-.4c-.3-.5-.5-1.3-.8-2.3l-4.8 1.5 1.1 2.9c.2.4.5 1 .9 1.4a3.28 3.28 0 0 0 2.2 1.2l.6-4.8zm.5-1.8c-.7 1-1.2 1.5-1.5 1.8-.2.1-.2.2-.2.2s.1 0 .2-.1c.1 0 .1-.1.3-.1.1 0 .3-.1.6-.1v5c.5 0 .9-.2 1.1-.2.2-.1.4-.2.5-.3.3-.2.6-.4.9-.7.6-.6 1.4-1.4 2.3-2.6l-4.2-2.9zm2.7-5.2s0 .1-.1.5l-.5 1.3c-.5 1-1.2 2.3-2 3.5l4.1 2.9c1-1.5 1.9-2.9 2.5-4.2.6-1.2 1-2.5 1.1-3.5l-5.1-.5zm1.8 0l1.1-2.2c-.3-.2-.7-.3-1.1-.3v2.5zm-8.3-1.1l1.2-2.2c-.7-.4-1.6-.4-2.4 0s-1.2 1.2-1.3 2l2.5.2zm.4 4.5l2.5-.4c0-.1 0-.2-.1-.3l-2.4.7zm.6 2.2l-2.4.6v.1l2.4-.7zm2 3.8l-.3 2.5h.3v-2.5zm2.8-2.7l2 1.5-2-1.5zm3.1-6.5l2.5.2c.1-1-.5-2-1.4-2.5l-1.1 2.3z" clip-path="url(#j)"/><path d="M213.5 153.1l-2.1 3.1-1.1 1.5c-.2.3-.5.6-.7.9-.6-.1-1.1-.3-1.7-.4-.5-.1-.9-.3-1.4-.5-.1 0-.2-.1-.3-.1-.1-.1-.2-.3-.3-.4.2-.3.3-.7.5-1l1-1.8c.6-1 1.3-2.1 2.4-2.8.1 0 .1-.1.2-.1.4-.2.8-.4 1.3-.5h.6.1.1c.1 0 .2.1.4.1 0 0 .1 0 .1.1.1.1.2.1.3.2-.2-.1.2.3.2.2.2.6.3.9.4 1.5z"/></g><defs><path id="k" d="M213.5 153.1l-2.1 3.1-1.1 1.5c-.2.3-.5.6-.7.9-.6-.1-1.1-.3-1.7-.4-.5-.1-.9-.3-1.4-.5-.1 0-.2-.1-.3-.1-.1-.1-.2-.3-.3-.4.2-.3.3-.7.5-1l1-1.8c.6-1 1.3-2.1 2.4-2.8.1 0 .1-.1.2-.1.4-.2.8-.4 1.3-.5h.6.1.1c.1 0 .2.1.4.1 0 0 .1 0 .1.1.1.1.2.1.3.2-.2-.1.2.3.2.2.2.6.3.9.4 1.5z"/></defs><clipPath id="l"><use xlink:href="#k"/></clipPath><g class="C"><path d="M210.7 152.4c.2.6.2.7.3 1.1l4.9-.8c-.1-.8-.3-1.2-.5-1.9l-4.7 1.6zm3.3-3.2c-.1 0-.2-.1-.4-.2-.1 0-.6-.2-1.1-.1-.3 0-.8.2-1.3.6s-.7.9-.8 1.4c-.1.4 0 .8 0 1s.1.4.2.5c.1.3.3.6.4.6l.2.2c.1.1.3.3.5.4.1 0 .2.1.3.2s.4.2.8.2 1.2 0 2-.6a2.68 2.68 0 0 0 .8-1.9h-5c0-.4.1-1.2.8-1.8.7-.7 1.6-.7 1.9-.6.4 0 .6.2.7.2.1.1.2.1.3.2.2.1.3.2.3.2l.1.1s.2.2.3.6c0 .1.1.3.1.5s.1.5 0 1-.3 1-.8 1.4-.9.5-1.3.6h-.7c-.2 0-.3-.1-.4-.1-.2-.1-.3-.1-.3-.1l2.4-4.5zm-3.2 3.8c.2.2.4.3.5.4.1 0 .1.1.2.1h.1s-.1 0-.1-.1a1.38 1.38 0 0 0-.4-.3l3.5-3.5c-.2-.2-.4-.3-.5-.4-.1 0-.1-.1-.2-.1h-.1s.1 0 .1.1c.1.1.2.2.4.3l-3.5 3.5zm1.7-1.9v2.5h-.1-.2c-.2 0-.4-.1-.7-.2s-.6-.4-.9-.8-.4-.9-.4-1.3h5c0-.5-.1-1-.4-1.4-.3-.5-.7-.7-1-.9l-.7-.2h-.2-.1c-.3-.2-.3-.2-.3 2.3zm-.4 2.4c-.4 0-.7-.1-.8-.1h-.1c.1 0 .2.1.4.1.2.1.5.1.7.1v-5c.2 0 .3 0 .5.1.1 0 .2.1.2.1s-.1 0-.2-.1c-.1 0-.5-.2-.9-.2v5zm-.1-2.5v2.5h0 0 0 0 0 0 0 0 0 0 0 0 0 0 0 0 0 0 0 0 0 0 0 0 0 0 0 0 0 0 0 0 0 0 0 0 0 0 0 0 0 0 0 0 0 0 0 0 0 0 0 0 0 0 0 0 0v-5h0 0 0 0 0 0 0 0 0 0 0 0 0 0 0 0 0 0 0 0 0 0 0 0 0 0 0 0 0 0 0 0 0 0 0 0 0 0 0 0 0 0 0 0 0 0 0 0 0 0 0 0 0 0 0 0 0 0v2.5zm-.1 2.5h0l.1-5h-.1v5zm-.6 0h0 0 0 0 0 0 0 0 0 0 0 0 0 0 0 0 0 0 0 0 0 0 0 0 0 0 0 0 0 0 0 0 0 0 0 0 0 0 0 0 0 0 0 0 0 0 0 0 0 0 0 0 0 0 0 0 0 0 0 0 0 0 0 0 0 0 0 0 0 0 0 0 0 0 0 0 0 0 .1v-5 5zm-.1.2c.4-.2.5-.3.7-.3l-1-4.9c-.9.2-1.5.5-1.9.7l2.2 4.5zm-1.4.4c.2 0 .5 0 .7-.1s.5-.2.6-.3a1.38 1.38 0 0 0 .4-.3l.1-.1-.1.1-.3.3-.6.3c-.2.1-.4.1-.6.1v-5c-.2 0-.5 0-.7.1s-.5.2-.6.3a1.38 1.38 0 0 0-.4.3l-.1.1.1-.1.3-.3.6-.3c.2-.1.4-.1.6-.1v5zm-.2 1.5c.6-1 1-1.6 1.6-1.9l-2.7-4.2c-1.6 1-2.6 2.6-3.2 3.6l4.3 2.5zm-.9 1.6c.3-.6.5-1.1.8-1.5l-4.2-2.8a10.35 10.35 0 0 0-1.1 2l4.5 2.3zm-.6 1.3c.1-.2.2-.4.3-.5s.1-.3.2-.4c0-.1.1-.1.1-.2v.1l-4.2-2.8c-.1.2-.2.4-.3.5s-.1.3-.2.4c0 .1-.1.1-.1.2v-.1l4.2 2.8zm0-2.8l.2.2c-.1 0-.1-.1-.2-.2 0-.1-.1-.2-.3-.4l-3.5 3.5-.2-.2s.1.1.1.2c.1.1.2.2.3.4l3.6-3.5zm-1.5-.6c.2 0 .4 0 .5.1.1 0 .2.1.3.1s.1.1.1.1h-.1s-.1-.1-.2-.1-.2-.1-.4-.1-.4-.1-.6-.1v5c-.2 0-.4 0-.5-.1-.1 0-.2-.1-.3-.1s-.1-.1-.1-.1h.1s.1.1.2.1.2.1.4.1.4.1.6.1v-5zm1.9.5c-.2 0-.2-.1-.9-.4l-1.9 4.6c.3.1 1 .5 1.8.6l1-4.8zm1.6.4c-.2 0-.3-.1-.6-.1a8.11 8.11 0 0 0-1.1-.3l-.8 4.9c.2 0 .3.1.6.1a8.11 8.11 0 0 0 1.1.3l.8-4.9zm-1.8.2s-.1 0 0 0c-.1.1-.1.2-.2.2-.1.1-.3.4-.5.7l4.2 2.8v-.1s.1-.1.1-.2c.1-.1.3-.4.5-.7l-4.1-2.7zm1.2-1.6c-.3.3-.5.6-.6.9-.2.3-.3.4-.4.6l3.9 3.1c.3-.3.5-.6.6-.9.2-.3.3-.4.4-.6l-3.9-3.1zm1.9-2.9l-2 3 4.1 2.9 2.1-3.1-4.2-2.8zm1.7-.1l2.4-.8a2.52 2.52 0 0 0-2.8-1.7c-1.2.2-2.1 1.2-2.1 2.5h2.5zm-.2-.2l-1.1 2.2c1.1.5 2.4.2 3.1-.8s.6-2.4-.3-3.2l-1.7 1.8zm-.3-.2h-2.5c0 .7.3 1.3.7 1.8l1.8-1.8zm-.1-.1v2.5h0v-2.5zm-1.2-.1v-2.5h-.5l.5 2.5zm-1.3.5v2.5c.4 0 .8-.1 1.1-.3l-1.1-2.2zm-.2.1v-2.5c-.5 0-.9.1-1.3.4l1.3 2.1zm-2.3 2.7l2.1 1.4s0-.1.1-.1l-2.2-1.3zm-1 1.8l2.1 1.4c.1-.1.1-.2.2-.3l-2.3-1.1zm-.5 1l-2.1-1.4c-.7 1-.5 2.3.3 3.2l1.8-1.8zm.3.4l-1.8 1.8c.5.5 1.1.7 1.8.7v-2.5zm.3.1l.9-2.3c-.3-.1-.6-.2-.9-.2v2.5zm1.4.5l-.5 2.5h.1l.4-2.5zm1.6.4l-.4 2.5c1 .2 1.9-.3 2.5-1.1l-2.1-1.4zm.7-.9l-2-1.6c0 .1-.1.1-.1.2l2.1 1.4zm1.1-1.5l2 1.6.1-.1-2.1-1.5zm2.1-3l2.1 1.3c.3-.5.5-1.1.4-1.8l-2.5.5z" clip-path="url(#l)"/><path d="M208.6 149.9c-1.3 1-2.2 2.4-2.9 3.8l-1.2 2.4c0 .1-.1.2-.1.2l-1.1-.3c-.4-.1-.8-.3-1.2-.4-.2-.1-.3-.2-.5-.3l1.3-2.1 2-2.7c.3-.3.6-.7.9-.9.4-.2.8-.2 1.3-.1s1 .1 1.5.4c-.2-.1-.1 0 0 0z"/></g><defs><path id="m" d="M208.6 149.9c-1.3 1-2.2 2.4-2.9 3.8l-1.2 2.4c0 .1-.1.2-.1.2l-1.1-.3c-.4-.1-.8-.3-1.2-.4-.2-.1-.3-.2-.5-.3l1.3-2.1 2-2.7c.3-.3.6-.7.9-.9.4-.2.8-.2 1.3-.1s1 .1 1.5.4c-.2-.1-.1 0 0 0z"/></defs><clipPath id="n"><use xlink:href="#m"/></clipPath><g class="C"><path d="M208.5 147.3c-.2 0-.6 0-1 .2-.5.2-1.1.6-1.4 1.5a2.37 2.37 0 0 0 .1 1.9c.2.4.4.6.5.7.5.5 1.1.8 1.9.8l-.1-5.1c.8.1 1.3.4 1.7.8.1.1.3.4.5.7s.4 1 .1 1.8c-.3.9-1 1.3-1.4 1.5s-.8.2-.9.2v-5zm-1.4 4.8h.3.2s-.1 0-.2-.1l2.2-4.5c-1-.5-2.2-.5-2.5-.5v5.1zm-.2-.2c-.1 0-.1.1-.2.1h-.2c-.1 0-.1 0 0 0l1-4.9c-.8-.2-1.8-.2-2.9.3l2.3 4.5zm-.2.4l.3-.3c.1-.1.1-.2.2-.2l.1-.1-.1.1-2.8-4.2c-.4.3-.7.6-.9.8-.1.1-.2.2-.2.3l-.1.1 3.5 3.5zm-1.7 2.3c.6-.9 1.2-1.7 1.8-2.4l-3.8-3.3c-.8.9-1.6 2-2.2 2.9l4.2 2.8zm-1.1 1.9l1.1-1.9-4.1-2.9c-.6.8-1 1.6-1.4 2.3l4.4 2.5zm-.6-3.2c0 .1.1.1 0 0-.1 0-.2-.2-.5-.3l-2.2 4.5c-.1 0-.1-.1 0 0 .1 0 .3.2.5.3l2.2-4.5zm.7.2s-.1 0-.3-.1-.5-.2-.9-.3l-1.2 4.9s.1 0 .3.1.5.2.9.3l1.2-4.9zm1 .3c-.4-.1-.7-.2-.9-.2l-1.6 4.7c.4.1.9.3 1.3.3l1.2-4.8zm-3 2.3c0-.4.1-.7.2-.9s.2-.3.2-.4c.1-.1.1-.1.1-.2l.1-.1 1.8 1.8 1.8 1.8.1-.1c.1-.1.1-.2.2-.3.1-.2.5-.7.5-1.5h-5zm1.5-3.5c-.1.1 0 0 0 0-.1.1-.1.1 0 0 0 .1-.1.1-.1.1v.1c0 .1 0 0 0 0l-.3.6c-.1.2-.1.1-.1.3-.1.2 0 0-.1.1h0v.1c-.1.1 0 0 0 .1-.1.2 0 0-.1.1v.1l4.5 2.2v-.1-.1c0-.1 0 0 0 0 0-.1 0 0 0 0l.3-.6.3-.6v-.1c.1-.1 0 0 0-.1.1-.1 0 .1 0-.1v-.1l.1-.1-4.5-1.9zm3.6-4.7c-1.7 1.3-2.8 3.1-3.6 4.8l4.5 2.1c.6-1.3 1.3-2.3 2.1-2.9l-3-4zm1.4 1.9v2.5c1.2 0 2.2-.8 2.4-1.9.3-1.1-.3-2.3-1.3-2.8l-1.1 2.2zm-1.4-.2l-.5 2.5h.5v-2.5zm-1.3.1l-1.1-2.2c-.1 0-.2.1-.3.2l1.4 2zm-.9.8l-1.8-1.8-.1.1 1.9 1.7zm-1.9 2.7l2 1.5v-.1l-2-1.4zm-1.3 2.1l-2.2-1.2c-.3.6-.4 1.3-.2 2s.7 1.2 1.3 1.5l1.1-2.3zm.5.3l-1.1 2.2c.2.1.3.1.5.2l.6-2.4zm1.2.4l.8-2.4c-.1 0-.1 0-.2-.1l-.6 2.5zm1 .3l-.6 2.4c.9.2 1.8 0 2.4-.7l-1.8-1.7zm.1-.2l-2.2-1.1c-.2.3-.3.7-.3 1.1h2.5zm1.2-2.4l2.2 1.1v-.1l-2.2-1zm2.9-3.8l1.5 2c.8-.7 1.2-1.8.8-2.8s-1.3-1.7-2.4-1.7v2.5z" clip-path="url(#n)"/><path d="M206.6 166.6l-.2.2h-.1c-.3 0-.6.1-.9.1-.6 0-1.2.1-1.8 0-.3 0-.6-.1-.8-.3-.2-.3-.3-.9-.4-1.3-.4-2.2-.4-4.3-.2-6.5 1.1.4 2.3.7 3.4.9-.3 2 .2 4.8.4 5.6.4.4.5.9.6 1.3z"/></g><defs><path id="o" d="M206.6 166.6l-.2.2h-.1c-.3 0-.6.1-.9.1-.6 0-1.2.1-1.8 0-.3 0-.6-.1-.8-.3-.2-.3-.3-.9-.4-1.3-.4-2.2-.4-4.3-.2-6.5 1.1.4 2.3.7 3.4.9-.3 2 .2 4.8.4 5.6.4.4.5.9.6 1.3z"/></defs><clipPath id="p"><use xlink:href="#o"/></clipPath><g class="C"><path d="M204.1 166.8c-.1-.1-.1-.1 0 0v.2.2l4.9-1.2c0-.2-.2-1.3-.9-2.2l-4 3zm-.9-7.5c-.2 1.3-.1 2.8 0 3.9.1 1.2.3 2.2.4 2.7l4.9-1.2c-.1-.3-.2-1.1-.3-2-.1-1-.1-1.9 0-2.6l-5-.8zm-1.8 1.9c1.2.5 2.6.8 3.9 1l.8-4.9c-1.1-.2-2.1-.4-3-.8l-1.7 4.7zm3.5 3.7c-.3-1.9-.4-3.8-.2-5.8l-5-.5c-.2 2.3-.2 4.7.2 7.2l5-.9zm0 .3c.1.1.1.1.1.2v.1-.1c0-.1 0-.2-.1-.3 0-.1-.1-.2-.1-.4l-4.9 1.2c0 .1 0 .1.1.3 0 .1.1.3.1.4.1.2.2.8.6 1.4l4.2-2.8zm-1.3-.8c.1 0 .3 0 .4.1.2.1.4.2.6.4l-3.5 3.5c.8.8 1.8 1 2.6 1v-5zm1.8 0h-1-.4l-.8 4.9a8.17 8.17 0 0 0 1.4.1h.8v-5zm.9-.1h-.5-.3-.1.1v5h.5.3.1-.1v-5zm.1 0h0l-.1 5h.1v-5zm-1.6.5c0 .1 0 .1 0 0l-.2.2 3.5 3.5.1-.1.1-.1-3.5-3.5zm1.3.5l-2.4.6c.1.3.2.6.4.9l2-1.5zm-.4-5.6l2.5.4a2.47 2.47 0 0 0-2.1-2.8l-.4 2.4zm-3.4-.9l.9-2.3c-.7-.3-1.5-.2-2.2.2s-1.1 1.1-1.1 1.9l2.4.2zm.2 6.5l-2.5.4v.2l2.5-.6zm.4 1.3l-2.1 1.4c.1.1.2.3.3.4l1.8-1.8zm.7.3l.4-2.5h-.4v2.5zm2.8-.1v2.5c.7 0 1.3-.3 1.8-.7l-1.8-1.8zm.2-.2l1.8 1.8c.6-.6.9-1.5.7-2.4l-2.5.6z" clip-path="url(#p)"/><path d="M203.1 149.2c-1 1.2-1.9 2.5-2.7 3.8l-1 1.7c-.4-.1-.8-.3-1.1-.5s-.6-.4-.8-.6c-.1-.1-.3-.2-.4-.3 0 0-.1 0-.1-.1.1-.3.3-.5.3-.7.2-.5.4-.9.7-1.3l1.6-2.4c.2-.3.4-.6.8-.7.3-.1.7 0 1 0 .6.2 1.2.6 1.7 1.1z"/></g><defs><path id="q" d="M203.1 149.2c-1 1.2-1.9 2.5-2.7 3.8l-1 1.7c-.4-.1-.8-.3-1.1-.5s-.6-.4-.8-.6c-.1-.1-.3-.2-.4-.3 0 0-.1 0-.1-.1.1-.3.3-.5.3-.7.2-.5.4-.9.7-1.3l1.6-2.4c.2-.3.4-.6.8-.7.3-.1.7 0 1 0 .6.2 1.2.6 1.7 1.1z"/></defs><clipPath id="r"><use xlink:href="#q"/></clipPath><g class="C"><path d="M201 150.7c-.1-.1-.1-.1 0 0l.3.3 3.5-3.5c-.7-.7-1.7-1.5-3-1.7l-.8 4.9zm.2-.1c-.2.1-.3.1-.4.1h-.1.1.1.1.2.3v-5h0-.3c-.2 0-.8-.1-1.5.2l1.5 4.7zm.5-.3l.1-.1c0-.1 0 0-.1.1 0 0-.1.1-.3.2-.1.1-.3.1-.4.2l-1.2-4.9c-1.5.4-2.1 1.5-2.3 1.7l4.2 2.8zm-1.5 2.3c.5-.8.9-1.5 1.5-2.2l-4-3c-.7.9-1.2 1.8-1.7 2.5l4.2 2.7zm-.5.8c.1-.4.3-.6.4-.7l-4-3a4.98 4.98 0 0 0-1 1.9l4.6 1.8zm-.3.6c0 .1-.1.2 0 0l.2-.4c.1-.2.2-.6.2-1.1h-5c0-.4.1-.6.1-.8 0-.1 0-.1.1-.1v.1s-.1.1-.1.2c-.1.1-.2.3-.2.6l4.7 1.5zm-2.3-.7v-2.5h.1.2c.2 0 .4.1.7.2s.6.4.9.8.4.9.4 1.3h-5c0 .5.1 1 .4 1.4.3.5.7.7 1 .9l.7.2h.2.1c.3.2.3.2.3-2.3zm2.2-1.5c-.2-.2-.3-.3-.4-.3-.1-.1-.2-.1-.2-.1l.2.2-3.5 3.5c.2.2.3.3.4.3.1.1.2.1.2.1l-.2-.2 3.5-3.5zm.4.3c-.2-.1-.3-.2-.3-.2-.1-.1-.1-.1-.1 0l-3.5 3.5c.4.4.9.8 1.2.9l2.7-4.2zm.3.2h-.1c-.1 0-.1-.1-.2-.1l-2.8 4.2c.5.3 1.1.7 1.9.8l1.2-4.9zm-1.7-.6l-1.1 1.8 4.5 2.2c.2-.5.5-.9.9-1.5l-4.3-2.5zm2.8-4.1c-1.1 1.3-2.1 2.7-2.9 4.2l4.3 2.5c.7-1.3 1.5-2.4 2.4-3.5l-3.8-3.2zm.3.6l.4-2.5h-.4v2.5zm-1 0l.6 2.4c.1 0 .1 0 .2-.1l-.8-2.3zm-.8.7l2 1.5.1-.1-2.1-1.4zm-1.6 2.3l2 1.5c0-.1.1-.1.1-.2l-2.1-1.3zm-.7 1.3l-2.3-.9c-.1.3-.2.6-.2.9h2.5zm-.3.7l-2.4-.8c-.1.3-.1.5-.1.8h2.5zm.1.1l1.8-1.8c-.5-.5-1.1-.7-1.8-.7v2.5zm.4.3l-1.8 1.8 1.8-1.8zm1.9 1.1l-.6 2.4c1.1.3 2.3-.3 2.8-1.3l-2.2-1.1zm1-1.7l2.1 1.3-2.1-1.3zm2.7-3.8l1.9 1.6c.8-1 .8-2.5-.2-3.4l-1.7 1.8z" clip-path="url(#r)"/><path d="M195.5 154.4c.1-.1 0-.1 0 0l1.1 1c.2.1.3.3.5.4v.1c-.4 1.7-.7 3.4-.7 5.2 0 .1-.1.1-.1 0-.5-2.1-1.1-5.4-.8-6.7z"/></g><defs><path id="s" d="M195.5 154.4c.1-.1 0-.1 0 0l1.1 1c.2.1.3.3.5.4v.1c-.4 1.7-.7 3.4-.7 5.2 0 .1-.1.1-.1 0-.5-2.1-1.1-5.4-.8-6.7z"/></defs><clipPath id="t"><use xlink:href="#s"/></clipPath><g class="C"><path d="M198.7 160.5l-.6-3.4c-.1-.6-.1-1.1-.1-1.5v-.6l-4.9-1.1c-.2.7-.2 1.4-.1 2 0 .6.1 1.3.2 2l.7 3.9 4.8-1.3zm-4.9.6c0-.6.5-2.4 2.5-2.4s2.5 1.8 2.5 2.4h-5c-.1.7.4 2.6 2.5 2.6s2.5-1.9 2.5-2.6h-5zm.8-5.8c-.4 1.8-.8 3.8-.8 5.8h5c0-1.5.3-3.1.6-4.6l-4.8-1.2zm2.4.5h-2.5 0 0 0 0 0 0 0 0 0 0 0 0 0 0 0 0 0 0 0 0 0 0 0 0 0 0 0 0 0 0 0 0 0 0 0 0 0 0 0 0 0 0 0 0 0 0 0 0 0 0 0 0 0 0 0 0 0 0 0 0 0 0 0 0 0 0 0 0 0 0 0 0 0 0 0 0 0 0 0 0 0 0 0 0 0 0 0 0 0 0 0 0 0 0 0 0 0 5 0 0 0 0 0 0 0 0 0 0 0 0 0 0 0 0 0 0 0 0 0 0 0 0 0 0 0 0 0 0 0 0 0 0 0 0 0 0 0 0 0 0 0 0 0 0 0 0 0 0 0 0 0 0 0 0 0 0 0 0 0 0 0 0 0 0 0 0 0 0 0 0 0 0 0 0 0 0 0 0 0 0 0 0 0 0 0 0 0 0 0 0 0 0 0 0-2.5zm-1.6 1.8c-.2-.1-.3-.2-.4-.2s-.1-.1 0 0c0 0 .1.1.3.2.1.1.4.3.6.4l2.2-4.5c.2.1.3.2.4.2s.1.1 0 0c0 0-.1-.1-.3-.2-.1-.1-.4-.3-.6-.4l-2.2 4.5zm-1.7-1.4c.4.4.8.8 1.4 1.2l3-4c-.2-.2-.4-.3-.8-.8l-3.6 3.6zm4.3-1.8c0 .4-.1.8-.4 1.3-.1.2-.3.4-.6.6-.2.2-.7.5-1.5.5-.4 0-.9-.1-1.4-.5s-.8-.8-.9-1.3c-.2-.8 0-1.4 0-1.6.2-.5.5-.8.5-.8l3.5 3.5c.1-.1.4-.4.6-.9.1-.2.3-.9 0-1.6-.1-.4-.4-.9-.9-1.3s-1-.5-1.5-.5c-.8 0-1.3.3-1.5.5-.3.2-.5.5-.6.7-.3.5-.4.9-.4 1.4h5.1zm-1.7 6.7h2.5c0-.2 0-.4-.1-.6l-2.4.6zm.7-5.2l2.4.6c0-.2.1-.4.1-.6H197zm0-.1h2.5c0-.9-.5-1.8-1.4-2.2l-1.1 2.2zm-.5-.4l-1.5 2c.1.1.2.2.4.2l1.1-2.2z" clip-path="url(#t)"/><path d="M200.3 158c-.2 1.5-.3 3-.2 4.4 0 .8.1 1.6.2 2.5h-.6-.1-.1l-.4-.2c-.2-.1-.4-.4-.6-.7-.4-.7-.5-1.5-.5-2.3-.1-1.5.1-3.1.4-4.5.2.1.5.2.8.3.4.2.7.4 1.1.5z"/></g><defs><path id="u" d="M200.3 158c-.2 1.5-.3 3-.2 4.4 0 .8.1 1.6.2 2.5h-.6-.1-.1l-.4-.2c-.2-.1-.4-.4-.6-.7-.4-.7-.5-1.5-.5-2.3-.1-1.5.1-3.1.4-4.5.2.1.5.2.8.3.4.2.7.4 1.1.5z"/></defs><clipPath id="v"><use xlink:href="#u"/></clipPath><path d="M198.1 159.8c.1 0 .8.5 1.6.7l1.2-4.9h0s-.1-.1-.2-.1-.2-.1-.3-.2l-2.3 4.5zm-.8-.3c.4.2.9.4 1.1.4l1.6-4.7c-.2-.1-.3-.1-.4-.1h-.1l-2.2 4.4zm3.2 2.1c-.1-1.2.1-2.5.4-3.9l-4.9-1c-.3 1.6-.6 3.4-.4 5.2l4.9-.3zm.2 1.2c-.1-.1-.2-.4-.2-1h-5c0 1 .1 2.3.8 3.5l4.4-2.5zm-.5-.3c.2.1.4.2.4.3l.1.1s-.1-.1-.1-.2l-4.2 2.8c.1.1.2.4.4.6.1.2.5.6 1.1.9l2.3-4.5zm.4.2c-.1 0-.1-.1-.2-.1s-.1 0-.2-.1L198 167c.1 0 .1.1.2.1s.1 0 .2.1l2.2-4.5zm-1-.3h0l-.1 5h.1v-5zm.1 0h0l-.1 5h.1v-5zm.6 0c-.1 0-.1 0 0 0-.1 0-.1 0 0 0-.1 0-.1 0 0 0-.1 0-.1 0 0 0-.1 0-.1 0 0 0-.1 0-.1 0 0 0-.1 0-.1 0 0 0-.1 0-.1 0 0 0-.1 0-.1 0 0 0-.1 0-.1 0 0 0-.1 0-.1 0 0 0-.1 0-.1 0 0 0-.1 0-.1 0 0 0-.1 0-.1 0 0 0-.1 0-.1 0 0 0-.1 0-.1 0 0 0-.1 0-.1 0 0 0-.1 0-.1 0 0 0-.1 0-.1 0 0 0-.1 0-.1 0 0 0-.1 0-.1 0 0 0-.1 0-.1 0 0 0-.1 0-.1 0 0 0-.1 0-.1 0 0 0-.1 0-.1 0 0 0-.1 0-.1 0 0 0-.1 0-.1 0 0 0-.1 0-.1 0 0 0-.1 0-.1 0 0 0-.1 0-.1 0 0 0-.1 0-.1 0 0 0-.1 0-.1 0 0 0-.1 0-.1 0 0 0-.1 0-.1 0 0 0-.1 0-.1 0 0 0-.1 0-.1 0 0 0-.1 0-.1 0 0 0-.1 0-.1 0 0 0-.1 0-.1 0 0 0-.1 0-.1 0 0 0-.1 0-.1 0 0 0-.1 0-.1 0 0 0-.1 0-.1 0 0 0-.1 0-.1 0 0 0-.1 0-.1 0 0 0-.1 0-.1 0 0 0-.1 0-.1 0 0 0-.1 0-.1 0 0 0-.1 0-.1 0 0 0-.1 0-.1 0 0 0-.1 0-.1 0 0 0-.1 0-.1 0 0 0-.1 0-.1 0 0 0-.1 0-.1 0 0 0-.1 0-.1 0 0 0-.1 0-.1 0 0 0-.1 0-.1 0 0 0h-.1v5-5zm-2.7.1c0 1 .1 1.9.2 2.7l5-.6-.2-2.2h-5zm.2-4.8c-.2 1.6-.3 3.2-.2 4.9l5-.3c-.1-1.3 0-2.6.2-3.9l-5-.7zm1.4-.2l1.1-2.2c-.1-.1-.2-.1-.3-.1l-.8 2.3zm-.8-.3l1.1-2.2c-.7-.3-1.5-.4-2.2 0-.7.3-1.2 1-1.4 1.8l2.5.4zm-.4 4.6h2.5v-.2l-2.5.2zm.5 2.2l-2.2 1.2.1.1 2.1-1.3zm1 .9l-1.1 2.2c.3.2.7.3 1.1.3v-2.5zm.8 0v2.5c.7 0 1.4-.3 1.9-.8s.7-1.2.6-1.9l-2.5.2zm-.2-2.4h2.5v-.2l-2.5.2zm.2-4.5l2.5.3c.2-1.3-.6-2.4-1.9-2.8l-.6 2.5z" clip-path="url(#v)" class="C"/><defs><circle id="w" cx="253" cy="132" r="132"/></defs><clipPath id="x"><use xlink:href="#w"/></clipPath><path d="M253 3c71.2 0 129 57.8 129 129h6C388 57.4 327.6-3 253-3v6zM124 132C124 60.8 181.8 3 253 3v-6c-74.6 0-135 60.4-135 135h6zm129 129c-71.2 0-129-57.8-129-129h-6c0 74.6 60.4 135 135 135v-6zm129-129c0 71.2-57.8 129-129 129v6c74.6 0 135-60.4 135-135h-6z" clip-path="url(#x)" class="C"/></svg>