<svg xmlns="http://www.w3.org/2000/svg" width="40" height="40" fill="none"><g clip-path="url(#A)" stroke="#fff" stroke-linejoin="round" stroke-width="1.5"><path d="M31.667 28.333H30a1.67 1.67 0 0 1-1.667-1.667v-8.333A1.67 1.67 0 0 1 30 16.666h1.667c1.842 0 3.333 1.492 3.333 3.333v5c0 1.842-1.492 3.333-3.333 3.333zm-21.667 0H8.333C6.492 28.333 5 26.842 5 25v-5c0-1.842 1.492-3.333 3.333-3.333H10a1.67 1.67 0 0 1 1.667 1.667v8.333A1.67 1.67 0 0 1 10 28.333z"/><path d="M30.833 16.667v-.833C30.833 9.85 25.983 5 19.999 5S9.166 9.85 9.166 15.833v.833" stroke-linecap="round"/><path d="M21.042 35.417h-2.083c-1.15 0-2.083-.933-2.083-2.083s.933-2.083 2.083-2.083h2.083c1.15 0 2.083.933 2.083 2.083s-.933 2.083-2.083 2.083z"/><path d="M23.125 33.333h3.542C28.508 33.333 30 31.842 30 30v-1.667" stroke-linecap="round"/></g><defs><clipPath id="A"><path fill="#fff" d="M0 0h40v40H0z"/></clipPath></defs></svg>