<svg xmlns="http://www.w3.org/2000/svg" width="505" height="440" fill="none" stroke-width="3"><path d="M0 438h62.076l74.66-74.673 26.005 26.01H312.06L435.374 266H505" stroke="#6baaff"/><g stroke="#fff"><circle cx="228" cy="132" r="130.5"/><path d="M237.389 119.323l.018-.01.018-.01 24.664-14.535c3.125-1.546 6.539-1.495 9.126-.019l35.715 20.724c3.074 1.93 4.57 4.971 4.57 7.981v41.919c0 3.423-1.909 6.461-4.539 7.964l-.009.005-35.7 20.715c-3.127 1.548-6.542 1.499-9.131.021l-35.714-20.723c-3.074-1.93-4.57-4.971-4.57-7.982v-13.696l13.767-7.971v11.519c0 4.517 2.501 8.537 6.046 10.565l18.969 11.029.041.024.043.021c3.92 1.96 8.427 2.005 12.005-.039l.011-.007.012-.007 18.532-11.031.014-.009.014-.008c3.972-2.483 6-6.496 6-10.538v-22.063c0-4.517-2.501-8.538-6.045-10.566l-18.97-11.029-.041-.023-.042-.021c-3.921-1.961-8.428-2.005-12.005.039l-.01.006-24.266 14.118-.003.002-16.765 9.706-.003.001-24.226 14.096c-3.127 1.548-6.542 1.498-9.13.021l-35.715-20.724c-3.074-1.93-4.57-4.971-4.57-7.981V89.329c0-3.045 1.514-6.008 4.466-7.483l.044-.022.043-.025 36.139-21.154c3.124-1.546 6.537-1.497 9.124-.022l35.274 20.723c3.076 1.93 4.573 4.972 4.573 7.984v14.138l-13.767 7.971v-11.96c0-4.513-2.496-8.529-6.035-10.559l-18.958-11.463-.052-.031-.054-.027c-3.92-1.96-8.427-2.005-12.005.039h0l-.009.006-18.974 11.031-.021.012-.02.013c-3.973 2.483-6 6.496-6 10.538v22.062c0 4.513 2.495 8.529 6.034 10.559l18.958 11.464.052.031.054.027c3.921 1.96 8.427 2.005 12.005-.04l.014-.007.013-.009 24.246-14.547 16.745-9.254z"/></g></svg>