<svg xmlns="http://www.w3.org/2000/svg" width="505" height="440" fill="none" stroke-width="3"><path d="M0 438h62.076l74.66-74.673 26.005 26.01H312.06L435.374 266H505" stroke="#6baaff"/><g stroke="#fff"><circle cx="228" cy="132" r="130.5"/><path d="M229.912 124.866l.01.001.01.002c10.936 1.306 18.825 3.497 23.977 7.423 5.026 3.83 7.645 9.473 7.645 18.283 0 13.246-9.79 23.717-24.889 26.244l-1.253.209v1.27 12.397c-.447 2.065-1.56 2.832-2.679 2.832h-7.69c-2.066-.448-2.833-1.561-2.833-2.679v-12.55-1.29l-1.275-.193c-8.4-1.271-14.493-4.174-18.728-8.226-4.203-4.022-6.689-9.284-7.707-15.512v-.406c0-1.268.897-2.165 2.165-2.165h8.885c.846 0 1.828.538 2.202 1.971.829 4.118 2.524 7.879 5.96 10.583 3.43 2.699 8.38 4.175 15.369 4.175 10.455 0 18.756-6.137 18.756-15.618 0-2.227-.312-4.217-1.092-5.978-.789-1.781-2.019-3.243-3.717-4.461-3.312-2.375-8.461-3.852-15.779-5.157l-.043-.007-.044-.006c-10.916-1.297-18.675-3.613-23.698-7.535-4.91-3.833-7.395-9.358-7.395-17.644 0-12.173 9.222-22.122 24.325-24.14l1.302-.174v-1.313-11.87c.448-2.066 1.561-2.832 2.679-2.832h7.691c2.065.448 2.832 1.561 2.832 2.679v12.55 1.376l1.37.119c11.29.978 20.137 9.286 22.161 20.079v.39c0 1.267-.897 2.164-2.164 2.164h-8.371c-.959 0-1.931-.661-2.242-1.586-1.385-4.161-3.526-7.232-6.703-9.227-3.144-1.974-7.124-2.779-11.976-2.779-5.427 0-9.728 1.218-12.701 3.596-3.021 2.415-4.487 5.88-4.487 9.926 0 3.894.849 7.301 4.087 9.92 3.088 2.499 8.156 4.106 16.04 5.159zm-29.841-80.908l.35-.111.231-.232a1.2 1.2 0 0 1 .264-.07 3.99 3.99 0 0 1 .606-.044c.651.191 1.067.51 1.334.878.299.41.496.999.496 1.8v7.317c0 1.112-.219 1.869-.56 2.424-.331.538-.851 1.01-1.674 1.43-21.796 8.002-39.355 25.033-47.347 47.398-15.436 40.98 5.802 87.261 47.249 102.261.574.414 1.165 1.016 1.618 1.671.513.741.714 1.354.714 1.703v7.317l-.007.638c-.006.166-.018.257-.029.311-.004.022-.008.034-.01.039a.29.29 0 0 1-.041.047l-.293.293-.101.402c-.162.642-.533 1.041-.94 1.229-.4.185-.967.226-1.644-.111l-.101-.05-.108-.034c-28.817-9.264-50.946-31.392-60.211-60.209-15.438-48.901 11.329-100.862 60.204-116.297zm56.397-.1l.098.049.103.034c28.316 9.266 50.954 31.4 60.218 60.722 15.44 48.902-11.327 100.865-60.203 116.301l-.35.111-.231.231a1.21 1.21 0 0 1-.264.071c-.193.032-.398.041-.606.044-.651-.191-1.067-.51-1.335-.878-.298-.41-.496-.998-.496-1.8v-7.317c0-1.112.22-1.869.561-2.424.331-.538.851-1.01 1.674-1.431 21.796-8.002 39.355-25.032 47.347-47.397 15.436-40.98-5.802-87.262-47.249-102.261-.568-.411-1.148-1.006-1.591-1.694-.481-.749-.742-1.515-.742-2.196v-7.317l.007-.638c.007-.166.019-.257.03-.311.004-.022.008-.034.01-.04s.016-.022.041-.047l.293-.293.101-.402c.162-.642.533-1.041.94-1.229.4-.185.967-.226 1.644.11zm-3.022 1.864z"/></g></svg>