<svg xmlns="http://www.w3.org/2000/svg" width="505" height="494" fill="none"><path d="M0 492h62.076l74.66-74.673 26.005 26.01H312.06L435.374 320H505" stroke="#6baaff" stroke-width="3"/><path d="M253.502 152.239l-.503-.293-47.189-27.464-.788 1.236 48.48 26.521zm0 0l.503-.293m-.503.293l.503-.293m0 0l47.154-27.471.819 1.243c14.503 22.769 11.251 52.545-7.829 71.627-22.464 22.421-58.877 22.42-81.298.001-19.082-19.084-22.333-48.863-7.83-71.627l48.984 26.227zm.385-104.484l-.843-1.319-.842 1.32-41.354 64.774-.561.878.9.524 41.355 24.074.502.292.503-.292 41.397-24.073.902-.524-.562-.879-41.397-64.774zm-48.403 74.809l-.83-.482-.516.809-1.306 2.046h0c-15.007 23.555-11.644 54.369 8.102 74.117l.707-.707-.707.707c23.202 23.201 60.881 23.2 84.125.001l.001-.001c19.746-19.747 23.109-50.562 8.102-74.117l-.004-.006-.004-.006-1.349-2.047-.52-.79-.818.477-47.469 27.654-47.514-27.655zM384 132c0 72.349-58.651 131-131 131s-131-58.651-131-131S180.651 1 253 1s131 58.651 131 131zm-170.403-19.566l39.951-62.576 39.992 62.576-39.992 23.257-39.951-23.257z" stroke="#fff" stroke-width="2"/></svg>