<svg xmlns="http://www.w3.org/2000/svg" width="505" height="494" fill="none"><path d="M0 492h62.076l74.66-74.673 26.005 26.01H312.06L435.374 320H505" stroke="#6baaff" stroke-width="3"/><g stroke="#fff"><path d="M268.635 97.014l2.743 3.519-17.948 10.558-28.795-33.737 5.076-1.772 12.687-4.574c.024-.005.146-.026.417.031.329.069.78.232 1.361.534 1.166.607 2.602 1.641 4.243 3.043 3.269 2.791 7.056 6.781 10.683 10.91 3.616 4.116 7.025 8.314 9.533 11.488zm27.561 15.208l-18.438-11.801 1.936-4.192c1.322-3.101 2.873-7.27 4.069-12.059.369.203.774.436 1.208.7 2.006 1.221 4.565 3.075 6.836 5.619 2.266 2.538 4.219 5.731 5.09 9.654.747 3.364.719 7.364-.701 12.079zm12.362 22.305l.001.005c.158 1.827-.272 2.636-.491 2.935a1.31 1.31 0 0 1-.188.21l-6.771.882-1.678-21.154 4.332.71.04.007.04.006c2.581.364 3.328 1.047 3.482 1.227l.016.02.013.156 1.993-.156-1.993.156v.001.001.006l.002.022.007.085.026.33.095 1.213.318 4.012.756 9.326zm-1.181-15.098h0zM291.1 171.787l-.047-.147-.076-.151-7.718-15.154 15.855-12.828c.287.405.577.904.861 1.506.607 1.285 1.11 2.861 1.52 4.558.819 3.391 1.206 7.017 1.382 9.206l.001.012.001.011c.084.918.016 1.564-.152 2.121-.171.57-.481 1.168-1.038 1.953-.571.806-1.328 1.711-2.358 2.942l-3.657 4.513c-1.394 1.686-2.388 2.362-2.982 2.602-.49.198-.67.097-.751.051l-.002-.001c-.184-.103-.402-.337-.6-.682a3.37 3.37 0 0 1-.196-.399l-.04-.104zm-53.928 19.25l-.071-.011-.072-.005c-1.74-.126-2.258-.513-2.381-.65 0-.015.002-.042.01-.081a.51.51 0 0 1 .018-.066l21.259-43.184 21.513 9.626-1.823 2.927-7.011 11.043-7.895 11.838-5.463 7.043-.035.032-.033.033c-1.854 1.865-4.706 2.554-8.145 2.554-2.772 0-5.588-.438-8.118-.832l-1.753-.267zm-2.556-.715c.002-.001.011.01.023.038-.019-.023-.025-.037-.023-.038zm-38.376-49.095l1.992-.178h0v-.001l-.001-.005-.001-.019-.007-.075-.026-.294-.095-1.115-.316-3.936-.753-11.486v-.017l-.002-.017c-.181-2.684.462-3.719.763-4.062.165-.188.312-.269.382-.3l52.578-3.519 2.118 26.353-.273.034-5.131.384c-4.3.219-10.056.358-16.035.434-11.974.154-24.69.057-28.245-.131-3.321-.189-4.399-1.088-4.713-1.464-.167-.199-.215-.36-.231-.433l-.005-.03.011-.1-.018-.201-1.992.178z" stroke-width="4"/><circle cx="253" cy="132" r="130.5" stroke-width="3"/></g></svg>