<svg xmlns="http://www.w3.org/2000/svg" width="505" height="494" fill="none"><g stroke-width="3"><path d="M0 492h62.076l74.66-74.673 26.005 26.01H312.06L435.374 320H505" stroke="#6baaff"/><circle cx="253" cy="132" r="130.5" stroke="#fff"/></g><path d="M205.871 168.352h0a9.02 9.02 0 0 1-4.316-7.684v-22.44c0-.396.105-.781.312-1.136l.003-.006a2.26 2.26 0 0 1 3.092-.811l.006.004 50.645 29.524c2.184 1.281 3.521 3.603 3.521 6.124v23.254c0 .596-.166 1.192-.468 1.689a3.23 3.23 0 0 1-4.447 1.071l-.001-.001-48.347-29.588zm75.732 16.212l-7.726 4.349v-21.894c0-4.289-2.251-8.264-5.934-10.474l-.003-.002-43.239-25.869V102.55c0-.396.105-.781.312-1.136l.003-.006a2.26 2.26 0 0 1 3.092-.811l.006.003 50.629 29.525c2.184 1.28 3.522 3.603 3.522 6.124v47.182a1.29 1.29 0 0 1-.652 1.127l-.01.006zm19.312-89.284l.007.004c2.177 1.257 3.523 3.6 3.523 6.132v68.917c0 .464-.261.911-.688 1.144l-6.734 3.637v-43.696c0-4.29-2.252-8.247-5.913-10.455l-.006-.003-44.223-26.528V67.823c0-.392.103-.786.308-1.156.628-1.065 2.015-1.432 3.094-.807l50.632 29.419z" stroke="#fff" stroke-width="5.11"/></svg>