<svg xmlns="http://www.w3.org/2000/svg" width="505" height="494" fill="none"><g stroke-width="3"><path d="M0 492h62.076l74.66-74.673 26.005 26.01H312.06L435.374 320H505" stroke="#6baaff"/><circle cx="253" cy="132" r="130.5" stroke="#fff"/></g><path d="M319.986 192.907L268.555 68.565C265.654 62.136 261.342 59 255.658 59h-4.547c-5.684 0-9.996 3.136-12.897 9.565l-22.383 54.174h-16.934a9.28 9.28 0 0 0-9.212 9.212v.118c.039 5.057 4.155 9.173 9.212 9.212h9.094l-21.364 51.626c-.392 1.137-.627 2.313-.627 3.528 0 2.901.902 5.175 2.509 6.939s3.92 2.626 6.821 2.626c1.92-.039 3.763-.627 5.292-1.764 1.646-1.137 2.783-2.783 3.684-4.665l23.52-58.329h16.308a9.28 9.28 0 0 0 9.212-9.212v-.236a9.31 9.31 0 0 0-9.212-9.212h-8.703l17.954-44.727 48.921 121.677c.902 1.882 2.039 3.528 3.685 4.665 1.529 1.137 3.411 1.725 5.292 1.764 2.901 0 5.175-.863 6.821-2.627s2.509-4.037 2.509-6.938c.039-1.176-.157-2.391-.627-3.489z" stroke="#fff" stroke-width="4"/></svg>