<svg xmlns="http://www.w3.org/2000/svg" width="505" height="494" fill="none"><g stroke-width="3"><path d="M0 492h62.076l74.66-74.673 26.005 26.01H312.06L435.374 320H505" stroke="#6baaff"/><circle cx="253" cy="132" r="130.5" stroke="#fff"/></g><path d="M297.626 122.312c.092.23.214.444.358.64l-1.152-.063c-7.252-.422-11.293-1.009-15.229-2.32l-.003-.002c-3.377-1.111-5.877-2.367-8.538-4.654-2.695-2.315-5.582-5.709-9.682-11.162l-.001-.001c-3.655-4.845-5.976-7.514-8.314-9.766-2.325-2.245-4.658-4.015-7.141-5.376 4.566 1.815 8.928 5.136 13.566 10.31l1.516 1.769.362.422.55-.085 2.2-.338h0l.008-.002c9.217-1.494 18.662-.327 26.506 3.306l.002.001c1.062.49 2.45 1.235 3.628 1.923.588.343 1.113.666 1.512.93.199.132.359.244.475.333.041.03.071.055.093.073.036.105.081.258.13.46.097.399.198.919.279 1.447.579 3.888.296 6.587-.817 8.589l-.004.008-.004.008c-.337.631-.603 1.197-.654 1.805-.052.63.137 1.18.349 1.732v.001l.005.012zm13.678 3.709c-2.132-1.442-4.347-2.176-8.072-2.631.525-.448.995-1.014 1.403-1.625.98-1.47 1.793-3.48 2.32-5.765 3.139 3.681 5.677 8.29 6.834 12.177-.746-.821-1.546-1.514-2.481-2.153l-.004-.003zm-9.583-25.549l.095-.677c.215 1.092.485 1.974 1.007 2.88.561.976 1.401 1.954 2.69 3.304a1.49 1.49 0 0 0-.614-.092c-.313.022-.554.148-.726.269a3.17 3.17 0 0 0-.397.349c-.361.361-.524.785-.608 1.33-.178-.935-.435-1.758-.804-2.504-.655-1.328-1.629-2.348-2.96-3.317.492.132.871.172 1.259.075l.268-.067.196-.196c.355-.355.503-.851.594-1.354zm-64.657-8.568c.652.132 1.523.401 2.405.735.978.37 1.89.791 2.454 1.129 1.552.931 2.647 2.011 3.539 3.659.912 1.688 1.63 4.005 2.344 7.451v.001l1.3 5.275c.242.726.788 1.85 1.417 2.991.635 1.151 1.394 2.39 2.101 3.363.075.11.127.2.164.272-.221.039-.557.055-1.032.017-1.379-.148-3.098-.877-4.848-2.081a20.33 20.33 0 0 1-4.763-4.621c-3.428-4.734-5.628-12.112-5.145-17.516l.064-.675zm37.866 33.081l.005-.658c3.595 2.835 7.682 4.033 18.148 5.541 6.177.93 9.651 1.597 12.773 2.665h0l.01.003c9.942 3.286 15.984 9.957 17.44 18.927.196 1.258.241 3.147.147 5.085-.093 1.93-.32 3.818-.634 5.082-.256.907-.734 2.19-1.224 3.333-.618-3.156-2.398-6.075-5.018-8.396l-.007-.006-.006-.005c-3.698-3.169-8.419-5.507-19.576-9.986-8.353-3.374-13.868-6.467-17.297-9.865-3.372-3.341-4.761-7.014-4.761-11.72zm8.736 36.398c1.861-2.869 2.639-6.301 2.253-10.022l.104.284.003.007c.281.765.401 1.211.463 1.756.066.586.067 1.302.067 2.638 0 1.273-.022 1.995-.097 2.568-.071.544-.194.976-.436 1.662-.796 2.149-1.737 3.639-3.335 5.317-2.836 2.914-6.568 4.541-12.084 5.285l-.615.052-5.77.452c-3.015.161-5.574.399-7.85.752 2.263-.778 5.111-1.397 9.851-2.237 1.66-.255 3.343-.554 4.721-.831 1.308-.264 2.439-.527 2.981-.735 4.355-1.37 7.686-3.776 9.744-6.948zm17.039-5.728l.002.002c6.819 3.703 10.577 6.507 13.163 9.658l.001.001c2.246 2.727 3.62 5.86 4.272 9.769l.001.009.002.009c.19 1.025.238 2.877.153 4.81s-.292 3.791-.561 4.829h0c-1.733 6.696-5.571 12.049-11.12 15.253 1.867-4.319 2.035-8.539.512-13.196-.979-3.023-2.999-6.595-6.891-12.433l-.004-.006-.004-.006c-4.653-6.767-5.714-8.49-6.86-10.86-2.088-4.583-2.562-8.851-1.511-12.849a6.65 6.65 0 0 1 .221.141c1.062.708 3.23 1.92 8.624 4.869zm-61.721 37.684c-2.446-1.256-5.174-1.887-9.197-2.504l.286-.272c6.142-5.139 13.673-8.766 20.574-9.916 1.436-.239 3.395-.324 5.354-.252s3.846.301 5.138.653h0l.008.002c4.323 1.142 8.146 3.571 10.09 6.446 1.92 2.88 2.817 5.348 3.736 11.105l.768 4.708.08.467.005.027.005.026c.709 3.187 2.153 5.808 4.101 7.269l.004.003c1.782 1.322 4.246 1.856 6.917 1.713-.91.213-1.843.293-2.935.293-3.646 0-6.835-1.872-9.492-5.899l-.008-.011-.008-.011c-.246-.353-.66-1.112-1.161-2.124a91.09 91.09 0 0 1-1.535-3.29c-1.484-3.434-2.64-5.739-3.892-7.482-1.274-1.775-2.623-2.934-4.431-4.124h0l-.011-.007c-3.287-2.1-7.549-2.604-10.876-.989-4.463 2.135-5.683 7.896-2.518 11.463 1.279 1.472 3.536 2.584 5.427 2.868l.008.001.007.001c3.391.458 6.352-1.904 6.888-5.109-.027.745-.141 1.451-.329 1.995-1.242 3.192-4.755 4.929-8.451 3.95-1.338-.365-2.217-.71-3.161-1.345-.975-.657-2.056-1.648-3.746-3.38-2.971-3.056-5.12-4.979-7.645-6.275zm-17.17-75.833l-3.444-6.342 3.825 5.79 2.194 3.179 1.177 1.498c1.271 1.271 3.128 2.07 4.77 2.07.73 0 1.744-.198 2.681-.46.944-.263 1.941-.627 2.637-1.024 1.171-.657 2.072-1.525 2.41-2.63.352-1.151.018-2.303-.749-3.326-1.086-1.448-16.511-20.385-32.423-39.819l4.644 5.102 31.05 34.282.01.012.011.012.816.879-.066 1.529h-.001v.011c-.039 1.208-.251 2.169-.647 3.015s-1.003 1.633-1.906 2.457l-.009.009-.009.009c-1.988 1.911-4.545 2.96-8.75 3.538-1.331.172-2.33.375-3.158.726-.863.367-1.482.868-2.099 1.531l-.002.002c-1.273 1.379-1.701 3.145-1.955 6.699-.209 2.763-.478 4.656-1.002 6.521-.526 1.872-1.321 3.755-2.628 6.494v.001c-1.271 2.668-2.07 4.564-2.488 6.178-.429 1.657-.451 2.999-.222 4.553v.003c.568 3.786 2.782 6.535 7.449 9.733l.002.001c3.452 2.357 4.85 3.748 5.574 5.333.242.566.352.879.416 1.255.068.404.091.919.091 1.896 0 1.477-.126 2.385-.436 3.162s-.846 1.517-1.838 2.591c-3.104 3.342-8.886 6.156-16.077 7.829l-1.754.373c-.117.023-.219.041-.307.055-.052-.234-.129-.47-.212-.696-.16-.43-.388-.928-.667-1.476-.56-1.098-1.362-2.461-2.344-3.998l-.008-.012c-2.259-3.43-3.135-5.119-3.943-7.701-.902-2.955-1.219-4.868-1.057-7.944.084-1.499.206-2.526.437-3.451.23-.919.577-1.777 1.152-2.927l.004-.008.004-.008c.873-1.827 1.393-2.588 5.208-7.335 6.582-8.12 8.985-13.031 9.864-19.969.754-5.946 1.736-8.574 3.814-10.882l.004-.005c.675-.759 1.173-1.368 1.489-1.961.346-.647.457-1.238.457-1.92a1.5 1.5 0 0 0-.063-.408 3.7 3.7 0 0 0-.107-.317c-.083-.217-.203-.491-.357-.821-.31-.663-.787-1.608-1.462-2.887zm-12.715 74.779zm1.223-23.782h0l-.012-.008c-.955-.618-2.135-.78-3.101-.584-.905.183-2.081.83-2.081 2.186 0 .337.086.72.334 1.068.229.319.549.546.92.689-.022.086-.079.191-.167.329-.361.568-.614 1.219-.578 1.902.038.724.394 1.34.975 1.793.857.672 1.896.832 2.856.538.938-.287 1.741-.986 2.269-1.933 1.196-2.074.535-4.681-1.415-5.98zm41.073-34.245c.363-.544.565-1.164.53-1.802.226.261.429.536.606.817.621.989.832 1.927.693 2.596l-.004.017-.003.017c-.131.762-.883 1.679-2.403 2.439-1.474.737-3.476 1.217-5.668 1.217-1.163 0-1.816-.088-2.264-.255-.398-.148-.703-.385-1.095-.884-.025-.033-.104-.174-.185-.483a6.3 6.3 0 0 1-.168-1.049c-.068-.806-.024-1.635.109-2.172.248-.916.788-1.867 1.501-2.659a3.06 3.06 0 0 0-.083.715c0 1.064.804 1.897 1.549 2.39.802.53 1.858.895 2.921.895.728 0 1.523-.216 2.188-.506.643-.281 1.337-.705 1.744-1.248l.017-.022.015-.023z" stroke="#fff" stroke-width="2"/></svg>