<svg xmlns="http://www.w3.org/2000/svg" width="33" height="34" fill="none"><path fill-rule="evenodd" d="M0 16.767C0 7.522 7.261 0 16.186 0s16.186 7.522 16.186 16.767-7.261 16.767-16.186 16.767S0 26.013 0 16.767zm2.351 0c0 7.903 6.207 14.332 13.835 14.332s13.835-6.429 13.835-14.332S23.814 2.435 16.186 2.435 2.351 8.865 2.351 16.767zm13.835 1.134c2.673 0 4.849-2.253 4.849-5.022s-2.175-5.022-4.849-5.022-4.848 2.253-4.848 5.022 2.175 5.022 4.848 5.022zm0-7.609c1.377 0 2.498 1.16 2.498 2.587s-1.121 2.587-2.498 2.587-2.497-1.16-2.497-2.587 1.12-2.587 2.497-2.587zm2.228 9.145h-4.456c-2.775 0-5.107 2.066-5.545 4.913-.102.664.335 1.288.976 1.394.65.109 1.243-.346 1.346-1.011.255-1.659 1.611-2.862 3.224-2.862h4.456c1.614 0 2.97 1.203 3.224 2.861.092.599.591 1.026 1.159 1.026a1.14 1.14 0 0 0 .186-.015c.641-.105 1.078-.729.976-1.393-.437-2.848-2.77-4.914-5.546-4.914h0z" fill="#549cff"/></svg>